<mxfile host="app.diagrams.net" modified="2022-08-12T23:12:42.946Z" agent="5.0 (Windows NT 10.0; Win64; x64) AppleWebKit/537.36 (KHTML, like Gecko) Chrome/104.0.0.0 Safari/537.36" etag="slndttGeS6IHV1helWox" version="20.2.3" type="github" pages="5">
  <diagram id="EVU81i42gIE2PRELgSZP" name="Page-1">
    <mxGraphModel dx="868" dy="482" grid="1" gridSize="10" guides="1" tooltips="1" connect="1" arrows="1" fold="1" page="1" pageScale="1" pageWidth="2336" pageHeight="1654" math="0" shadow="0">
      <root>
        <mxCell id="0" />
        <mxCell id="1" parent="0" />
        <mxCell id="AnX_v5GPL1VZFpe8ImGV-27" value="" style="rounded=1;whiteSpace=wrap;html=1;fontSize=18;" parent="1" vertex="1">
          <mxGeometry x="190" y="505" width="340" height="35" as="geometry" />
        </mxCell>
        <mxCell id="AnX_v5GPL1VZFpe8ImGV-1" value="" style="rounded=1;whiteSpace=wrap;html=1;" parent="1" vertex="1">
          <mxGeometry x="170" y="100" width="670" height="470" as="geometry" />
        </mxCell>
        <mxCell id="AnX_v5GPL1VZFpe8ImGV-6" style="edgeStyle=orthogonalEdgeStyle;rounded=0;orthogonalLoop=1;jettySize=auto;html=1;" parent="1" source="AnX_v5GPL1VZFpe8ImGV-3" target="AnX_v5GPL1VZFpe8ImGV-5" edge="1">
          <mxGeometry relative="1" as="geometry" />
        </mxCell>
        <mxCell id="AnX_v5GPL1VZFpe8ImGV-3" value="" style="sketch=0;pointerEvents=1;shadow=0;dashed=0;html=1;strokeColor=none;fillColor=#505050;labelPosition=center;verticalLabelPosition=bottom;verticalAlign=top;outlineConnect=0;align=center;shape=mxgraph.office.devices.hard_disk;" parent="1" vertex="1">
          <mxGeometry x="250" y="155" width="70" height="90" as="geometry" />
        </mxCell>
        <mxCell id="AnX_v5GPL1VZFpe8ImGV-4" value="&lt;font style=&quot;font-size: 18px;&quot;&gt;Disk&lt;/font&gt;" style="text;html=1;strokeColor=none;fillColor=none;align=center;verticalAlign=middle;whiteSpace=wrap;rounded=0;" parent="1" vertex="1">
          <mxGeometry x="250" y="260" width="60" height="30" as="geometry" />
        </mxCell>
        <mxCell id="AnX_v5GPL1VZFpe8ImGV-11" style="edgeStyle=orthogonalEdgeStyle;rounded=0;orthogonalLoop=1;jettySize=auto;html=1;fontSize=18;" parent="1" source="AnX_v5GPL1VZFpe8ImGV-5" target="AnX_v5GPL1VZFpe8ImGV-10" edge="1">
          <mxGeometry relative="1" as="geometry" />
        </mxCell>
        <mxCell id="AnX_v5GPL1VZFpe8ImGV-5" value="" style="sketch=0;shadow=0;dashed=0;html=1;strokeColor=none;fillColor=#505050;labelPosition=center;verticalLabelPosition=bottom;verticalAlign=top;outlineConnect=0;align=center;shape=mxgraph.office.databases.database_partition_3;" parent="1" vertex="1">
          <mxGeometry x="511.5" y="170.5" width="57" height="59" as="geometry" />
        </mxCell>
        <mxCell id="AnX_v5GPL1VZFpe8ImGV-18" style="edgeStyle=orthogonalEdgeStyle;rounded=0;orthogonalLoop=1;jettySize=auto;html=1;fontSize=18;" parent="1" source="AnX_v5GPL1VZFpe8ImGV-10" target="AnX_v5GPL1VZFpe8ImGV-17" edge="1">
          <mxGeometry relative="1" as="geometry">
            <Array as="points">
              <mxPoint x="740" y="390" />
            </Array>
          </mxGeometry>
        </mxCell>
        <mxCell id="AnX_v5GPL1VZFpe8ImGV-10" value="" style="sketch=0;points=[[0,0,0],[0.25,0,0],[0.5,0,0],[0.75,0,0],[1,0,0],[0,1,0],[0.25,1,0],[0.5,1,0],[0.75,1,0],[1,1,0],[0,0.25,0],[0,0.5,0],[0,0.75,0],[1,0.25,0],[1,0.5,0],[1,0.75,0]];outlineConnect=0;fontColor=#232F3E;gradientColor=#60A337;gradientDirection=north;fillColor=#277116;strokeColor=#ffffff;dashed=0;verticalLabelPosition=bottom;verticalAlign=top;align=center;html=1;fontSize=12;fontStyle=0;aspect=fixed;shape=mxgraph.aws4.resourceIcon;resIcon=mxgraph.aws4.elastic_file_system;" parent="1" vertex="1">
          <mxGeometry x="712" y="173" width="54" height="54" as="geometry" />
        </mxCell>
        <mxCell id="AnX_v5GPL1VZFpe8ImGV-12" value="&lt;font style=&quot;font-size: 18px;&quot;&gt;Format &lt;br&gt;with&amp;nbsp;&lt;/font&gt;&lt;span style=&quot;font-size: 18px;&quot;&gt;Filesystem&lt;/span&gt;" style="text;html=1;strokeColor=none;fillColor=none;align=center;verticalAlign=middle;whiteSpace=wrap;rounded=0;rotation=0;" parent="1" vertex="1">
          <mxGeometry x="580" y="210" width="130" height="40" as="geometry" />
        </mxCell>
        <mxCell id="AnX_v5GPL1VZFpe8ImGV-13" value="&lt;font style=&quot;font-size: 18px;&quot;&gt;Create Partition&lt;/font&gt;" style="text;html=1;strokeColor=none;fillColor=none;align=center;verticalAlign=middle;whiteSpace=wrap;rounded=0;" parent="1" vertex="1">
          <mxGeometry x="340" y="189.5" width="140" height="60.5" as="geometry" />
        </mxCell>
        <mxCell id="AnX_v5GPL1VZFpe8ImGV-17" value="" style="shape=image;html=1;verticalAlign=top;verticalLabelPosition=bottom;labelBackgroundColor=#ffffff;imageAspect=0;aspect=fixed;image=https://cdn2.iconfinder.com/data/icons/whcompare-isometric-web-hosting-servers/50/rack-mount-server-128.png;fontSize=18;" parent="1" vertex="1">
          <mxGeometry x="450" y="330" width="86" height="86" as="geometry" />
        </mxCell>
        <mxCell id="AnX_v5GPL1VZFpe8ImGV-20" value="&lt;font style=&quot;font-size: 18px;&quot;&gt;Mount At Directory&lt;/font&gt;" style="text;html=1;strokeColor=none;fillColor=none;align=center;verticalAlign=middle;whiteSpace=wrap;rounded=0;" parent="1" vertex="1">
          <mxGeometry x="557" y="350" width="176" height="30" as="geometry" />
        </mxCell>
        <mxCell id="AnX_v5GPL1VZFpe8ImGV-21" value="" style="endArrow=classic;html=1;rounded=0;fontSize=18;exitX=0.25;exitY=1;exitDx=0;exitDy=0;entryX=0.5;entryY=0;entryDx=0;entryDy=0;" parent="1" source="AnX_v5GPL1VZFpe8ImGV-17" target="AnX_v5GPL1VZFpe8ImGV-23" edge="1">
          <mxGeometry width="50" height="50" relative="1" as="geometry">
            <mxPoint x="340" y="490" as="sourcePoint" />
            <mxPoint x="400" y="440" as="targetPoint" />
          </mxGeometry>
        </mxCell>
        <mxCell id="AnX_v5GPL1VZFpe8ImGV-22" value="" style="endArrow=classic;html=1;rounded=0;fontSize=18;exitX=0.5;exitY=1;exitDx=0;exitDy=0;entryX=0.5;entryY=0;entryDx=0;entryDy=0;" parent="1" source="AnX_v5GPL1VZFpe8ImGV-17" target="AnX_v5GPL1VZFpe8ImGV-25" edge="1">
          <mxGeometry width="50" height="50" relative="1" as="geometry">
            <mxPoint x="540" y="470" as="sourcePoint" />
            <mxPoint x="580" y="420" as="targetPoint" />
          </mxGeometry>
        </mxCell>
        <mxCell id="AnX_v5GPL1VZFpe8ImGV-28" style="edgeStyle=orthogonalEdgeStyle;rounded=0;orthogonalLoop=1;jettySize=auto;html=1;fontSize=18;" parent="1" source="AnX_v5GPL1VZFpe8ImGV-23" target="AnX_v5GPL1VZFpe8ImGV-26" edge="1">
          <mxGeometry relative="1" as="geometry">
            <Array as="points">
              <mxPoint x="430" y="488" />
              <mxPoint x="321" y="488" />
            </Array>
          </mxGeometry>
        </mxCell>
        <mxCell id="AnX_v5GPL1VZFpe8ImGV-23" value="Temporary" style="text;html=1;strokeColor=none;fillColor=none;align=center;verticalAlign=middle;whiteSpace=wrap;rounded=0;fontSize=18;" parent="1" vertex="1">
          <mxGeometry x="360" y="440" width="140" height="30" as="geometry" />
        </mxCell>
        <mxCell id="AnX_v5GPL1VZFpe8ImGV-30" style="edgeStyle=orthogonalEdgeStyle;rounded=0;orthogonalLoop=1;jettySize=auto;html=1;entryX=0.25;entryY=0;entryDx=0;entryDy=0;fontSize=18;" parent="1" source="AnX_v5GPL1VZFpe8ImGV-25" target="AnX_v5GPL1VZFpe8ImGV-29" edge="1">
          <mxGeometry relative="1" as="geometry">
            <Array as="points">
              <mxPoint x="644" y="488" />
            </Array>
          </mxGeometry>
        </mxCell>
        <mxCell id="AnX_v5GPL1VZFpe8ImGV-25" value="Permanent&amp;nbsp;" style="text;html=1;strokeColor=none;fillColor=none;align=center;verticalAlign=middle;whiteSpace=wrap;rounded=0;fontSize=18;" parent="1" vertex="1">
          <mxGeometry x="500" y="440" width="90" height="30" as="geometry" />
        </mxCell>
        <mxCell id="AnX_v5GPL1VZFpe8ImGV-26" value="Mount &amp;lt;Partition Name &amp;gt;&amp;nbsp; &amp;lt;Mount Point&amp;gt;&lt;br&gt;swapon &amp;lt;Partition Name&amp;gt;" style="text;html=1;strokeColor=none;fillColor=none;align=center;verticalAlign=middle;whiteSpace=wrap;rounded=0;fontSize=18;" parent="1" vertex="1">
          <mxGeometry x="175" y="507.5" width="355" height="72.5" as="geometry" />
        </mxCell>
        <mxCell id="AnX_v5GPL1VZFpe8ImGV-29" value="Make Entry into /etc/fstab" style="text;html=1;strokeColor=none;fillColor=none;align=center;verticalAlign=middle;whiteSpace=wrap;rounded=0;fontSize=18;" parent="1" vertex="1">
          <mxGeometry x="580" y="507.5" width="255" height="30" as="geometry" />
        </mxCell>
        <mxCell id="CdIbYU2yJEn9IybxZBR8-1" value="This is same for SWAP and normal partition" style="text;html=1;strokeColor=none;fillColor=none;align=center;verticalAlign=middle;whiteSpace=wrap;rounded=0;fontSize=18;" parent="1" vertex="1">
          <mxGeometry x="313" y="110" width="420" height="30" as="geometry" />
        </mxCell>
      </root>
    </mxGraphModel>
  </diagram>
  <diagram id="h9toAw5A7moBohJLv-0q" name="ELB">
    <mxGraphModel dx="1108" dy="2136" grid="1" gridSize="10" guides="1" tooltips="1" connect="1" arrows="1" fold="1" page="1" pageScale="1" pageWidth="2336" pageHeight="1654" math="0" shadow="0">
      <root>
        <mxCell id="0" />
        <mxCell id="1" parent="0" />
        <mxCell id="OLs2Ah3NFqgqWYayta2k-46" style="edgeStyle=orthogonalEdgeStyle;rounded=0;orthogonalLoop=1;jettySize=auto;html=1;entryX=0;entryY=0.5;entryDx=0;entryDy=0;fontSize=24;" parent="1" source="OLs2Ah3NFqgqWYayta2k-36" edge="1">
          <mxGeometry relative="1" as="geometry">
            <mxPoint x="540" y="-168" as="targetPoint" />
          </mxGeometry>
        </mxCell>
        <mxCell id="OLs2Ah3NFqgqWYayta2k-36" value="" style="rounded=0;whiteSpace=wrap;html=1;fontSize=24;" parent="1" vertex="1">
          <mxGeometry x="60" y="-263" width="420" height="190" as="geometry" />
        </mxCell>
        <mxCell id="OLs2Ah3NFqgqWYayta2k-37" value="" style="outlineConnect=0;dashed=0;verticalLabelPosition=bottom;verticalAlign=top;align=center;html=1;shape=mxgraph.aws3.application_load_balancer;fillColor=#F58534;gradientColor=none;fontSize=24;" parent="1" vertex="1">
          <mxGeometry x="105" y="-204" width="69" height="72" as="geometry" />
        </mxCell>
        <mxCell id="OLs2Ah3NFqgqWYayta2k-42" value="" style="edgeStyle=orthogonalEdgeStyle;rounded=0;orthogonalLoop=1;jettySize=auto;html=1;fontSize=24;" parent="1" source="OLs2Ah3NFqgqWYayta2k-38" target="OLs2Ah3NFqgqWYayta2k-41" edge="1">
          <mxGeometry relative="1" as="geometry" />
        </mxCell>
        <mxCell id="OLs2Ah3NFqgqWYayta2k-38" value="&lt;b&gt;Frontend&lt;/b&gt;" style="rounded=1;whiteSpace=wrap;html=1;fontSize=24;" parent="1" vertex="1">
          <mxGeometry x="79.5" y="-234" width="120" height="30" as="geometry" />
        </mxCell>
        <mxCell id="OLs2Ah3NFqgqWYayta2k-44" style="edgeStyle=orthogonalEdgeStyle;rounded=0;orthogonalLoop=1;jettySize=auto;html=1;fontSize=24;" parent="1" source="OLs2Ah3NFqgqWYayta2k-39" target="OLs2Ah3NFqgqWYayta2k-43" edge="1">
          <mxGeometry relative="1" as="geometry" />
        </mxCell>
        <mxCell id="OLs2Ah3NFqgqWYayta2k-39" value="&lt;b&gt;Backend&lt;/b&gt;" style="rounded=1;whiteSpace=wrap;html=1;fontSize=24;" parent="1" vertex="1">
          <mxGeometry x="79.5" y="-132" width="120" height="30" as="geometry" />
        </mxCell>
        <mxCell id="OLs2Ah3NFqgqWYayta2k-41" value="Client Facing" style="text;html=1;strokeColor=none;fillColor=none;align=center;verticalAlign=middle;whiteSpace=wrap;rounded=0;fontSize=24;fontStyle=1" parent="1" vertex="1">
          <mxGeometry x="290" y="-234" width="200" height="30" as="geometry" />
        </mxCell>
        <mxCell id="OLs2Ah3NFqgqWYayta2k-43" value="&lt;b&gt;EC2-Facing&lt;/b&gt;" style="text;html=1;strokeColor=none;fillColor=none;align=center;verticalAlign=middle;whiteSpace=wrap;rounded=0;fontSize=24;" parent="1" vertex="1">
          <mxGeometry x="300" y="-132" width="200" height="30" as="geometry" />
        </mxCell>
        <mxCell id="OLs2Ah3NFqgqWYayta2k-45" value="Frontend is facing to the Internet and Backend is facing to EC2&lt;br&gt;&lt;br&gt;&lt;br&gt;" style="text;html=1;strokeColor=none;fillColor=none;spacing=5;spacingTop=-20;whiteSpace=wrap;overflow=hidden;rounded=0;fontSize=24;" parent="1" vertex="1">
          <mxGeometry x="540" y="-202.5" width="310" height="75" as="geometry" />
        </mxCell>
        <mxCell id="OLs2Ah3NFqgqWYayta2k-48" value="" style="rounded=0;whiteSpace=wrap;html=1;fontSize=24;" parent="1" vertex="1">
          <mxGeometry x="818" y="-350" width="700" height="390" as="geometry" />
        </mxCell>
        <mxCell id="OLs2Ah3NFqgqWYayta2k-52" style="edgeStyle=orthogonalEdgeStyle;rounded=0;orthogonalLoop=1;jettySize=auto;html=1;fontSize=24;" parent="1" source="OLs2Ah3NFqgqWYayta2k-49" target="OLs2Ah3NFqgqWYayta2k-50" edge="1">
          <mxGeometry relative="1" as="geometry" />
        </mxCell>
        <mxCell id="OLs2Ah3NFqgqWYayta2k-53" style="edgeStyle=orthogonalEdgeStyle;rounded=0;orthogonalLoop=1;jettySize=auto;html=1;fontSize=24;" parent="1" source="OLs2Ah3NFqgqWYayta2k-49" target="OLs2Ah3NFqgqWYayta2k-51" edge="1">
          <mxGeometry relative="1" as="geometry" />
        </mxCell>
        <mxCell id="OLs2Ah3NFqgqWYayta2k-49" value="" style="outlineConnect=0;dashed=0;verticalLabelPosition=bottom;verticalAlign=top;align=center;html=1;shape=mxgraph.aws3.application_load_balancer;fillColor=#F58534;gradientColor=none;fontSize=24;" parent="1" vertex="1">
          <mxGeometry x="978" y="-272" width="69" height="72" as="geometry" />
        </mxCell>
        <mxCell id="OLs2Ah3NFqgqWYayta2k-50" value="" style="outlineConnect=0;dashed=0;verticalLabelPosition=bottom;verticalAlign=top;align=center;html=1;shape=mxgraph.aws3.instance;fillColor=#F58534;gradientColor=none;fontSize=24;" parent="1" vertex="1">
          <mxGeometry x="898" y="-166" width="60" height="63" as="geometry" />
        </mxCell>
        <mxCell id="OLs2Ah3NFqgqWYayta2k-56" style="edgeStyle=orthogonalEdgeStyle;rounded=0;orthogonalLoop=1;jettySize=auto;html=1;entryX=0.75;entryY=1;entryDx=0;entryDy=0;fontSize=24;" parent="1" source="OLs2Ah3NFqgqWYayta2k-51" target="OLs2Ah3NFqgqWYayta2k-54" edge="1">
          <mxGeometry relative="1" as="geometry">
            <Array as="points">
              <mxPoint x="1157" y="-135" />
            </Array>
          </mxGeometry>
        </mxCell>
        <mxCell id="OLs2Ah3NFqgqWYayta2k-57" style="edgeStyle=orthogonalEdgeStyle;rounded=0;orthogonalLoop=1;jettySize=auto;html=1;fontSize=24;" parent="1" source="OLs2Ah3NFqgqWYayta2k-51" target="OLs2Ah3NFqgqWYayta2k-50" edge="1">
          <mxGeometry relative="1" as="geometry" />
        </mxCell>
        <mxCell id="OLs2Ah3NFqgqWYayta2k-58" style="edgeStyle=orthogonalEdgeStyle;rounded=0;orthogonalLoop=1;jettySize=auto;html=1;fontSize=24;" parent="1" source="OLs2Ah3NFqgqWYayta2k-51" target="OLs2Ah3NFqgqWYayta2k-49" edge="1">
          <mxGeometry relative="1" as="geometry">
            <Array as="points">
              <mxPoint x="1012" y="-150" />
            </Array>
          </mxGeometry>
        </mxCell>
        <mxCell id="OLs2Ah3NFqgqWYayta2k-51" value="" style="outlineConnect=0;dashed=0;verticalLabelPosition=bottom;verticalAlign=top;align=center;html=1;shape=mxgraph.aws3.instance;fillColor=#F58534;gradientColor=none;fontSize=24;" parent="1" vertex="1">
          <mxGeometry x="1058" y="-166" width="60" height="63" as="geometry" />
        </mxCell>
        <mxCell id="OLs2Ah3NFqgqWYayta2k-55" style="edgeStyle=orthogonalEdgeStyle;rounded=0;orthogonalLoop=1;jettySize=auto;html=1;entryX=0.5;entryY=0;entryDx=0;entryDy=0;entryPerimeter=0;fontSize=24;" parent="1" source="OLs2Ah3NFqgqWYayta2k-54" target="OLs2Ah3NFqgqWYayta2k-49" edge="1">
          <mxGeometry relative="1" as="geometry" />
        </mxCell>
        <mxCell id="OLs2Ah3NFqgqWYayta2k-54" value="" style="aspect=fixed;perimeter=ellipsePerimeter;html=1;align=center;shadow=0;dashed=0;spacingTop=3;image;image=img/lib/active_directory/internet_cloud.svg;fontSize=24;" parent="1" vertex="1">
          <mxGeometry x="1088" y="-350" width="95.24" height="60" as="geometry" />
        </mxCell>
        <mxCell id="OLs2Ah3NFqgqWYayta2k-59" value="LB-EC2-INTERNET(Public IP-SSH)" style="text;html=1;strokeColor=none;fillColor=none;align=center;verticalAlign=middle;whiteSpace=wrap;rounded=0;fontSize=24;" parent="1" vertex="1">
          <mxGeometry x="1168" y="-241" width="320" height="65" as="geometry" />
        </mxCell>
        <mxCell id="OLs2Ah3NFqgqWYayta2k-60" value="EC2-EC2 (Ping)" style="text;html=1;strokeColor=none;fillColor=none;align=center;verticalAlign=middle;whiteSpace=wrap;rounded=0;fontSize=24;" parent="1" vertex="1">
          <mxGeometry x="888" y="-103" width="260" height="30" as="geometry" />
        </mxCell>
        <mxCell id="OLs2Ah3NFqgqWYayta2k-61" value="" style="endArrow=classic;html=1;rounded=0;fontSize=24;exitX=0.5;exitY=1;exitDx=0;exitDy=0;" parent="1" source="OLs2Ah3NFqgqWYayta2k-62" edge="1">
          <mxGeometry width="50" height="50" relative="1" as="geometry">
            <mxPoint x="838" y="-190" as="sourcePoint" />
            <mxPoint x="1008" y="-170" as="targetPoint" />
          </mxGeometry>
        </mxCell>
        <mxCell id="OLs2Ah3NFqgqWYayta2k-62" value="www.server.com" style="text;html=1;strokeColor=none;fillColor=none;align=center;verticalAlign=middle;whiteSpace=wrap;rounded=0;fontSize=24;" parent="1" vertex="1">
          <mxGeometry x="848" y="-330" width="140" height="50" as="geometry" />
        </mxCell>
        <mxCell id="OLs2Ah3NFqgqWYayta2k-63" value="Load Balancer is not exclusive gateway for inbound and outbound of EC2 Only traffic coming from the ELB can go through ELB inbound and outbound" style="text;html=1;strokeColor=none;fillColor=none;align=center;verticalAlign=middle;whiteSpace=wrap;rounded=0;fontSize=24;" parent="1" vertex="1">
          <mxGeometry x="908" y="-30" width="560" height="30" as="geometry" />
        </mxCell>
        <mxCell id="OLs2Ah3NFqgqWYayta2k-64" value="1.1.1.1" style="text;html=1;strokeColor=none;fillColor=none;align=center;verticalAlign=middle;whiteSpace=wrap;rounded=0;fontSize=24;" parent="1" vertex="1">
          <mxGeometry x="1068" y="-147.5" width="40" height="30" as="geometry" />
        </mxCell>
        <mxCell id="OLs2Ah3NFqgqWYayta2k-65" value="&lt;b&gt;ssh&lt;/b&gt;" style="text;html=1;strokeColor=none;fillColor=none;align=center;verticalAlign=middle;whiteSpace=wrap;rounded=0;fontSize=24;" parent="1" vertex="1">
          <mxGeometry x="1158" y="-206" width="60" height="30" as="geometry" />
        </mxCell>
        <mxCell id="OLs2Ah3NFqgqWYayta2k-70" value="" style="rounded=1;whiteSpace=wrap;html=1;fontSize=24;" parent="1" vertex="1">
          <mxGeometry x="1560" y="-290" width="340" height="223.5" as="geometry" />
        </mxCell>
        <mxCell id="OLs2Ah3NFqgqWYayta2k-71" value="" style="outlineConnect=0;dashed=0;verticalLabelPosition=bottom;verticalAlign=top;align=center;html=1;shape=mxgraph.aws3.application_load_balancer;fillColor=#F58534;gradientColor=none;fontSize=24;" parent="1" vertex="1">
          <mxGeometry x="1695.5" y="-214.5" width="69" height="72" as="geometry" />
        </mxCell>
        <mxCell id="OLs2Ah3NFqgqWYayta2k-72" value="&lt;b style=&quot;&quot;&gt;&lt;font style=&quot;font-size: 24px;&quot;&gt;Listener&lt;/font&gt;&lt;/b&gt;" style="rounded=1;whiteSpace=wrap;html=1;" parent="1" vertex="1">
          <mxGeometry x="1560" y="-244.5" width="340" height="30" as="geometry" />
        </mxCell>
        <mxCell id="OLs2Ah3NFqgqWYayta2k-73" value="It is a process which listen for a connection request.&lt;br&gt;Its hear request from the internet and then ELB decide what to do it with it.&lt;br&gt;You open a port on this your ELB accept traffic." style="text;html=1;strokeColor=none;fillColor=none;align=left;verticalAlign=middle;whiteSpace=wrap;rounded=0;fontSize=24;" parent="1" vertex="1">
          <mxGeometry x="1920" y="-298" width="400" height="260" as="geometry" />
        </mxCell>
        <mxCell id="OLs2Ah3NFqgqWYayta2k-74" value="&lt;b style=&quot;&quot;&gt;&lt;font style=&quot;font-size: 24px;&quot;&gt;Listener&lt;/font&gt;&lt;/b&gt;" style="rounded=1;whiteSpace=wrap;html=1;" parent="1" vertex="1">
          <mxGeometry x="1560" y="-142.5" width="340" height="30" as="geometry" />
        </mxCell>
        <mxCell id="OLs2Ah3NFqgqWYayta2k-75" value="Used to communicate with EC2&lt;br&gt;" style="text;html=1;strokeColor=none;fillColor=none;align=center;verticalAlign=middle;whiteSpace=wrap;rounded=0;fontSize=24;" parent="1" vertex="1">
          <mxGeometry x="1525" y="-112.5" width="410" height="31" as="geometry" />
        </mxCell>
        <mxCell id="OLs2Ah3NFqgqWYayta2k-76" value="" style="rounded=0;whiteSpace=wrap;html=1;fontSize=24;" parent="1" vertex="1">
          <mxGeometry x="58" y="120" width="410" height="230" as="geometry" />
        </mxCell>
        <mxCell id="OLs2Ah3NFqgqWYayta2k-81" style="edgeStyle=orthogonalEdgeStyle;rounded=0;orthogonalLoop=1;jettySize=auto;html=1;entryX=0.5;entryY=0;entryDx=0;entryDy=0;entryPerimeter=0;fontSize=24;" parent="1" source="OLs2Ah3NFqgqWYayta2k-77" target="OLs2Ah3NFqgqWYayta2k-78" edge="1">
          <mxGeometry relative="1" as="geometry" />
        </mxCell>
        <mxCell id="OLs2Ah3NFqgqWYayta2k-82" style="edgeStyle=orthogonalEdgeStyle;rounded=0;orthogonalLoop=1;jettySize=auto;html=1;fontSize=24;" parent="1" source="OLs2Ah3NFqgqWYayta2k-77" target="OLs2Ah3NFqgqWYayta2k-80" edge="1">
          <mxGeometry relative="1" as="geometry" />
        </mxCell>
        <mxCell id="OLs2Ah3NFqgqWYayta2k-77" value="" style="outlineConnect=0;dashed=0;verticalLabelPosition=bottom;verticalAlign=top;align=center;html=1;shape=mxgraph.aws3.application_load_balancer;fillColor=#F58534;gradientColor=none;fontSize=24;" parent="1" vertex="1">
          <mxGeometry x="228" y="128" width="69" height="72" as="geometry" />
        </mxCell>
        <mxCell id="OLs2Ah3NFqgqWYayta2k-78" value="EC2" style="outlineConnect=0;dashed=0;verticalLabelPosition=bottom;verticalAlign=top;align=center;html=1;shape=mxgraph.aws3.instance;fillColor=#F58534;gradientColor=none;fontSize=24;" parent="1" vertex="1">
          <mxGeometry x="128" y="250" width="60" height="63" as="geometry" />
        </mxCell>
        <mxCell id="OLs2Ah3NFqgqWYayta2k-80" value="EC2" style="outlineConnect=0;dashed=0;verticalLabelPosition=bottom;verticalAlign=top;align=center;html=1;shape=mxgraph.aws3.instance;fillColor=#F58534;gradientColor=none;fontSize=24;" parent="1" vertex="1">
          <mxGeometry x="318" y="250" width="60" height="63" as="geometry" />
        </mxCell>
        <mxCell id="OLs2Ah3NFqgqWYayta2k-83" value="" style="sketch=0;pointerEvents=1;shadow=0;dashed=0;html=1;strokeColor=none;labelPosition=center;verticalLabelPosition=bottom;verticalAlign=top;align=center;fillColor=#505050;shape=mxgraph.mscae.intune.device_health;fontSize=24;" parent="1" vertex="1">
          <mxGeometry x="98" y="190" width="50" height="31" as="geometry" />
        </mxCell>
        <mxCell id="OLs2Ah3NFqgqWYayta2k-84" value="" style="sketch=0;pointerEvents=1;shadow=0;dashed=0;html=1;strokeColor=none;labelPosition=center;verticalLabelPosition=bottom;verticalAlign=top;align=center;fillColor=#505050;shape=mxgraph.mscae.intune.device_health;fontSize=24;" parent="1" vertex="1">
          <mxGeometry x="358" y="200" width="50" height="31" as="geometry" />
        </mxCell>
        <mxCell id="OLs2Ah3NFqgqWYayta2k-86" value="&lt;font style=&quot;font-size: 48px;&quot;&gt;&lt;b&gt;Health Check&lt;/b&gt;&lt;/font&gt;&lt;br&gt;&lt;br&gt;ELB send health check message to the EC2 instance at regulars interval to know status of the EC2 instance if EC2 instance will not response then it registered as an unhealthy and if it response then it registered as a healthy and it ensure that it only forward traffic to the healthy instances.&amp;nbsp;&lt;br&gt;&lt;br&gt;Healthy -&amp;gt; In service status&lt;br&gt;Unhealthy -&amp;gt; Out of service&lt;br&gt;&lt;br&gt;Healthy Threshold&amp;nbsp; -&amp;gt; 2&lt;br&gt;unhealthy Threshold -&amp;gt; 3&lt;br&gt;Time out&amp;nbsp; -&amp;gt; 5 sec&lt;br&gt;Interval -&amp;gt; 30 sec&lt;br&gt;Success Code -&amp;gt; 200&lt;br&gt;&lt;br&gt;LB send health check message to the EC2 at every 30 sec and it wait for 5 second which is time out&amp;nbsp; for response and if it does not get then it send again as per healthy threshold count it now it does not got then declared as a unhealthy.&amp;nbsp;" style="text;html=1;spacing=5;spacingTop=-20;whiteSpace=wrap;overflow=hidden;rounded=0;fontSize=24;" parent="1" vertex="1">
          <mxGeometry x="490" y="90" width="1750" height="450" as="geometry" />
        </mxCell>
        <mxCell id="OLs2Ah3NFqgqWYayta2k-87" value="ELB charged per hour&amp;nbsp;&lt;br&gt;Each&amp;nbsp; ELB name must be unique in AWS account.&lt;br&gt;&amp;nbsp;If you want to balance load among different EC2 then they all should be in same region and can be in different availability zone&amp;nbsp;&lt;br&gt;&lt;br&gt;If you want to balance load between two regions then Route 3 can do this&amp;nbsp;" style="rounded=1;whiteSpace=wrap;html=1;fontSize=24;" parent="1" vertex="1">
          <mxGeometry x="385.5" y="-730" width="1405" height="240" as="geometry" />
        </mxCell>
        <mxCell id="OLs2Ah3NFqgqWYayta2k-93" value="" style="rounded=1;whiteSpace=wrap;html=1;fontSize=24;" parent="1" vertex="1">
          <mxGeometry x="385.5" y="580" width="810" height="400" as="geometry" />
        </mxCell>
        <mxCell id="OLs2Ah3NFqgqWYayta2k-94" value="" style="rounded=1;whiteSpace=wrap;html=1;fontSize=24;" parent="1" vertex="1">
          <mxGeometry x="385.5" y="720" width="361" height="260" as="geometry" />
        </mxCell>
        <mxCell id="OLs2Ah3NFqgqWYayta2k-95" value="" style="rounded=1;whiteSpace=wrap;html=1;fontSize=24;" parent="1" vertex="1">
          <mxGeometry x="834.5" y="720" width="361" height="260" as="geometry" />
        </mxCell>
        <mxCell id="OLs2Ah3NFqgqWYayta2k-106" style="edgeStyle=orthogonalEdgeStyle;rounded=0;orthogonalLoop=1;jettySize=auto;html=1;fontSize=24;" parent="1" source="OLs2Ah3NFqgqWYayta2k-96" target="OLs2Ah3NFqgqWYayta2k-94" edge="1">
          <mxGeometry relative="1" as="geometry">
            <Array as="points">
              <mxPoint x="566.5" y="626" />
            </Array>
          </mxGeometry>
        </mxCell>
        <mxCell id="OLs2Ah3NFqgqWYayta2k-107" style="edgeStyle=orthogonalEdgeStyle;rounded=0;orthogonalLoop=1;jettySize=auto;html=1;fontSize=24;" parent="1" source="OLs2Ah3NFqgqWYayta2k-96" target="OLs2Ah3NFqgqWYayta2k-95" edge="1">
          <mxGeometry relative="1" as="geometry" />
        </mxCell>
        <mxCell id="OLs2Ah3NFqgqWYayta2k-96" value="" style="outlineConnect=0;dashed=0;verticalLabelPosition=bottom;verticalAlign=top;align=center;html=1;shape=mxgraph.aws3.application_load_balancer;fillColor=#F58534;gradientColor=none;fontSize=24;" parent="1" vertex="1">
          <mxGeometry x="757" y="590" width="69" height="72" as="geometry" />
        </mxCell>
        <mxCell id="OLs2Ah3NFqgqWYayta2k-97" value="EC2" style="outlineConnect=0;dashed=0;verticalLabelPosition=bottom;verticalAlign=top;align=center;html=1;shape=mxgraph.aws3.instance;fillColor=#F58534;gradientColor=none;fontSize=24;" parent="1" vertex="1">
          <mxGeometry x="436.5" y="760" width="60" height="63" as="geometry" />
        </mxCell>
        <mxCell id="OLs2Ah3NFqgqWYayta2k-98" value="EC2" style="outlineConnect=0;dashed=0;verticalLabelPosition=bottom;verticalAlign=top;align=center;html=1;shape=mxgraph.aws3.instance;fillColor=#F58534;gradientColor=none;fontSize=24;" parent="1" vertex="1">
          <mxGeometry x="546.5" y="760" width="60" height="63" as="geometry" />
        </mxCell>
        <mxCell id="OLs2Ah3NFqgqWYayta2k-99" value="EC2" style="outlineConnect=0;dashed=0;verticalLabelPosition=bottom;verticalAlign=top;align=center;html=1;shape=mxgraph.aws3.instance;fillColor=#F58534;gradientColor=none;fontSize=24;" parent="1" vertex="1">
          <mxGeometry x="564.5" y="880" width="60" height="63" as="geometry" />
        </mxCell>
        <mxCell id="OLs2Ah3NFqgqWYayta2k-100" value="EC2" style="outlineConnect=0;dashed=0;verticalLabelPosition=bottom;verticalAlign=top;align=center;html=1;shape=mxgraph.aws3.instance;fillColor=#F58534;gradientColor=none;fontSize=24;" parent="1" vertex="1">
          <mxGeometry x="449.5" y="880" width="60" height="63" as="geometry" />
        </mxCell>
        <mxCell id="OLs2Ah3NFqgqWYayta2k-102" value="EC2" style="outlineConnect=0;dashed=0;verticalLabelPosition=bottom;verticalAlign=top;align=center;html=1;shape=mxgraph.aws3.instance;fillColor=#F58534;gradientColor=none;fontSize=24;" parent="1" vertex="1">
          <mxGeometry x="636.5" y="810" width="60" height="63" as="geometry" />
        </mxCell>
        <mxCell id="OLs2Ah3NFqgqWYayta2k-103" value="EC2" style="outlineConnect=0;dashed=0;verticalLabelPosition=bottom;verticalAlign=top;align=center;html=1;shape=mxgraph.aws3.instance;fillColor=#F58534;gradientColor=none;fontSize=24;" parent="1" vertex="1">
          <mxGeometry x="866.5" y="760" width="60" height="63" as="geometry" />
        </mxCell>
        <mxCell id="OLs2Ah3NFqgqWYayta2k-104" value="EC2" style="outlineConnect=0;dashed=0;verticalLabelPosition=bottom;verticalAlign=top;align=center;html=1;shape=mxgraph.aws3.instance;fillColor=#F58534;gradientColor=none;fontSize=24;" parent="1" vertex="1">
          <mxGeometry x="1079" y="790" width="60" height="63" as="geometry" />
        </mxCell>
        <mxCell id="OLs2Ah3NFqgqWYayta2k-105" value="EC2" style="outlineConnect=0;dashed=0;verticalLabelPosition=bottom;verticalAlign=top;align=center;html=1;shape=mxgraph.aws3.instance;fillColor=#F58534;gradientColor=none;fontSize=24;" parent="1" vertex="1">
          <mxGeometry x="956.5" y="853" width="60" height="63" as="geometry" />
        </mxCell>
        <mxCell id="OLs2Ah3NFqgqWYayta2k-109" value="&lt;h1&gt;Cross Zone Load Balancing&amp;nbsp;&lt;/h1&gt;&lt;div&gt;By default the ELB send equal amount of traffic into the AZ&#39;s. Means if it got 10 request then it forward&amp;nbsp; request in one AZ and 5 in another. But if you enable cross zone load balancing then it will forward traffic based on ec2 instances you have registered so all EC2 instaces will get same chunk of traffic See in example&lt;/div&gt;" style="text;html=1;strokeColor=none;fillColor=none;spacing=5;spacingTop=-20;whiteSpace=wrap;overflow=hidden;rounded=0;fontSize=24;" parent="1" vertex="1">
          <mxGeometry x="1204.5" y="616.5" width="930" height="350" as="geometry" />
        </mxCell>
      </root>
    </mxGraphModel>
  </diagram>
  <diagram id="vcwff1NBMoygn-uEkzUk" name="VPC">
    <mxGraphModel dx="3444" dy="482" grid="1" gridSize="10" guides="1" tooltips="1" connect="1" arrows="1" fold="1" page="1" pageScale="1" pageWidth="2336" pageHeight="1654" math="0" shadow="0">
      <root>
        <mxCell id="0" />
        <mxCell id="1" parent="0" />
        <mxCell id="2H13CWVJURTRCU47buPD-1" value="" style="rounded=1;whiteSpace=wrap;html=1;" parent="1" vertex="1">
          <mxGeometry x="120" y="130" width="710" height="320" as="geometry" />
        </mxCell>
        <mxCell id="2H13CWVJURTRCU47buPD-2" value="Public subnet" style="points=[[0,0],[0.25,0],[0.5,0],[0.75,0],[1,0],[1,0.25],[1,0.5],[1,0.75],[1,1],[0.75,1],[0.5,1],[0.25,1],[0,1],[0,0.75],[0,0.5],[0,0.25]];outlineConnect=0;gradientColor=none;html=1;whiteSpace=wrap;fontSize=12;fontStyle=0;container=1;pointerEvents=0;collapsible=0;recursiveResize=0;shape=mxgraph.aws4.group;grIcon=mxgraph.aws4.group_security_group;grStroke=0;strokeColor=#248814;fillColor=#E9F3E6;verticalAlign=top;align=left;spacingLeft=30;fontColor=#248814;dashed=0;" parent="1" vertex="1">
          <mxGeometry x="330" y="190" width="150" height="230" as="geometry" />
        </mxCell>
        <mxCell id="CMrajLIuqtsZnCrDglMd-1" value="" style="outlineConnect=0;dashed=0;verticalLabelPosition=bottom;verticalAlign=top;align=center;html=1;shape=mxgraph.aws3.instance;fillColor=#F58534;gradientColor=none;" parent="2H13CWVJURTRCU47buPD-2" vertex="1">
          <mxGeometry x="52.5" y="110" width="45" height="50" as="geometry" />
        </mxCell>
        <mxCell id="CMrajLIuqtsZnCrDglMd-2" value="" style="outlineConnect=0;dashed=0;verticalLabelPosition=bottom;verticalAlign=top;align=center;html=1;shape=mxgraph.aws3.instance;fillColor=#F58534;gradientColor=none;" parent="2H13CWVJURTRCU47buPD-2" vertex="1">
          <mxGeometry x="52.5" y="170" width="45" height="50" as="geometry" />
        </mxCell>
        <mxCell id="2H13CWVJURTRCU47buPD-3" value="Private subnet" style="points=[[0,0],[0.25,0],[0.5,0],[0.75,0],[1,0],[1,0.25],[1,0.5],[1,0.75],[1,1],[0.75,1],[0.5,1],[0.25,1],[0,1],[0,0.75],[0,0.5],[0,0.25]];outlineConnect=0;gradientColor=none;html=1;whiteSpace=wrap;fontSize=12;fontStyle=0;container=1;pointerEvents=0;collapsible=0;recursiveResize=0;shape=mxgraph.aws4.group;grIcon=mxgraph.aws4.group_security_group;grStroke=0;strokeColor=#147EBA;fillColor=#E6F2F8;verticalAlign=top;align=left;spacingLeft=30;fontColor=#147EBA;dashed=0;" parent="1" vertex="1">
          <mxGeometry x="570" y="190" width="150" height="230" as="geometry" />
        </mxCell>
        <mxCell id="CMrajLIuqtsZnCrDglMd-7" style="edgeStyle=orthogonalEdgeStyle;rounded=0;orthogonalLoop=1;jettySize=auto;html=1;" parent="1" source="2H13CWVJURTRCU47buPD-4" target="2H13CWVJURTRCU47buPD-10" edge="1">
          <mxGeometry relative="1" as="geometry">
            <Array as="points">
              <mxPoint x="160" y="300" />
            </Array>
          </mxGeometry>
        </mxCell>
        <mxCell id="2H13CWVJURTRCU47buPD-4" value="" style="outlineConnect=0;dashed=0;verticalLabelPosition=bottom;verticalAlign=top;align=center;html=1;shape=mxgraph.aws3.internet_gateway;fillColor=#F58534;gradientColor=none;" parent="1" vertex="1">
          <mxGeometry x="90" y="270" width="60" height="60" as="geometry" />
        </mxCell>
        <mxCell id="2H13CWVJURTRCU47buPD-7" style="edgeStyle=orthogonalEdgeStyle;rounded=0;orthogonalLoop=1;jettySize=auto;html=1;" parent="1" source="2H13CWVJURTRCU47buPD-5" target="2H13CWVJURTRCU47buPD-6" edge="1">
          <mxGeometry relative="1" as="geometry" />
        </mxCell>
        <mxCell id="2H13CWVJURTRCU47buPD-5" value="Actor" style="shape=umlActor;verticalLabelPosition=bottom;verticalAlign=top;html=1;outlineConnect=0;" parent="1" vertex="1">
          <mxGeometry x="-140" y="200" width="30" height="60" as="geometry" />
        </mxCell>
        <mxCell id="2H13CWVJURTRCU47buPD-8" style="edgeStyle=orthogonalEdgeStyle;rounded=0;orthogonalLoop=1;jettySize=auto;html=1;" parent="1" source="2H13CWVJURTRCU47buPD-6" target="2H13CWVJURTRCU47buPD-4" edge="1">
          <mxGeometry relative="1" as="geometry" />
        </mxCell>
        <mxCell id="2H13CWVJURTRCU47buPD-6" value="" style="aspect=fixed;html=1;points=[];align=center;image;fontSize=12;image=img/lib/azure2/networking/DNS_Zones.svg;" parent="1" vertex="1">
          <mxGeometry x="-90" y="268" width="64" height="64" as="geometry" />
        </mxCell>
        <mxCell id="CMrajLIuqtsZnCrDglMd-10" style="edgeStyle=orthogonalEdgeStyle;rounded=0;orthogonalLoop=1;jettySize=auto;html=1;" parent="1" source="2H13CWVJURTRCU47buPD-10" edge="1">
          <mxGeometry relative="1" as="geometry">
            <mxPoint x="330" y="290" as="targetPoint" />
            <Array as="points">
              <mxPoint x="316" y="405" />
              <mxPoint x="316" y="290" />
              <mxPoint x="330" y="290" />
            </Array>
          </mxGeometry>
        </mxCell>
        <mxCell id="2H13CWVJURTRCU47buPD-10" value="Main Route Table&amp;nbsp;&lt;br&gt;10.10.0.0/16 local&lt;br&gt;" style="rounded=1;whiteSpace=wrap;html=1;" parent="1" vertex="1">
          <mxGeometry x="120" y="370" width="130" height="40" as="geometry" />
        </mxCell>
        <mxCell id="CMrajLIuqtsZnCrDglMd-3" value="" style="outlineConnect=0;dashed=0;verticalLabelPosition=bottom;verticalAlign=top;align=center;html=1;shape=mxgraph.aws3.instance;fillColor=#F58534;gradientColor=none;" parent="1" vertex="1">
          <mxGeometry x="382.5" y="230" width="45" height="50" as="geometry" />
        </mxCell>
        <mxCell id="CMrajLIuqtsZnCrDglMd-4" value="" style="outlineConnect=0;dashed=0;verticalLabelPosition=bottom;verticalAlign=top;align=center;html=1;shape=mxgraph.aws3.instance;fillColor=#F58534;gradientColor=none;" parent="1" vertex="1">
          <mxGeometry x="622.5" y="300" width="45" height="50" as="geometry" />
        </mxCell>
        <mxCell id="CMrajLIuqtsZnCrDglMd-5" value="" style="outlineConnect=0;dashed=0;verticalLabelPosition=bottom;verticalAlign=top;align=center;html=1;shape=mxgraph.aws3.instance;fillColor=#F58534;gradientColor=none;" parent="1" vertex="1">
          <mxGeometry x="622.5" y="360" width="45" height="50" as="geometry" />
        </mxCell>
        <mxCell id="CMrajLIuqtsZnCrDglMd-6" value="" style="outlineConnect=0;dashed=0;verticalLabelPosition=bottom;verticalAlign=top;align=center;html=1;shape=mxgraph.aws3.instance;fillColor=#F58534;gradientColor=none;" parent="1" vertex="1">
          <mxGeometry x="622.5" y="230" width="45" height="50" as="geometry" />
        </mxCell>
        <mxCell id="CMrajLIuqtsZnCrDglMd-12" style="edgeStyle=orthogonalEdgeStyle;rounded=0;orthogonalLoop=1;jettySize=auto;html=1;" parent="1" source="CMrajLIuqtsZnCrDglMd-11" target="2H13CWVJURTRCU47buPD-3" edge="1">
          <mxGeometry relative="1" as="geometry">
            <mxPoint x="590" y="310" as="targetPoint" />
            <Array as="points" />
          </mxGeometry>
        </mxCell>
        <mxCell id="CMrajLIuqtsZnCrDglMd-11" value="" style="outlineConnect=0;dashed=0;verticalLabelPosition=bottom;verticalAlign=top;align=center;html=1;shape=mxgraph.aws3.vpc_nat_gateway;fillColor=#F58534;gradientColor=none;" parent="1" vertex="1">
          <mxGeometry x="460" y="270" width="50" height="50" as="geometry" />
        </mxCell>
        <mxCell id="CMrajLIuqtsZnCrDglMd-13" value="PUB_Route&lt;br&gt;10.10.0.0/16 local&lt;br&gt;0.0.0.0/0 IG" style="rounded=1;whiteSpace=wrap;html=1;" parent="1" vertex="1">
          <mxGeometry x="340" y="140" width="130" height="50" as="geometry" />
        </mxCell>
        <mxCell id="CMrajLIuqtsZnCrDglMd-14" value="PRI_Route&lt;br&gt;10.10.0.0/16 local" style="rounded=1;whiteSpace=wrap;html=1;" parent="1" vertex="1">
          <mxGeometry x="580" y="140" width="130" height="50" as="geometry" />
        </mxCell>
        <mxCell id="ynveXuBkzAtvlepxt9RZ-1" value="If you have two VPC and you want to enable VPC peering between them then you use VPC peering&lt;br&gt;&lt;br&gt;Your VPC should not be in same region.&lt;br&gt;&lt;br&gt;Also you must have different CIDR block range in both the VPC&lt;br&gt;&lt;br&gt;Only one VPC peering is acceptable between two VPC you cant create redundant link.&lt;br&gt;&lt;br&gt;Also peering connection are transitive means if you have A , B ,C VPC and a is connected with b and b is connected c then A and B can not communicate directly.&amp;nbsp;&lt;br&gt;&lt;br&gt;You do not need Internet gateway as well as NAT gateway. Once you created peering you can ping of access recourses created in other VPC trough private IP" style="rounded=1;whiteSpace=wrap;html=1;" vertex="1" parent="1">
          <mxGeometry x="-10" y="690" width="520" height="250" as="geometry" />
        </mxCell>
        <mxCell id="ynveXuBkzAtvlepxt9RZ-5" style="edgeStyle=orthogonalEdgeStyle;rounded=0;orthogonalLoop=1;jettySize=auto;html=1;entryX=0;entryY=0.5;entryDx=0;entryDy=0;" edge="1" parent="1" source="ynveXuBkzAtvlepxt9RZ-2" target="ynveXuBkzAtvlepxt9RZ-3">
          <mxGeometry relative="1" as="geometry">
            <Array as="points">
              <mxPoint x="75" y="1000" />
            </Array>
          </mxGeometry>
        </mxCell>
        <mxCell id="ynveXuBkzAtvlepxt9RZ-7" style="edgeStyle=orthogonalEdgeStyle;rounded=0;orthogonalLoop=1;jettySize=auto;html=1;" edge="1" parent="1" source="ynveXuBkzAtvlepxt9RZ-2" target="ynveXuBkzAtvlepxt9RZ-4">
          <mxGeometry relative="1" as="geometry" />
        </mxCell>
        <mxCell id="ynveXuBkzAtvlepxt9RZ-2" value="VPC A" style="rounded=1;whiteSpace=wrap;html=1;" vertex="1" parent="1">
          <mxGeometry x="5" y="1050" width="120" height="80" as="geometry" />
        </mxCell>
        <mxCell id="ynveXuBkzAtvlepxt9RZ-6" style="edgeStyle=orthogonalEdgeStyle;rounded=0;orthogonalLoop=1;jettySize=auto;html=1;entryX=0.5;entryY=0;entryDx=0;entryDy=0;" edge="1" parent="1" source="ynveXuBkzAtvlepxt9RZ-3" target="ynveXuBkzAtvlepxt9RZ-4">
          <mxGeometry relative="1" as="geometry" />
        </mxCell>
        <mxCell id="ynveXuBkzAtvlepxt9RZ-3" value="VPC B" style="rounded=1;whiteSpace=wrap;html=1;" vertex="1" parent="1">
          <mxGeometry x="195" y="970" width="120" height="60" as="geometry" />
        </mxCell>
        <mxCell id="ynveXuBkzAtvlepxt9RZ-4" value="VPC C" style="rounded=1;whiteSpace=wrap;html=1;" vertex="1" parent="1">
          <mxGeometry x="395" y="1050" width="120" height="80" as="geometry" />
        </mxCell>
        <mxCell id="ynveXuBkzAtvlepxt9RZ-8" value="A to C direct connection is not working&amp;nbsp;" style="text;html=1;strokeColor=none;fillColor=none;align=center;verticalAlign=middle;whiteSpace=wrap;rounded=0;" vertex="1" parent="1">
          <mxGeometry x="170" y="1100" width="180" height="30" as="geometry" />
        </mxCell>
        <mxCell id="ynveXuBkzAtvlepxt9RZ-12" style="edgeStyle=orthogonalEdgeStyle;rounded=0;orthogonalLoop=1;jettySize=auto;html=1;" edge="1" parent="1" source="ynveXuBkzAtvlepxt9RZ-9" target="ynveXuBkzAtvlepxt9RZ-11">
          <mxGeometry relative="1" as="geometry" />
        </mxCell>
        <mxCell id="ynveXuBkzAtvlepxt9RZ-9" value="VPC A" style="rounded=1;whiteSpace=wrap;html=1;" vertex="1" parent="1">
          <mxGeometry x="-93.75" y="536" width="120" height="60" as="geometry" />
        </mxCell>
        <mxCell id="ynveXuBkzAtvlepxt9RZ-13" style="edgeStyle=orthogonalEdgeStyle;rounded=0;orthogonalLoop=1;jettySize=auto;html=1;" edge="1" parent="1" source="ynveXuBkzAtvlepxt9RZ-10" target="ynveXuBkzAtvlepxt9RZ-11">
          <mxGeometry relative="1" as="geometry" />
        </mxCell>
        <mxCell id="ynveXuBkzAtvlepxt9RZ-10" value="VPC B" style="rounded=1;whiteSpace=wrap;html=1;" vertex="1" parent="1">
          <mxGeometry x="483.75" y="536" width="120" height="60" as="geometry" />
        </mxCell>
        <mxCell id="ynveXuBkzAtvlepxt9RZ-11" value="" style="outlineConnect=0;dashed=0;verticalLabelPosition=bottom;verticalAlign=top;align=center;html=1;shape=mxgraph.aws3.vpc_peering;fillColor=#F58534;gradientColor=none;" vertex="1" parent="1">
          <mxGeometry x="216.25" y="530" width="69" height="72" as="geometry" />
        </mxCell>
        <mxCell id="ynveXuBkzAtvlepxt9RZ-15" value="When you connect&amp;nbsp; one VPC with other VPC then it call VPC peering&amp;nbsp;" style="rounded=1;whiteSpace=wrap;html=1;" vertex="1" parent="1">
          <mxGeometry x="50" y="602" width="410" height="60" as="geometry" />
        </mxCell>
        <mxCell id="ynveXuBkzAtvlepxt9RZ-18" value="One VPC is your Accepter and another VPC is requester&lt;br&gt;&lt;br&gt;Once your connection set up&amp;nbsp; now you need to modify route table&lt;br&gt;and add peering connection route in the VPC routing table&amp;nbsp;&lt;br&gt;&lt;br&gt;take note of both VPC ID&lt;br&gt;&lt;br&gt;Go in VPC peering -&amp;gt; Create VPC peering -&amp;gt; Give Name -&amp;gt; Select any one VPC as a requester&lt;br&gt;&lt;br&gt;Select another VPC location -&amp;gt; Select account in which another VPC is lying. it is in same account or in different account -&amp;gt; Select the region it is in same region or in different region&amp;nbsp;&lt;br&gt;&lt;br&gt;Give VPC id of the accepter.&lt;br&gt;&lt;br&gt;Now create VPC peering&amp;nbsp;" style="rounded=1;whiteSpace=wrap;html=1;" vertex="1" parent="1">
          <mxGeometry x="-83.75" y="1460" width="390" height="290" as="geometry" />
        </mxCell>
        <mxCell id="ynveXuBkzAtvlepxt9RZ-19" style="edgeStyle=orthogonalEdgeStyle;rounded=0;orthogonalLoop=1;jettySize=auto;html=1;" edge="1" parent="1" source="ynveXuBkzAtvlepxt9RZ-20" target="ynveXuBkzAtvlepxt9RZ-23">
          <mxGeometry relative="1" as="geometry" />
        </mxCell>
        <mxCell id="ynveXuBkzAtvlepxt9RZ-20" value="VPC A" style="rounded=1;whiteSpace=wrap;html=1;" vertex="1" parent="1">
          <mxGeometry x="-83.75" y="1356" width="120" height="60" as="geometry" />
        </mxCell>
        <mxCell id="ynveXuBkzAtvlepxt9RZ-21" style="edgeStyle=orthogonalEdgeStyle;rounded=0;orthogonalLoop=1;jettySize=auto;html=1;" edge="1" parent="1" source="ynveXuBkzAtvlepxt9RZ-22" target="ynveXuBkzAtvlepxt9RZ-23">
          <mxGeometry relative="1" as="geometry" />
        </mxCell>
        <mxCell id="ynveXuBkzAtvlepxt9RZ-22" value="VPC B" style="rounded=1;whiteSpace=wrap;html=1;" vertex="1" parent="1">
          <mxGeometry x="493.75" y="1356" width="126.25" height="60" as="geometry" />
        </mxCell>
        <mxCell id="ynveXuBkzAtvlepxt9RZ-23" value="" style="outlineConnect=0;dashed=0;verticalLabelPosition=bottom;verticalAlign=top;align=center;html=1;shape=mxgraph.aws3.vpc_peering;fillColor=#F58534;gradientColor=none;" vertex="1" parent="1">
          <mxGeometry x="226.25" y="1350" width="69" height="72" as="geometry" />
        </mxCell>
        <mxCell id="ynveXuBkzAtvlepxt9RZ-25" value="CIDR:- 10.10.0.0/16" style="rounded=1;whiteSpace=wrap;html=1;" vertex="1" parent="1">
          <mxGeometry x="-84" y="1330" width="120" height="26" as="geometry" />
        </mxCell>
        <mxCell id="ynveXuBkzAtvlepxt9RZ-26" value="CIDR:- 11.11.0.0/16" style="rounded=1;whiteSpace=wrap;html=1;" vertex="1" parent="1">
          <mxGeometry x="493.75" y="1330" width="126.25" height="26" as="geometry" />
        </mxCell>
        <mxCell id="ynveXuBkzAtvlepxt9RZ-27" value="Route Table&amp;nbsp;&lt;br&gt;10.10.0.0./16 Local&lt;br&gt;11.11.0.0/16 Peering&amp;nbsp;" style="rounded=1;whiteSpace=wrap;html=1;" vertex="1" parent="1">
          <mxGeometry x="-83.75" y="1286" width="120" height="44" as="geometry" />
        </mxCell>
        <mxCell id="ynveXuBkzAtvlepxt9RZ-28" value="Route Table&amp;nbsp;&lt;br&gt;10.10.0.0./16 Local&lt;br&gt;11.11.0.0/16 Peering" style="rounded=1;whiteSpace=wrap;html=1;" vertex="1" parent="1">
          <mxGeometry x="493.75" y="1286" width="126.25" height="44" as="geometry" />
        </mxCell>
        <mxCell id="ynveXuBkzAtvlepxt9RZ-29" value="Still your connection is not created you need to go in the region where you accepter VPC is and accept the request&amp;nbsp;&lt;br&gt;||&lt;br&gt;Now just need to edit private route table of the VPC -&amp;gt; Go in route table Add in VPC A -&amp;gt; 11.11.0.0/16 peering connection&lt;br&gt;&lt;br&gt;Same setting on VPC B -&amp;gt; Edit private route -&amp;gt; 10.10.0.0/16 peering connection" style="rounded=1;whiteSpace=wrap;html=1;" vertex="1" parent="1">
          <mxGeometry x="306.25" y="1535" width="320" height="140" as="geometry" />
        </mxCell>
      </root>
    </mxGraphModel>
  </diagram>
  <diagram id="2AHc9JEMXDVdWwv-wVzG" name="Page-4">
    <mxGraphModel dx="1108" dy="482" grid="1" gridSize="10" guides="1" tooltips="1" connect="1" arrows="1" fold="1" page="1" pageScale="1" pageWidth="2336" pageHeight="1654" math="0" shadow="0">
      <root>
        <mxCell id="0" />
        <mxCell id="1" parent="0" />
        <mxCell id="zU5NNgl4dvHAleSRZbmq-1" value="" style="rounded=1;whiteSpace=wrap;html=1;fillColor=#f5f5f5;strokeColor=#666666;gradientColor=#b3b3b3;" vertex="1" parent="1">
          <mxGeometry x="240" y="60" width="590" height="340" as="geometry" />
        </mxCell>
        <mxCell id="zU5NNgl4dvHAleSRZbmq-9" value="S&lt;br&gt;E&lt;br&gt;R&lt;br&gt;V&lt;br&gt;I&lt;br&gt;C&lt;br&gt;E" style="rounded=1;whiteSpace=wrap;html=1;fillColor=#f8cecc;strokeColor=#b85450;gradientColor=#ea6b66;" vertex="1" parent="1">
          <mxGeometry x="400" y="120" width="100" height="200" as="geometry" />
        </mxCell>
        <mxCell id="zU5NNgl4dvHAleSRZbmq-10" value="POD" style="rounded=1;whiteSpace=wrap;html=1;fillColor=#ffcd28;strokeColor=#d79b00;gradientColor=#ffa500;" vertex="1" parent="1">
          <mxGeometry x="630" y="160" width="120" height="190" as="geometry" />
        </mxCell>
        <mxCell id="zU5NNgl4dvHAleSRZbmq-11" value="TARGET&lt;br&gt;PORT&lt;br&gt;8080" style="rounded=1;whiteSpace=wrap;html=1;" vertex="1" parent="1">
          <mxGeometry x="610" y="185" width="50" height="50" as="geometry" />
        </mxCell>
        <mxCell id="zU5NNgl4dvHAleSRZbmq-15" style="edgeStyle=orthogonalEdgeStyle;rounded=0;orthogonalLoop=1;jettySize=auto;html=1;entryX=0;entryY=0.5;entryDx=0;entryDy=0;" edge="1" parent="1" source="zU5NNgl4dvHAleSRZbmq-12" target="zU5NNgl4dvHAleSRZbmq-11">
          <mxGeometry relative="1" as="geometry" />
        </mxCell>
        <mxCell id="zU5NNgl4dvHAleSRZbmq-12" value="PORT&lt;br&gt;80" style="rounded=1;whiteSpace=wrap;html=1;" vertex="1" parent="1">
          <mxGeometry x="470" y="190" width="50" height="40" as="geometry" />
        </mxCell>
        <mxCell id="zU5NNgl4dvHAleSRZbmq-14" style="edgeStyle=orthogonalEdgeStyle;rounded=0;orthogonalLoop=1;jettySize=auto;html=1;" edge="1" parent="1" source="zU5NNgl4dvHAleSRZbmq-13">
          <mxGeometry relative="1" as="geometry">
            <mxPoint x="400" y="210" as="targetPoint" />
          </mxGeometry>
        </mxCell>
        <mxCell id="zU5NNgl4dvHAleSRZbmq-13" value="NODEPORT&lt;br&gt;30000-32767&lt;b&gt;&lt;span style=&quot;font-size: 16pt; line-height: 115%; font-family: Cambria, serif;&quot;&gt;&amp;nbsp;&lt;/span&gt;&lt;/b&gt;" style="rounded=1;whiteSpace=wrap;html=1;" vertex="1" parent="1">
          <mxGeometry x="200" y="190" width="80" height="40" as="geometry" />
        </mxCell>
        <mxCell id="zU5NNgl4dvHAleSRZbmq-17" value="10.20.20.2" style="rounded=1;whiteSpace=wrap;html=1;" vertex="1" parent="1">
          <mxGeometry x="630" y="350" width="120" height="30" as="geometry" />
        </mxCell>
        <mxCell id="zU5NNgl4dvHAleSRZbmq-18" value="10.106.30.1" style="rounded=1;whiteSpace=wrap;html=1;" vertex="1" parent="1">
          <mxGeometry x="400" y="90" width="100" height="30" as="geometry" />
        </mxCell>
        <mxCell id="1CKe0xz0KYQ3vwJYqSrg-1" value="Node 1,IP Address 15.1.1.2/16" style="rounded=1;whiteSpace=wrap;html=1;fillColor=#e6d0de;gradientColor=#d5739d;strokeColor=#996185;" vertex="1" parent="1">
          <mxGeometry x="340" y="400" width="370" height="20" as="geometry" />
        </mxCell>
        <mxCell id="1CKe0xz0KYQ3vwJYqSrg-2" value="" style="rounded=1;whiteSpace=wrap;html=1;" vertex="1" parent="1">
          <mxGeometry x="270" y="570" width="680" height="300" as="geometry" />
        </mxCell>
        <mxCell id="1CKe0xz0KYQ3vwJYqSrg-4" value="1" style="rounded=1;whiteSpace=wrap;html=1;" vertex="1" parent="1">
          <mxGeometry x="380" y="610" width="60" height="40" as="geometry" />
        </mxCell>
        <mxCell id="1CKe0xz0KYQ3vwJYqSrg-15" value="2" style="rounded=1;whiteSpace=wrap;html=1;" vertex="1" parent="1">
          <mxGeometry x="450" y="610" width="60" height="40" as="geometry" />
        </mxCell>
        <mxCell id="1CKe0xz0KYQ3vwJYqSrg-16" value="5" style="rounded=1;whiteSpace=wrap;html=1;" vertex="1" parent="1">
          <mxGeometry x="660" y="610" width="60" height="40" as="geometry" />
        </mxCell>
        <mxCell id="1CKe0xz0KYQ3vwJYqSrg-17" value="4" style="rounded=1;whiteSpace=wrap;html=1;" vertex="1" parent="1">
          <mxGeometry x="590" y="610" width="60" height="40" as="geometry" />
        </mxCell>
        <mxCell id="1CKe0xz0KYQ3vwJYqSrg-18" value="3" style="rounded=1;whiteSpace=wrap;html=1;" vertex="1" parent="1">
          <mxGeometry x="520" y="610" width="60" height="40" as="geometry" />
        </mxCell>
        <mxCell id="1CKe0xz0KYQ3vwJYqSrg-19" value="6" style="rounded=1;whiteSpace=wrap;html=1;" vertex="1" parent="1">
          <mxGeometry x="730" y="610" width="60" height="40" as="geometry" />
        </mxCell>
        <mxCell id="1CKe0xz0KYQ3vwJYqSrg-21" value="1" style="rounded=1;whiteSpace=wrap;html=1;" vertex="1" parent="1">
          <mxGeometry x="375" y="800" width="60" height="40" as="geometry" />
        </mxCell>
        <mxCell id="1CKe0xz0KYQ3vwJYqSrg-22" value="2" style="rounded=1;whiteSpace=wrap;html=1;" vertex="1" parent="1">
          <mxGeometry x="445" y="800" width="60" height="40" as="geometry" />
        </mxCell>
        <mxCell id="1CKe0xz0KYQ3vwJYqSrg-23" value="3" style="rounded=1;whiteSpace=wrap;html=1;" vertex="1" parent="1">
          <mxGeometry x="515" y="800" width="60" height="40" as="geometry" />
        </mxCell>
        <mxCell id="1CKe0xz0KYQ3vwJYqSrg-24" value="4" style="rounded=1;whiteSpace=wrap;html=1;" vertex="1" parent="1">
          <mxGeometry x="585" y="800" width="60" height="40" as="geometry" />
        </mxCell>
        <mxCell id="1CKe0xz0KYQ3vwJYqSrg-25" value="5" style="rounded=1;whiteSpace=wrap;html=1;" vertex="1" parent="1">
          <mxGeometry x="655" y="800" width="60" height="40" as="geometry" />
        </mxCell>
        <mxCell id="1CKe0xz0KYQ3vwJYqSrg-26" value="6" style="rounded=1;whiteSpace=wrap;html=1;" vertex="1" parent="1">
          <mxGeometry x="725" y="800" width="60" height="40" as="geometry" />
        </mxCell>
        <mxCell id="1CKe0xz0KYQ3vwJYqSrg-27" value="192.168.10." style="rounded=1;whiteSpace=wrap;html=1;" vertex="1" parent="1">
          <mxGeometry x="290" y="600" width="90" height="60" as="geometry" />
        </mxCell>
        <mxCell id="1CKe0xz0KYQ3vwJYqSrg-28" value="172.30.1." style="rounded=1;whiteSpace=wrap;html=1;" vertex="1" parent="1">
          <mxGeometry x="285" y="790" width="90" height="60" as="geometry" />
        </mxCell>
        <mxCell id="1CKe0xz0KYQ3vwJYqSrg-29" value="Webserver PODS" style="rounded=1;whiteSpace=wrap;html=1;" vertex="1" parent="1">
          <mxGeometry x="810" y="600" width="120" height="60" as="geometry" />
        </mxCell>
        <mxCell id="1CKe0xz0KYQ3vwJYqSrg-30" value="Application server PODS" style="rounded=1;whiteSpace=wrap;html=1;" vertex="1" parent="1">
          <mxGeometry x="800" y="790" width="120" height="60" as="geometry" />
        </mxCell>
      </root>
    </mxGraphModel>
  </diagram>
  <diagram id="YyugYCnVzRwdfKTayEWg" name="Page-5">
    <mxGraphModel dx="857" dy="516" grid="1" gridSize="10" guides="1" tooltips="1" connect="1" arrows="1" fold="1" page="1" pageScale="1" pageWidth="2336" pageHeight="1654" math="0" shadow="0">
      <root>
        <mxCell id="0" />
        <mxCell id="1" parent="0" />
        <mxCell id="fLMU8ZJ4M-LDH50BIMwi-1" value="" style="rounded=1;whiteSpace=wrap;html=1;" parent="1" vertex="1">
          <mxGeometry x="80" y="10" width="810" height="350" as="geometry" />
        </mxCell>
        <mxCell id="fLMU8ZJ4M-LDH50BIMwi-2" value="" style="rounded=1;whiteSpace=wrap;html=1;" parent="1" vertex="1">
          <mxGeometry x="120" y="84.5" width="230" height="245" as="geometry" />
        </mxCell>
        <mxCell id="fLMU8ZJ4M-LDH50BIMwi-3" value="&lt;span style=&quot;white-space: pre;&quot;&gt; &lt;/span&gt;&lt;span style=&quot;white-space: pre;&quot;&gt; &lt;/span&gt;&lt;span style=&quot;white-space: pre;&quot;&gt; &lt;/span&gt;&lt;span style=&quot;white-space: pre;&quot;&gt; &lt;/span&gt;&lt;span style=&quot;white-space: pre;&quot;&gt; &lt;/span&gt;&lt;span style=&quot;white-space: pre;&quot;&gt; &lt;/span&gt;&lt;span style=&quot;white-space: pre;&quot;&gt; &lt;/span&gt;&amp;nbsp; &amp;nbsp; &amp;nbsp; &amp;nbsp; &amp;nbsp; &amp;nbsp;Node 1" style="rounded=1;whiteSpace=wrap;html=1;" parent="1" vertex="1">
          <mxGeometry x="480" y="70" width="330" height="120" as="geometry" />
        </mxCell>
        <mxCell id="fLMU8ZJ4M-LDH50BIMwi-6" value="ETCD" style="rounded=1;whiteSpace=wrap;html=1;" parent="1" vertex="1">
          <mxGeometry x="150" y="99.5" width="70" height="60" as="geometry" />
        </mxCell>
        <mxCell id="fLMU8ZJ4M-LDH50BIMwi-7" value="Scheduler" style="rounded=1;whiteSpace=wrap;html=1;" parent="1" vertex="1">
          <mxGeometry x="250" y="99.5" width="70" height="60" as="geometry" />
        </mxCell>
        <mxCell id="fLMU8ZJ4M-LDH50BIMwi-42" style="edgeStyle=orthogonalEdgeStyle;rounded=0;orthogonalLoop=1;jettySize=auto;html=1;entryX=0;entryY=0.5;entryDx=0;entryDy=0;" parent="1" source="fLMU8ZJ4M-LDH50BIMwi-8" target="fLMU8ZJ4M-LDH50BIMwi-20" edge="1">
          <mxGeometry relative="1" as="geometry">
            <Array as="points">
              <mxPoint x="370" y="207" />
              <mxPoint x="370" y="153" />
            </Array>
          </mxGeometry>
        </mxCell>
        <mxCell id="fLMU8ZJ4M-LDH50BIMwi-8" value="API Server" style="rounded=1;whiteSpace=wrap;html=1;" parent="1" vertex="1">
          <mxGeometry x="150" y="177" width="180" height="60" as="geometry" />
        </mxCell>
        <mxCell id="fLMU8ZJ4M-LDH50BIMwi-9" value="Control Manager" style="rounded=1;whiteSpace=wrap;html=1;" parent="1" vertex="1">
          <mxGeometry x="200" y="259.5" width="70" height="60" as="geometry" />
        </mxCell>
        <mxCell id="fLMU8ZJ4M-LDH50BIMwi-10" value="" style="shape=hexagon;perimeter=hexagonPerimeter2;whiteSpace=wrap;html=1;fixedSize=1;" parent="1" vertex="1">
          <mxGeometry x="590" y="102" width="120" height="55" as="geometry" />
        </mxCell>
        <mxCell id="fLMU8ZJ4M-LDH50BIMwi-15" value="" style="sketch=0;outlineConnect=0;fontColor=#232F3E;gradientColor=none;fillColor=#D45B07;strokeColor=none;dashed=0;verticalLabelPosition=bottom;verticalAlign=top;align=center;html=1;fontSize=12;fontStyle=0;aspect=fixed;pointerEvents=1;shape=mxgraph.aws4.container_1;" parent="1" vertex="1">
          <mxGeometry x="626" y="114" width="48" height="31" as="geometry" />
        </mxCell>
        <mxCell id="fLMU8ZJ4M-LDH50BIMwi-19" value="Kube Proxy" style="rounded=1;whiteSpace=wrap;html=1;" parent="1" vertex="1">
          <mxGeometry x="500" y="84.5" width="70" height="45.5" as="geometry" />
        </mxCell>
        <mxCell id="fLMU8ZJ4M-LDH50BIMwi-20" value="Kubectl" style="rounded=1;whiteSpace=wrap;html=1;" parent="1" vertex="1">
          <mxGeometry x="500" y="130" width="70" height="45.5" as="geometry" />
        </mxCell>
        <mxCell id="fLMU8ZJ4M-LDH50BIMwi-32" value="&lt;span style=&quot;white-space: pre;&quot;&gt; &lt;/span&gt;&lt;span style=&quot;white-space: pre;&quot;&gt; &lt;/span&gt;&lt;span style=&quot;white-space: pre;&quot;&gt; &lt;/span&gt;&lt;span style=&quot;white-space: pre;&quot;&gt; &lt;/span&gt;&lt;span style=&quot;white-space: pre;&quot;&gt; &lt;/span&gt;&lt;span style=&quot;white-space: pre;&quot;&gt; &lt;/span&gt;&lt;span style=&quot;white-space: pre;&quot;&gt; &lt;/span&gt;&amp;nbsp; &amp;nbsp; &amp;nbsp; &amp;nbsp; &amp;nbsp; &amp;nbsp;Node 1" style="rounded=1;whiteSpace=wrap;html=1;" parent="1" vertex="1">
          <mxGeometry x="480" y="199.5" width="330" height="120" as="geometry" />
        </mxCell>
        <mxCell id="fLMU8ZJ4M-LDH50BIMwi-33" value="" style="shape=hexagon;perimeter=hexagonPerimeter2;whiteSpace=wrap;html=1;fixedSize=1;" parent="1" vertex="1">
          <mxGeometry x="590" y="231.5" width="120" height="55" as="geometry" />
        </mxCell>
        <mxCell id="fLMU8ZJ4M-LDH50BIMwi-34" value="" style="sketch=0;outlineConnect=0;fontColor=#232F3E;gradientColor=none;fillColor=#D45B07;strokeColor=none;dashed=0;verticalLabelPosition=bottom;verticalAlign=top;align=center;html=1;fontSize=12;fontStyle=0;aspect=fixed;pointerEvents=1;shape=mxgraph.aws4.container_1;" parent="1" vertex="1">
          <mxGeometry x="626" y="243.5" width="48" height="31" as="geometry" />
        </mxCell>
        <mxCell id="fLMU8ZJ4M-LDH50BIMwi-35" value="Kube Proxy" style="rounded=1;whiteSpace=wrap;html=1;" parent="1" vertex="1">
          <mxGeometry x="500" y="214" width="70" height="45.5" as="geometry" />
        </mxCell>
        <mxCell id="fLMU8ZJ4M-LDH50BIMwi-36" value="Kubectl" style="rounded=1;whiteSpace=wrap;html=1;" parent="1" vertex="1">
          <mxGeometry x="500" y="259.5" width="70" height="45.5" as="geometry" />
        </mxCell>
        <mxCell id="fLMU8ZJ4M-LDH50BIMwi-38" value="Container Runtime" style="rounded=1;whiteSpace=wrap;html=1;" parent="1" vertex="1">
          <mxGeometry x="440" y="20" width="400" height="30" as="geometry" />
        </mxCell>
        <mxCell id="fLMU8ZJ4M-LDH50BIMwi-39" value="C&lt;br&gt;N&lt;br&gt;I" style="rounded=1;whiteSpace=wrap;html=1;" parent="1" vertex="1">
          <mxGeometry x="400" y="85" width="30" height="225" as="geometry" />
        </mxCell>
        <mxCell id="fLMU8ZJ4M-LDH50BIMwi-40" value="" style="endArrow=none;html=1;rounded=0;entryX=0;entryY=0.5;entryDx=0;entryDy=0;exitX=1.1;exitY=0.2;exitDx=0;exitDy=0;exitPerimeter=0;" parent="1" source="fLMU8ZJ4M-LDH50BIMwi-39" target="fLMU8ZJ4M-LDH50BIMwi-3" edge="1">
          <mxGeometry width="50" height="50" relative="1" as="geometry">
            <mxPoint x="430" y="170" as="sourcePoint" />
            <mxPoint x="480" y="120" as="targetPoint" />
          </mxGeometry>
        </mxCell>
        <mxCell id="fLMU8ZJ4M-LDH50BIMwi-41" value="" style="endArrow=none;html=1;rounded=0;entryX=0;entryY=0.5;entryDx=0;entryDy=0;exitX=1.1;exitY=0.2;exitDx=0;exitDy=0;exitPerimeter=0;" parent="1" edge="1">
          <mxGeometry width="50" height="50" relative="1" as="geometry">
            <mxPoint x="433" y="258.5" as="sourcePoint" />
            <mxPoint x="480" y="258.5" as="targetPoint" />
          </mxGeometry>
        </mxCell>
        <mxCell id="fLMU8ZJ4M-LDH50BIMwi-44" style="edgeStyle=orthogonalEdgeStyle;rounded=0;orthogonalLoop=1;jettySize=auto;html=1;" parent="1" source="fLMU8ZJ4M-LDH50BIMwi-8" target="fLMU8ZJ4M-LDH50BIMwi-36" edge="1">
          <mxGeometry relative="1" as="geometry">
            <Array as="points">
              <mxPoint x="370" y="207" />
              <mxPoint x="370" y="280" />
            </Array>
          </mxGeometry>
        </mxCell>
        <mxCell id="7cSqvC8ZbpraNBw19sRG-10" value="" style="shape=image;verticalLabelPosition=bottom;labelBackgroundColor=default;verticalAlign=top;aspect=fixed;imageAspect=0;image=data:image/png,iVBORw0KGgoAAAANSUhEUgAAAogAAAHkCAYAAAC9l94GAAAgAElEQVR4nOzdf0hc6b7v+XcPByQkVhuRLo/sMlolud1Km5SNRoZot94OqQnFSdhWw0xaBnLQ2RzcO9wx527/GDREmT9yZid3SG8Z9ig3MNiZgVT2mININd1Xe2sP2Eo0sdHuG9rSdB1sqwm2XSrBv3r+qFU/Vllq+ftHPi/Y7Kz1rPWsZ5UH9uc83/Ws9UZubu6viIiIiIgY/pv9HoCIiIiIHCwKiCIiIiJiooAoIiIiIiZ7EhDTXF7KW3zklezF1TajnrwWH+XX20jb76GIiIiIHBD7NINYhfW6jyJX1aoWS23y/RLPxt0bV+muL6Jyv4ciIiIiR87f7cVFVnwehnzxe/pZeN5A/ulq0nz9rET315NpX+JlX/9eDAvoYKa1g5k9utqOKK6g+wI8GQuBY78HIyIiIkdRCgGxCuv1JvIzjM2FEcbuNRuhrp68lrPMd85jqyslPWl7DdkALDHd6SE4G+5mZfxbFsveISOH6D5KzpK98C1jkW3T+bA4fJsJnxEec9ooqssk0PqUzMgxpmuHS9vOshPRO5nrcTEzmqTN/4ihrg7TXW90bgHtBLKaKLSvbg+r45Pe3+Lw/5VLv+/c6Ec2WGiud/P2VA8f94WS7HuTu+fmuXtnAqrdvJdiryIiIiKbsWGJOc3lAa+LoVYXQ623maaUAlMJ2EFhXSaBpO0dzLS6GGp9xFxix7N9vFw4QVZxrC9LoYPF531GwKvCer2G48O3jWs/YrmsKeE5RgeFLRd51WlcI6OUv4+057RRUBZksjUydnOAW/F5GGp1MTa8tPqmS9pxxp/bM0W224s1J3ZIelkTtpe3o31kn9+J5xhD/G0qxHGHLa50/CYnLSG+mwgBARo7JhjY9nVERERE1rZhQFzxNcRm+Ohn4fkS6VkFcUcsMd3ZQGjN9rUYx56uNoKVUV4ej8wQVpPFCN9HZgzp4MfhJbIL6029zPVEZiU7mPfD8bfM4TVz0wtjqrCed7A47CUyh8doA5N+c5jF/yg6m7ky/i2LGZkJAbGTP1y6tInZw7CBvmf4Lfm8bzV2FOdhf/GMtuBm70NERERkazYuMee0URQpH0f4NzgnM5c0iHu2MDlTmTk7obycnUl6hgNni898kunaU8zHzQqGulxMRDZmm5noaafc7SPbzary80aWf9qr5yATBfjmRQUfFlkgGOLaaRv+54P7NBYRERF5HW0QEOvJqyuF4dsMGbNlaS4vzqwNep3/IbUgNtvHy4VSsoqreJXlYPG513zeJkPdKqMNDBkB0lLrw3m9LeX+wjORkZBYxbFM4OVWB7I5958HuHzORmVfiHdPBfjGuzfXFREREYEUX3MTnU3LaaMgbuHGKkb73GTH2seYRMrMDdjiy8sAo0+Zy0h83nHrVl4medZwvTGVebBEdpV4yM+YIuDbzKxiHZ/09tL757rNDRRgfAa/JRNHcR7WsWfc33wPIiIiIlu2wQxiBz8OX8QZKdMyxfTwEummGcQT5Nf5yDe2TKt5S9opd8e9i6XOR37S1cylpC+M8P1sfL8dzLRCXksT5WVN0b2rVwsnl7gKGaaYbG2OWwATtzKbGspbaqKrmVd8HsbwxpW3w2MOsVcCdI+dofECPOmKv2p4RfN70eR6hsYbZ2gMPeOuFq+IiIjIDnkjNzf3162fXk9ey0VexQU+ERERETnc9C1mERERETFRQBQRERERk22WmEVERETkqNEMooiIiIiYKCCKiIiIiIkCooiIiIiYKCCKiIiIiIkCooiIiIiYbPAllfAXR7Ke32Zivc/M5bRRVFdKuvElkq2y1PqwvdzgWgeBtYhPa89wHIAAj+8MJvkcno27Nyqw78dXTiLjezHIFW9gL698IFVWu2l0Gp+fSfKbXPNc5fKp8L+Xx3r4uG/vvpkjIiJyEG0QEA8vUygA1g5yWxCc4OM7E0YQy9yJHjflmucqH87vT5Ax/647+Juye/c10NfDQJ8x9iR/rvveB9yPXH9HrywiInI47UxAnG1monVHetpZcbNF1zxXuVxfxNSezeYFaLzzYE+utEokwO6w8ExbgMd3eoxQaOOuxwaapRQRETlSNhkQ68lrqSGbKSZbGwgRLgsX2sOti8MJ5eGSdsoLnzL28iLOshNJjgmXsPMzYqcsvky4ZPUtHv5zKXz9L3x068vNDTfO1HwITsbvsdBc7+a9yGRYfOmxuILu0zPcnT8TnS3bTOlxo5LmqmMA/+cPaBwndv0LtlVtpnNOuel2rh77RuXS9a5bWe3mdwzwRaY72ke03VrEh6dCPOmKnzEM0Ojdft8b31f4b3Xy6wd8czpyfyGedPXQFmTVfSe2bZvp75HQd3EF3efmufuv8LvIYwcq7YuIyCG3iYAYDofHh28zFBcCQ10uhjCeH0x2mr0GJ48Yau0IB0a3B4uv3wiXTeTPP2LoXvi5xTX72DYL7zss8HMoOnt4zePmvZ8HudIRCyCfVscFqlMVNDLIlTsBo5RcSfNEaqFjo5JmOBD9EjcTF8/G3dMzXLkzGN4srqD7QgXXxge5b/S7Xil23XJpcYX5usUVdF9w0xyM3ddxp5sPx3q44g2Fx3muiMrxCSjK53homr+tdf/b6HsghfsCsF+4itU4/5rnKpcrwrOXldVuLp98xt074dnhymo3jbUVXNuJ8re1iE8vvMmTrgfh+yiuoDuxb8sZGmsDPL7zgPvG85/N1sDOBVQREZE9luIq5upoONz0ApKFEcYiC1dGnzKHlWM5QE4bNvsUkxstaum7yUeXLm1t9vBUBd03rtJ9w83bUz1xszo23j0V4HF0O0Tb1wGOO2xURs4NPeNupD0Y4LuQhZPWzQ9hNRtXnBb8n68VXgI0xs8+jc/g501+s+1rW2g+Z2N57FnsuuODPH5h4e2iuGc1XwxGA9rAxDTLlkwc+9p3nLjz7z8PwEkLlZHf8+vYowMDfQM8Cdl4t3gznSdXWZQPYwOxsDf+LEnfcTOrO/p/KyIiIvsjpRnE9LJS0llievyAry5OZJT6KqvdNDpsVPYZIcJqwYoN+42rXI4/PjS/bnfWLAuwzQUUVgtWQny3zuySuVwKEOLJ9q4aFXy5ewtbdrNvAP/z+OA8yJVxABtXCPHzLs3WOTItHI8ve0fGEr9hmlkN0daxT8+eioiI7JCUAuLi8G2+pwFnXTuvjGcPD5OBvmdccVZwpXiCgchzfltYgbsjASgYYr0sU1ntNhaCDMYWgtw4s/3rGswh18JvTgLr52IABl7+QqMzn/etEwyscQNb7Xv7jBm76Lje5KRlncM3Sa++ERGR103KL8pe8XmY9DsovN5G2k5cefYHlnGQWRLeTHN5o4tdTKpv8bC3l4c3P9jGxQJ0j4WwnysKl5CDAb4L2bjsSe2Jx8rqSt6zBPhmfONjUxnLNy8svPcPRbFydqLQPFPGP695Kkj8WabmQ+ZyeEpC/G0qxHHnGa5FdhWf4T1LgC9SCT/jz3gSShy3sYp5u30btnZfAb55QexvC1RWn8Eeekb3Dvy97j8PcNxZSbNKxiIi8hrZ1CrmUNdtpq834WzxMt3pITgbWdVssDdRXta0ejVzUh3M9Jyl3O0j2w34HzE2fJGCrdxFCiKziL+rDjDQF6Kto4fmejfdN2LHmGaKLGdovHGGRiBxtjFxte7lG1e5HD0mYXU0FeFrxK1sve99AJ6rcf3HVvRGxhlpWx57hv9UfsK9DPC+wx07P9q38XLuyIFGaTRyXwN9PYCbxmhpPbwiN7VZ1Nhvlvi7hMe0nb43uq/1rf49Azy+E3kmcaO/x/q/GeODXKGC7tqrdEevuLPvfxQRETlo3sjNzf11vwdx4EReXbLXX0AREREROQD0LWYRERERMVFAFBERERETlZhFRERExEQziCIiIiJiooAoIiIiIiYKiCIiIiJiooAoIiIiIiYKiCIiIiJicogCYhXW6z7ySvZ7HCIiIiJH2+4HxJw2ilrasWx85M4raad8p74dLSIiIvKaOEQziCIiIiKyF9Z/UXZJO+WF80xnlpKfscR0z7dkuUtJXxhh7F4zKwDUk9dSQ7ZxyuLwbSZ8/av2xywx3ekhOAvhsnET+RlGk6nf1X0DzPW4mBmNG5/bsbotp42iulLSV117isnWBkKkcm344OZD/ngORv70ETf71vyVRERERI6Uv9vwCHspx3pcTBb6KHRnMtn6iMyWi2TkQHC2Cuv1Go4P32YoGgqbyPupn5nRDmZaO5jJaaOoLpNANJjFpLk84HUxFBcWC1xVRsBM7Dvcfix6dj15hU8Zam0Ib5a0U+5uZ360gdBsMxOtxr7z86uC38bXFhEREXl9bVxiXhjhR2PGbnHYaw55OdVkMcL30VDVwY/DS2QX1qd08RVfgzGTCNDPwvMl0rMKwpslHvJNfSfqYKarI7Y5+pQ5rBzLSenS61/b8OWtj7h0SbOHIiIi8nrZeAZxPdmZpGc4cLb4zPv9KZ6frBSc6rmApdZHoT1+zxLTqZ68zWuLiIiIHFXbC4iQ9Nm91NSTV1cK0RIypLm8OLNSOzvN5aXQHv9MYT15LRf35NoiIiIiR9n2VjGPPmUuo5QCV9Xax8z+wDIOMtd4f+HyT0YJOaeNgrITsYa5eRYz3iHDKBlbauMWlEQszEeDqaU2yYKYhD5Svrbhg5sP6e19yK3qNe5NRERE5Aja5gxiBzOtkNfSRHlZU3SvaaUxHcz0nKXc7SPbDbFVzB38OHwRZ3T/FNPDS6RHZvFmm/l+2Iuzzkc+4dXRkzSRaTSv+D5jrqwmWt5eHB5hzv6OeXgJfcRWMW9wbREREZHX2PqvuRERERGR145elC0iIiIiJgqIIiIiImKigCgiIiIiJgqIIiIiImKybkC02+3rNYuIiIjIEaQZRBERERExUUAUERERERMFRBERERExUUAUERERERMFxF1yzXOVT6st+z0MERERkU1TQBQRERERk7/b1d5L2ikvfMrYy4s4y04AsDh8mwlfv3FAFdbrTeRnGJsLI4zda2YFSHN5KeBblstKyWaKyR4odDvA/4ihro5Y/26HcfIS050egrPmIdT9uZff2qf466U/0JnSoC0017t5e6qHj/tCa+675rnK5VORc0I86eqhLQiV1W4ancbM4Sk33U7jkBeDXPEGjA0bd29UEHmJ0PJY/LVERERE9tfuzyDaa3BmfcZQq4uhninSyzxECq9pLg94XeG21ttMU0qBqyp6anrZO7zqvM30goPC8/OMdY6waD8bPj+njSK3lelO4/yeIPl17Wy/qBvib1MhjjtsVEb3vclJS4jvJsIhrrLazeWTz7h75wFX7jzg7hi8V1vBNWCgr4crdx7w+EU4+F0xjomFQwvN9RVYo22DBJ1u7hZve+AiIiIiO2L3A+LCCGORGb/Rp8xh5VhOeHPF1xA349fPwvMl0rMKYuf6P4u2z30VnlmMSCt+B4bbY+ePeplecJBZYr585+8vcSnl2cOwgb5n+C35vG81dhTnYX/xjLYggI0rTgv+rycYiB4/wJOQjXdTCXlWG2/zjL9EZwwDdI+FsJ+2bWKEIiIiIrtnd0vMG8lpo6iulPT4ff7UTk3LOkG6vYnysibT/rkdGViAb15U8GGRBYIhrp224X8+GNce4ufgFru2ZnLcYqPxxhka4/e/2PpoRURERHbSPgbEevLqSmH4NkPGM4lpLi/OrNR7MD/PuLPuPw9w+ZyNyr4Q754K8I03vtXCSSsQDYlvcnIzte3QM+52xGYgRURERA6SfV/FvPyTEfBy2igwFrKkIjQ5RXpZA9ac9Y+r+3Mvvb2fULfZgY3P4Ldk4ijOwzr2jPvRhgDfvAD7uaLoM4qV1Wewh57RPR47fWo+8TnG+H7P8Du9AkdEREQOqH2cQezgx+GLON0+st0AU0wPL5Ge6gziaANDtFNe5yM/unOKydYGdmY9cIDusTM0XoAnXeYe73sfgOdqXJk4wOM75hnBgb4B3ne4Y8dEVzEHaLwzyN0bcSucAf/nD2iMC5giIiIi++WN3NzcX9dqtNvt+P0pPhQoIiIiIkfCvpeYRURERORgUUAUERERERMFRBERERExUUAUERERERMFRBERERExUUAUERERERMFRBERERExUUAUEREREZNd/pJKPXktNWQDsMR0p4fg7GbOvcirTZ0TJ6eNorpS0oGd/cKKiIiIyNG2yzOIHcy0uhhqfcTc7l5otdlmJlpdDHWOsLjX1xYRERE5xFRiFhERERGTXS4xb6QK6/Um8jOMzYURxu41sxJ/SHZcqTixvaSdcrfD2NhsCTvh2knK0B/cfMgfz8HInz7iZt+mb05ERETkUNrXgJjm8oDXxdAsRAJbgauKCV+/ccQJ8t2ZTLa6CCW257RR5LYy3ekKh8KSdsrr2nmV4rOGaa4G8ucfMXSvY9fuT0REROQw2tcS84qvIW7Gr5+F50ukZxXEHbHEdGck8Bntp6tJA9KK34Hh9tj5o16mFxxklmxiAPazWNZp/vLWR1y6pNlDEREReb3sb4nZtNLY4F/78JWfgnA6/O+0rBOk25soL2syHZPqYpgVn4fJLB+FLT4AFodvx81cioiIiLy+9jEg1pNXVwrDtxkyglmay4sza+0z0t6ywvxTVoA0th/qQl0uhiJjaWmiCBQSRURE5LW376uYl38yAllOGwVlJ9Y5sp6/LzvB3GT4mcHQ5BTpZQ1Yc3ZiFN/zamH13g9uPqS39yG3qnfiGiIiIiKHw+7OIJpWGQN1PvKjq407+HH4Ik63j2w3wBTTw0ukm2YQT5Bf5yPf2JrrcTEzamyMNjBEO+Vx7fErkdNcXpxxgTNcSo60J65gBvyPojOZIiIiIq+zN3Jzc39dq9Fut+P3r/NQoIiIiIgcOfteYhYRERGRg0UBUURERERMFBBFRERExEQBUURERERMdi0g2u323epaRERERHaRZhBFRERExEQBUURERERMFBBFRERExGQfv8W8y3LaKKorJR2I/8KKiIiIiKzv6M4gzjYz0epiqHOExf0ei4iIiMghcnQDooiIiIhsyQEuMVdhvd7Esa9czBf6KLQDLDHd6SE4Gz4izeXFWXYiesZcj4uZ0c31n59hbPofMdTVYTrig5sP+eM5GPnTR9zsS33k1zxX+XC+h79QSaPTEu7+8wc0jseOqax2R9uStYuIiIjslwMcEMOy3T6OD99mqKsfS62Pwup6gl0dUNKOsyzIZKsn/GxhSTvlbi+v5mIBcj2W2iby5x8xdK+DSFgscn3PhK9/R8Z93Omm8cUgV+4EwmHwXBGV4xMMEAmHv/D4Tg/3d+RqIiIiIjvn4JeY/Y+ioS00OQWZuaRRhfW8g8Vhb2zhyWgDk/4TZBVXpdBpPZn2KSajM4b9BL+aIv10NWlxR3156yMuXdrc7GFU6Bl3vQEABiamWbZk4gDAxhWnBf/ngwqHIiIiciAd+BnEucm4su9oA0OjAOEQuPzTFmf7cnI5joPsFp95/8L81vpLYnkqwEBkIzjBx3eMf1stWAnxXXDHLiUiIiKyow58QFzP8beqgEhIrOJYJvAy1bP36dU3wRDKhiIiInKQHfwSc1L9LDxfIr3MQ3SZR4mH/IwpAqk8Qzjbx8sFB4W19ese9sHNh/T2PuRW9bYHHCfANy8svPcPRVTuZLciIiIiO+TQziCu+DyM4cUZLROHVzhHZgQTVzgXtviIzRr2E7wHXG+ivKUmeszi8O0dW6SynvveB+C5SuONMzQa+7SKWURERA6KN3Jzc39dq9Fut+P3+7fU8XbOFREREZH9c0hLzCIiIiKyWxQQRURERMREAVFERERETBQQRURERMREAVFERERETBQQRURERMREAVFERERETBQQRURERMTk0H5JJSLyxZS5Hhczo/s9mgTFFXRfsBkbIZ509dCmDzGLiIjIAXfAA2IV1utNHPvqAIa/Ddm4e8G2D5/Qs9Bc7+bk1/p0n4iIiGzNAQ+IG1vxeRjybXzcnrNasBLgC4U0EREROWQObEC01PootBsbbh/Z7vA/F4dvM+HrB+rJa6khG4Alpjs9BGfNfUTKz2FTTLY2EIrr3/byNt/TED0msUz9wc2H/PEcjPzpI272bfIGrJkcT35n0Rm+b05f5fIpSCw/V1a7aXRaomfEZiEtNNdXwr8+42RtBeGfJ8DjO4PcB655Iv0BF67SfSH8z+WxHj7uCyEiIiKSigMbEENdLobWLTF3MNPawQz15LVcXN1BSTvOsiCTrR5CGGHxehtj95pZMQ5JL2vC6X/EUGtHuP18Gz+Oxtq3IjHcXb5xlcsALwa54g1E99svXMU61sMVbygc7Cps4A1AcQWNzl94fKeH+2A8x+imORgJkBbeqz3Dk64HXAmGw+aH1Rbu94W4733AfZWYRUREZJsObEDcLkuhg7keV3TGcMX3GXNlF8nIITbTuDDCWFdHuH38WxbLMkmDaED88tZHfLnJ6w709TDQhxHsiM7urfJiMDqrd/95gMvnLFRi4f1zNpbHemLnjA/y+PRVPiyygDHD6P88EhZD/G0qxHuZbwKaIRQREZGdcUQDYhXHMiE7rjQdtsR03Nbi877YbOFsMxOtezZA/M9js4mMD3LFKCG/DwRfKuyJiIjI/jmiATHsQL76JgXWLAuxGUELvzkJzO/jgEREROS1csBflN3Pq3nILqzf9HkLz5fIdrdj2fjgNX1w8yG9vQ+5Vb2NTjYlXDI+7jzDtciu4jO8ZwnwRcqLTEL8289gP23b+FARERGRJA78DGKo6xFzLTWUt9QAcauYS9opdztiB9b5yI9bzbzi8zCGF2dL3DtwFkZMi1QOooG+HsBNY2Rxi7HCOelzjGu47x3k3RsVdN8Ib2sVs4iIiGzGG7m5ub+u1Wi32/H7/VvqeDvnioiIiMj+OeAlZhERERHZawqIIiIiImKigCgiIiIiJgqIIiIiImKy7iIVEREREXn9aAZRREREREwUEEVERETERAFRREREREwUEEVERETERAFRREREREwUEEVERETE5O82PqQK6/Um8jMi21NMtjYQAqCevJazzHfOY6srJR1gYYSxe82sRA4vaafc7TA2lpju9BCcjeve1A6Lw7eZ8PXH2qtv8fCfS+Hrf+GjW19u5R5FREREZBM2DIhprgby5x8xdK9jjSMcFNbBZKuLkBEmC1xV4ZCX00aR28p0pyscCkvaKa9r51UkYJa0Ux7fLiIiIiL7LrUSs/0sljUbl5jujMwo9rPwfIn0rAIA0orfgeH2WPgb9TK94CCzBKAK63kHi/HtyfTd5KNLlzR7KCIiIrJHNpxBXPF5mMzyUdjiA5KUgJPJzCUNSMs6Qbq9ifKyJlPzHAAFHMuA5Z826EtERERE9lQKzyBCqMvFEBB+5rCJIlg/JM7/wAqQxnqB8nteLcCxTQ9ZRERERHbTJlcxh0PdmnLaKCg7wdxk+HnF0OQU6WUNWHOSHRwuR2e729cpXxNepNLby8ObH2xuqCIiIiKyJRvMICauYAb8jxgyzQieIL/OR76xNdfjYmbU2BhtYIh2yuPa41dBr/g8jOHFaZSvIcUStoiIiIjsmjdyc3N/3frp9eS1XORV4qtrREREROTQ0ouyRURERMREAVFERERETLZZYhYRERGRo0YziCIiIiJism5AtNvtezUOERERETkgNIMoIiIiIiYKiCIiIiJiooAoIiIiIiYpfYv5YKonr6WGbACWmF7jZd2WWh+F9rXbRURERMTsEAfEDmZaO5gxvuZylPx3/+lf+IfItwlDY/zv/+P/zX/d1xGJiIjI6+QQB8TUhLpcDO33IDbjHxv4Bz7jn678F6CAf/y//if+w3/6iX/6n//Lfo9MREREXhO7GxBz2iiqyyTQ+pTMSDl4YYSxe82sAFCF9XoT+RnG8f5HDHV1GBv15LWcZb5zHltdKemrzk3l2sZ5TDHZ2kAo8ZiSdsrdjujm4vBtJnz9SdvmelzMjMZOTXN5cZadWLMd6vik97c4/H/l0u87Uxlx2H9u55+iG9/z//3XRUr/3Vv8O9AsooiIiOyJPZhBdFDYYmW608XQbPi5wb8vgZlRsNQ2kT//iKF7HUTCYpHr+1hIw0FhHUy2uggZ7QWuqrj2dcw2M9FKNKSuUtJOuTs8rtXPJtaTV/iUodaGuGPbmR81QmZOGwVlQSZbPatDp4iIiMghtyermOd6IgtEOpj3w/G3qoB6Mu1TTEZnDPsJfjVF+ulq0qJnLjHdGZn562fh+RLpWQU7MKIqrOcdLA63r7FwpYOZ6LiA0afMYeVYTvwxDjJL1rtGJ3+4dGlzs4eJPvgf+MfSdPxf6hlEERER2Tt7MIM4xXxc6TXU5WICIKea4zjIbvGZD1+YX7+7zFzSILUy85oKOJYByz+tPRMZXv0cv2eJ6cg/Z5uZ6Gmn3O0j283mSt8p+/f8x//ghJH/k//tP+9oxyIiIiLr2udFKms8G7ie+R92IIh9z6sFOLZGa5rLS6E9fmxJVkqPNjBkBF9LrQ/n9bYdDIn/nv/YfRH79Gf80//6/Y70KCIiIpKq/XtR9mwfLxccFNbWp3Z8ThsFZSeYm+zY+NgNhcvV2e52LGsdsjAfDXuW2sj7FpNbebmUZG8dn/T20vvnuk2OLS4cauWyiIiI7IN9nEHsJ3gPuN5EeUtNdK9pJTEnyK/zEXkloGmlcMIqY+p85Me9MDtxlXFhi4/4GcsVn4cxvDjjStyRa6/4PmOurCbatjg8wpz9nehxiX2H+92Z2cN/97/8t9gB8i/yf3THZi39//pHlZpFRERkT7yRm5v761qNdrsdv9+/l+OJEy7rvtIXUERERET2lL7FLCIiIiImCogiIiIiYnKAS8wiIiIish80gygiIiIiJgqIIiIiImKigCgiIiIiJgqIIiIiImKigCgiIiIiJvv8LeZdlNNGUV0p6cCWvvksIiIi8mC5KgsAACAASURBVJra/RnEnDaKWtb55vFumW1motXFUOcIi1s5f7/GLSIiIrLPVGIWEREREZNdLDHXk9dSQ7axVdjiM/61xHT0+8pVWK83kZ9hNPkfMdTVAUCay0sB37JcVko2U0z2QKHbETumpJ3ywqeMvbyIs+wEAIvDt5nw9ac4voRrL4wwdq+ZlZTGHR5f5LrJS9h1fNL7Wxz+v3Lp950pjklERERk/+1iQOxgprWDmZw2iuoyCSR5BtBS20T+/COG7nUQCWxFru+jIS+97B1edt5m2tNE4fkRxjrnKag7iwXCfdlrcPKIodYO45nDBqzj/dEQt540lwe8LobigmqBq4oJ38bjpqQdZ1mQyVYPIYyweL3NCJgiIiIih9s+lpjrybRPMWnMGEI/wa+mSD9dTVrkEP9n0bA391WS8LUwwljk/Nk+Xi6c4Fh24kHJrfga4oJkPwvPl0jPKkjpXEuhg7meWHBc8X3GXMY7ZOTEH9XJHy5d0uyhiIiIHDr7t4o5J5fjOMiOlnANC/Pb6vb4W1VACmVm0ypnQ0qfna7iWCZku31ku+P3LzG9iXGKiIiIHFT7/JqbtV8/k5ZkXyqWf0rlGcR68upKYfg2Q0Y5O83lxZmV+nXmelzMjG5tjCIiIiIH2e6XmGd/YBkHmSWJ+/t4ueCgsLZ+Ry6T5mogP2OK+U2EtmiYzGmjILrgJDK+NcZtlKOz3Ru9AqeOT3p76f1zXeoDEhERETkA9mAGsYOZnrOUR0uykdXA/QTvAdebKG+piR69qZXIGaU4oyVq82ykeZVxZDVy5JgOfhy+iDM6pimmh5dIN80grjVuWPF5GMMbd23iVkGLiIiIHG5v5Obm/rpWo91ux+9P6cG8vVfSTvn5eYUyERERkR2mF2WLiIiIiIkCooiIiIiY7PMq5m0YbWBIq4hFREREdpxmEEVERETEZNcCot1u362uRURERGQXaQZRREREREwUEEVERETERAFRREREREwUEFOR00ZRy0af1hMRERE5Go52QCxpp/x6G2n7cGlLrY8iV9U+XFlERERke452QBQRERGRTTuwL8pOc3kp4FuWy0rJZorJHih0O8D/iKGujvBBJe2Uux3GGUtMd3oIzhIuCdeVkg6AA2eLzzhmisnWBkIAVGG93kR+htG0MGL+rrOp7/C5ieNzlp1YdW3TfnsT5WVN4X/Hj5t68lpqyI50ZmoL++DmQ/54Dkb+9BE3+zbxw4mIiIhs04ENiADpZe/wsvM2054mCs+PMNY5T0HdWSxAKKeNIreV6U5XOBSWtFNe186r1gZCs81MtBr7zs+bg58hzeUBr4uhWYiExQJXFRO+/nDAjO87p42iuszYyTlt/D3tDLX2G315cXraWLjXzIrPw5AvXGK2vbwd7i+BpfYs860uZoBIWMwr6WBGX4YRERGRA+Bgl5j9n4UDGjD3lTnkpRW/A8Pt0XZGvUwvOMgsSa3rFV9D7Fz6WXi+RHpWAQCW6lJz34lmm5mJC34r49+ymJGZ8rOOoa7ILCZAB/N+OP6W+XnFL299xKVLmj0UERGRvXegZxDXk5Z1gvT4Eq5hLtUOTGVogz/VkxPK00BiCXpdq8rXsPgy9dNFREREdtOhDYgAi8PJS7gbqyevrhSGbzPkiysTZ6V2tqW2iXxGGGs1ZjUTS9DryWmjyO1grscVLSlban3YNn0PIiIiIrvjYJeY1xGanCK9rAFrzjoHzc2zmPEOGWscs/yTES5z2iiILjiBlZdLpJ+uNkrG4TCZnnjy/A9GybsKq2d1u7mPREu8ikx1lrRTmOSz1R/cfEhv70NuVa99eyIiIiK74fDOII42MEQ75XU+8qM741cpA7PNfD/sxRk9JtLewY/DF3G6fWS7w/unh5dIN2YQV3ztTJ9uMlY/LzHd+Yi5urPRq4T6Rlisq6G8pQaAueERFsvMM4jmPoitVJ5tJuD3URgZ08II034HKU5eioiIiOy6N3Jzc39dq9Fut+P3p/xg3o6dKyIiIiL759CWmEVERERkdyggioiIiIiJAqKIiIiImCggioiIiIjJgQ2IdnuSd7+IiIiIyK47sAFRRERERPaHAqKIiIiImCggioiIiIjJ4f2SykZy2iiKfiIv4QsrGylpp/z8PGP3jG8tb1Kay4sz8um+yBdURERERA6JozuDONvMRKuLoc4RFvf40is+D0OtLsaGl/b4yiIiIiLbd3QDooiIiIhsydEtMW+oCuv1JvIzjM2FkVUl5fhS8eLwbSZ8/UnbNl3Cpp68lhqyI5tJrv3BzYf88RyM/OkjbvZt8tZEREREtuG1DYhpLg94XQzNQiQsFriqYiEwo5TCrEcMtXYYzzM2YB3vJzgLlLTjLAsy2eohhBEWr7el/MyipbaG48O3GYoLnCIiIiIHxWtbYl7xNYTDHgD9LDxfIj2rIHbAwghjkcUls328XDhBVnEVAJZCB3M9sRnDFd9nzGW8Q0ZO6tdPP11N2jrtX976iEuXNHsoIiIie++1nUE0r3I2+Nc6uJ9X803Gv6s4lgnZbh/Z7vhjlphO8dKhrttMX2/C2eIDYK7HxczoJsYuIiIisote04BYT15dKcSVedNcXpxZax0fDoXLk/1AeBZxe6Gun+C9foJgBFUfeSgkioiIyMHw2paYAZZ/Mp4BzGmjILrgJIkSD/kZU8yPQqQcne1ux7ITg5j9geUkuz+4+ZDe3ofcqt6Ji4iIiIik7sjOIJpXGUNhi4/YauMOfhy+iDNaJp5ieniJ9PgZxIzSaAk4cZXyis/DGN64duJWIiesjqaG8paauBdmJ6xgxlghrdlDEREROSDeyM3N/XWtRrvdjt+/5oN569rOuTtxvoiIiIhszWtdYhYRERGR1RQQRURERMREAVFERERETBQQRURERMTkSAZEu92+30MQERERObSOZEAUERERka1TQBQREREREwVEERERETFRQBQREREREwXE1421iE9vVHBtv8chIiIiB5YCooiIiIiY/N1+D+DAKmmn3O2Ibs71uJgZDf87zeWlgHYCWU0U2hPbq7BebwDvZxyrqyEbgCkmWxsIxfdffYuH/1wKX/8LH936MrUxFVfQfQEe3xnk/lr7rEV8WnuG45H2F4Nc8QYAG3dvVBB5AdDlG1e5DECIJ109tAXD+yur3TQ6LcZRAfO1RERE5LWggJhUPXmFTxlqbQhvlrRT7m5nfjQW8tLLmrAN32aoqz9J+wny6y4y3eliaBYstT4Ka+sZ6urY3rDGZ/BfqODdYmA8vKsy60148cwIcTbu1p4h+PkDGseN7RsVfFrdw8d9ARrvPDACZCZfJAt+xRU0On/h8Z0e7mOExfoipjomGNjeyEVEROQQUYk5qQ5m4sPc6FPmsHIsJ+4Q/yMmfP1rts/1eAjOhv8dmpyCzFzS4i/Rd5OPLl1KffYQgADdYyHsp23GtoX3HfBkMABAZfUZ7KFndI/Hjm/8PMBxh43KFHq/dtqG//NYcBzoe4bfks/71k0MUURERA49zSCuwVLri5aPw5aYXveMExzLBmbXaM7IJA1Y2ea4Biam+V1tHtcIcN9q422m+Usw7oCfQ1uc7bPwm5Ngv3CV7gvx+0M82c6ARURE5NBRQEwizeWl0B7/3GA9eS0XNzhriVdz6zQvzG87HAIQDPBd6AzvFkNlVj5MDZgD4UkLlRDdV5n1JjCfcvf+aHlaREREXlcqMa8lLtBZaiOLTZKz1NaQvfAtC0lnD+vJcztYfN5nDojVt3jY28vDmx9scmAh/jYVwppl433HL3zRF1v6MjAxzbLlDFeKI3tsXHFa8H8d9wxhMEQQW/g5xiT92i/oFTgiIiKvO80gJrHi+4y5shqcLT4AFodHmLO/Yz7IXkN5S0343wsjjN1rNgXAbLePbDfG+bdjzyvugIG+Z1y5UcF7LwZpi28ITvBxF3xaGysTL4/18LFpRjD8XGJ3tJQcW8U80NcDuGmMrnAGQs+4q0UqIiIir5U3cnNzf12r0W634/f7t9Txds7d72tvJM3lxZn12RqrkquwXm/i2Fex1+KIiIiIHCYqMYuIiIiIiQKiiIiIiJjoGcQtWPF5GFqztZ/gvZ173lBERERkr2kGUURERERMDmxA3M4ik91coCIiIiJy1B3YgCgiIiIi+0MBUURERERMFBBFRERExEQBUURERERMFBBFRERExEQBUURERERMDviLsuvJa6khO7K5MMLYvWZWAEraKS98ytjLizjLTgCwOHybCV/sJdVpLm+0DaaYbG0gFN99STvlbkd0M/H8D24+5I/nYORPH3GzbxduT0REROQAOtAB0VJbw/Hh2wz51vgyib0GJ48Yau2AnDaK6hqwjvcTnAVK2nGWBZls9RDCCIvX28wB021lutMVPl5EREREgAMeEAHST1eT5usPh7pECyOMdXWE/z3bx8uFUo5lA7NgKXQw1+OKzhiu+D5jruwiGTkQnK3Cet7B4vDtdcPhl7c+4sudvR0RERGRA+9AB8RQ122mrzfhbPEBMNfjYmZ0/XOOv1UFwLFMyHb7yHbHty4xDUABxzJg+Sd9M1lEREQk0YEOiNBP8F4/QTBKyD7yWD8khkNfOCSuHSi/59UCHNv5AYuIiIgceodnFfPsDyyv05zmaiA/Y4r5UYB+Fp4vke1ux5L06I3awz64+ZDe3ofcqt7GuEVEREQOmQM8g5iwghljlXH8jGBGabT8nLhKecXnYQxvXDumVdDJ2hNXMYuIiIi8jt7Izc39da1Gu92O3+/fUsfbOTclJe2Un5+PrUoWERERkR1xeErMIiIiIrInFBBFRERExOQAP4O4gdEGhjZ45Y2IiIiIbJ5mEEVERETE5MAGRLvdvt9DEBEREXktHdiAKCIiIiL7QwFRREREREwUEEVERETERAFxv+S0UdTio7y2fr9HIiIiImKigLhVJe2UX28jbb/HISIiIrLDDu97EA+72WYmWvd7ECIiIiKrHfGAWE9eSw3Zkc2FkbhvN6/TVtJOeeFTxl5exFl2AoDF4dtM+PrDpeG6UtIBcOBs8RkdTDHZ2kAIgCqs15vIz0h2XbDU+ig03uIT7deQ5vJSQDuBrKboMXM9LmaiLwVP6Nv/iKGuDlPbsa9czBdGrrHEdKeH4KxxSEk75W5H9HqJ1weo+3Mvv7VP8ddLf6Bzw99YREREjpojHBDDAfD48G2GEgJQOEjFt4WDlbO2Pha27DU4ecRQa4cRqjxYfP2EIjN/Je2Un583Bb+INJcHvC6GZon2XeCqigaxUJeLIcJB0ZZk5OllTdiGbzPU1U+ay4vzfBs/joavY6ltIn/+EUP3OqJ9F7m+N4W8bLcvfG9d/eEwWl1PsKsj/Ju4rUx3umKBUURERCTBkX0GMc11keyFEb5fFQ6BEg/5GVMEom39BL0jLNrPYokcszDCWCQsjj5lDivHclK79oqvIS6A9bPwfIn0rILUB+9/FA18K+PfspiRaTzrWE+mfYrJ6IxhP8Gvpkg/XW1+FjLu/NDkFGTmxrWfIKu4at3Ld/7+Epc0eygiIvLaOrIziGlZJ2D+h1Wze1EL82u3bZepDG3w70S/uRzHQXa0rG1YmDdtzk12xDZM36zuYKYzl6K6JsrLmjCXxUVERETCjmxAXHm5BFnrHGDMykVDYnamOdBtWT15daUQV9pOc3lxrjeWTdlmqItbHJPm8uJsaVdIFBEREZMjW2JeGf+WRXsNeSVJGkefMocDmytSaq3Cet7B4rA39aA0N89ixjtkrFF2Xv7JKF/ntFFgLHTZttk+Xi44KNyhdyeu/BRMur/uz7309n5C3Y5cRURERA6bIzuDyGwzE51tFNX5KHcb+6KriTuYaYW8lkiplfBq4GTPK67T//fDXpx1PvKB2MxeBz8OX8Tp9pHtDu+fHl4iPTqDmLB62h4eQ7LVxKv1E7wHXG+ivKUmuje1c1m1gjmywlmzhyIiIhLvjdzc3F/XarTb7fj9W3t4bjvn7sT5IiIiIrI1R7bELCIiIiJbo4AoIiIiIiYKiCIiIiJiooAoIiIiIiYKiCIiIiJiooAoIiIiIiYKiCIiIiJiooAoIiIiIiZH90sqOyDN5cVZdoK5Hhczo/s9mv1mobnezcmvH9A4vvO9V1a7aXRawhsvBrniDWyhFxt3b1RgN7aWx3r4uG/1d2Kuea7y4XzytgOtuILuc/Pc7ZhgYL/HIiIiR5oCohwIA309DPQZQTFza31c81Rg33K4POgsNJ+z4f96cOfCoQKniIisQQFxHSs+D0O+/R6FpMbCb06C/+ujGA4Bq423ecZfdmH2VkREJJECYlL15LXUkA3AEtOdHoKz8W1neTVsJb/sBIvDj3h5uob8jPjjqrBebyI/wzhlYYSxe82sRLrIaaOorpR00zWnmGxtIESstJ24P6aOT3p/i8P/Vy79vnNzt1ZcQfcFW3RzdRnWXKYl9Cxhhim+PcDjO4PcN1pMZWLA/7m5HH3Nc5XLp6Id86Srh7ZgiuO2FvFp7RmOR7ZXzRS+yUlLkvOASHn8vbj25fn49rVK0+Hz3p6K/41W71v7vmzcvZHHN13zfBgZe+LvueHfI+xaxRmY6kk4D9Pvv2rfWr+Zab+NxhtnaATMf8+E3+zIzsyKiEgyCohJdTDT2sEM9eS1XEzS7iA/6xFDPWcpd9ew3ONistCHrbiK4Gw/aS4PeF0MxYXFAlcVE77+8LanFIZvM+Trh5J2yt1WpjuNEFjSjrMsyGSrJxYWr7eZA+aW2bh74U2edD1YI5iFg5J1rIcrazyfZ79whiddD7gSDAeID6st3O8LQXEFjc5feHynJxwwiivovuCmORgOS5XVbi6ffMbdO+FwVFntprG2gmvxAWe9cdeeIRgNnOFxflrdw8cTNnMIunCV7gsQH3auedy89/MgVzrCAeea5yofRvu20Fwff8827t5wc/flAxrHQ/xtKsR7DhuVfZFQ9yYnLSG+mwj/Phvfl43LtfD4zgPuG6Hrd9UBBiLXWvfvYbAW8eGpAF944/4m4zP4L1TwbjFghPDKrDfhxbPoddf8zfom+PjOxLolZvNvFh53+NxD9tymiIhsiVYxb8kS030d4X8ujPBjwgKWFV9D3IxjPwvPl0jPKghv5lSTlbHEy/H+8PboU+Y4wbHwdCWWQgdzPbEZwxXfZ8xlvENGTvwVOvnDpUubnz0MX4G3i5JPtVVWn8EeesZf1gkB/s8js2Ph8HQ8800iz8ctjz2Lhb3xQR6/iFzLxhWnBf/XsSAy0DfAk5AtHHA2EBlXd3Q2MkDj5wGOO2xUBif4+M4DrtwZxE941vKKsR2ZRfvwVIDHa81+RUq30XsO0D0Wwn7aZozzGX5LPu9bjebiPOwvnkVnCDe+rxBPuiJhMf43i1j77xG9/6J8jr+YSQjS5nGChfcd8GQwsPFvtu7Vwvf1ruk3C9H2darniojIUXCEZxA/4Nb/80dK4/63d+r/vcQfOvbg0slKyH7jv2d/YJlSsozZRkrOks0Uk6MAVRzLhGy3j2x3/MlLTO/IwAI0dj3j01o33c7wdnyJ0pFpgZ9DW16wEHy53uxSiJ9TLScns41xrcuayXFLfJnV8CLyjwDfvKjgwyILBENcO23D/3ww7sAt3NdJC5XAwAZ/jzAbV5zwpGt1wB2YmOZ3tXlcI8B9q423meYv8WPZ6m9mtWDFhv3GVS7H7w/Nr3WGiIgcMUc4IH7Jzf/+y324bj15dXElZIwycVak/XteLUB2WRPlZU0AzPW4TM8Y7uprdYJGeRGjHHqjAoxQMjUfgi2uIAawZlmA2LN6vzkJRDOFhZNWIBpg1ntmMIloqAqrzHozvvPtWfWcpdn95wEun7NR2Rfi3VMBvvHGt27hvuKD2zp/DyA8Yxma5m6yEBoM8F3oDO8WQ2VWPkwNmO9hW79ZsrAqIiKvC5WYd8nyT0YJOaeNguiCE6DEQz4jjLW6GDL+EwuD4XJ0trud9TNGHZ/09tL757ptjXHg5S/m7Ylplk9VcDeFsq+ZUTp1nuFaZFfxGd6zBPiiL0R4Fg7s54qiJcrVJdB1xjkxzbLlDFei41pd2l1TMESQWMm3stodt6CE8LN8ljP8rnqdX3x8Br8lE0dxHtb4Mvpm78taxO+cFvzPk5e7E/8esVfbrHWf4d/dmmXjfccvxm9t9JXKbxacZzm+fB7dH+C7kI3LHhsiIvJ6OsIziNtQ0k652xHbrvORv2o181o6+HH4Is5omXiK6eEl0iMziKNeps834Wwxvz8nMmu44vMwhtfcnrgKeqsSVsxGVtxGA09wgo+74NPayEIPNpxdixjo6wHcNEbLkua+73sfgOdqworZSL+Jq4wr6L5BbOVsknEtj/XwcUqvfAk/e9cdWbzyYpC7Y2f4XXz7nUHu3oiUecPMK7ADdI+dofECPOkyl9HXv6/wvb1Xe5XuZP1u9Pew2njbEuCLde5zoO8ZV25U8N6LQdriG1L5zYIT/GUsn8bo+CKzhiHaOnporneH/w7Ena9FKiIir4U3cnNzf12r0W634/f712pe13bO3YnzD6ySdsrPz5sDX0k75W6SvM5GDjcbd2+c4efNvM4nzqH94ouIiBx6mkHcY2lvWUl8DsxS6ICFkR14jY0cJfe9D/QMoIiI7AsFxD224mtn+nTT7pSQRURERHaAAuKe6yd4r5/tvPFFDosAjXf09RERETl8tIpZREREREyOZEC02+0bHyQiIiIiSR3JgCgiIiIiW6eAKCIiIiImCogiIiIiYqJVzOtIc3lxlp3Y3W8j76l68lpqyAZI9mWYnDaK6kpJB2BqZ1/cnVLfxvgO02t/rEV8WnuG44C+XywiIkeFAuKhEh/wDP5HDHV1pHh+BzOtHcxQT17LxdXNs81MtGKEuUxzmynghS0O32bC15/apdfr+xC45rnK5VOJn+Aj/Em7OxNGUDx89yUiIpKMAuI6VnwehnwbH7fXYjOaVVivN1FeyyZC4nbEzzrWk9fSRBGkHhI3FAmwB42Nd08FePw5XD5tg3G921BERI42BcSk1ivF1pPXcpZXw1byy06wOPyIl6dryM+IPy4c3PIzjFMSS6ZJZuPiy66R0nbi/tX6CX7lId99FgsQMmYGX8WN11Lrw/ZyEzN9Kevgx+GLOE9Xk+brZ2XVuNlUad507hqzosn7D/+tMF0r2b46Pun9LQ7/X7n0+87N3WpxHvbQPN3jIfwX8rhGIIUysoXmejcnv06YcUz8PnNxBd0XbNHW2Ayljbs3KsA0Y5m4L3yN9yyRdpW4RURkZyggJrVBKRYH+VmPGOo5S7m7huUeF5OFPmzFVQRn+0lzecDrYiguLBa4qoyQVoXVUwrDtxny9UNJO+VuK9OdRggsacdZFmSy1RMLi9fbDv4zeQnjDt+Xl1dzCc85riEyW5vm8uLMWt0eDodx/Ud1MO+vobCwnplRI1SWnCWbKSZ36LnRa6dtLE89YwB4P2Tj3WJgfKOzQvzbz/B2Vji6J2fj7ukZrtwZDG8WV9B9oYJr44PcJ8A3LxJmLIvzsBPgsXHtyupK3vt5kCsdmtEUEZGdpVXMW7LEdJ8RRhZG+DEhiKz4GuJCUT8Lz5dIzyoIb+ZUk5WxxMtxY0Zv9ClznOCY8WChpdDBXE9sxnDF9xlzGe+QkZNsHPXkuR0sDnt3bjFJqnLaKCg7wdxXzaxQhfV8wjhGG5j0nyCruGoHLlbP35edMP0u8UJ9Iyzaw7OoEP4NV/8mnfzh0qXNzx5i491TIb6bCAEh/jYVwn7atuFZAFPzkRFYaK6/yt1iwGrByi/8WxAgQKM3LtyNz+DnTX5jDW/eH3zG8qk8rhnN107bWB57Zp4hjGsXERHZKZpB3A3JSsh+479nf2CZUrKM2UbzbFcVxzIh2+0j2x1/8hLTcVvx7ZtaKLJtJ8iv85FvbCWWkJd/2qVx5ORynCVezq3RPtvHy4UmMksgNFpPpn2KQNcOjaU4D3tomrvGx7MHJqb5XW1qZeaBl7/QePpNsFo4+XMAsiwQBELzTBnHRBa/xIR4EvlnMMB3oTPGjGX4OcgvvLHYO9DXgyPzKpdvXOUysDzWw8d9e/7/KoiIyBGkgLjj6smriyshk1g2/Z5XC5Bd1kR5WRMQDlrx/7O+0bN7+/fanSSvxolz/K0qIBLMwmGXlztw2dkfWOaddQ7oZ+F5A/mF9cxwlmz/0x1b6HLttA0sNhpvnKExbn9KZebgPMvnLFwryofnA/x82kalNZPjP88wAFRWu7l8Kv65wfDziTHhGcvG0zYgD/uLGdMYAO57H8Sd6+ZTFBJFRGT7VGLeJdHZNKMUG1XiIZ8RxlpdDBn/iYW9cDk6290eLZduXqxcnebyUrgnn6U2yuhlnti4SzzkZ0wR2JHZzQ7m/SfI97SRtsYRK77PmLNfpOi8NVb+N6njk95eev9ct4nrWvjNyfDCkSt3Yv95/IKUy8wAv8n8hW/GQ/wb+Vw5/SbL87/EGk2ziRUk/rkG+p7hP3WGT8+9yZPB9Z41/IWflQtFRGSHaAYxmZJ2yt2O2Hadj/wNZs9ijNW90TLwFNPDS6RHZhBHvUyfb8LZYn5/TmRWcMXnYQyvuT3lF0d3MNNzlvLItf2PmPTXEI0yG9xX4irhwhYfqb4we/W4w/1Gzlu/74RV39RQ3lJjWs0c6nIxWesz/S7mmdTwYpXszBG+T2FRTEqsNt62BPgiYabw/vMAl43VzFPVbhqdsTgfLvcas4LBEEFLBe/9PEgbwPNf6L5gw/88/KsM9D3jirMiOju5PPYM/6l888UI8M2LCuwnn/G3YPz+xBXMwItBrmj2UEREdsAbubm5v67VaLfb8fv9azWvazvn7ve1d1VJO+Xn582Br6Sdcjc7++WS19DuvdJnf13zXOXDeZWORURk76jEvMfS3rKu2mcpdMDC/MF+jc1BV9JOoX2nStoHU93x0wAAEmpJREFUSHEFl08F+ELhUERE9pBKzHtsxdfO9OmmLZaQZZVo2dxc0j70oi/QDvGkq0cvvxYRkT2lgLjn+gne6ye48YGSitEGhvZlRfcuGx/kyoYv4xYREdkdKjGLiIiIiIkCooiIiIiYKCCKiIiIiIkCooiIiIiYKCCKiIiIiIkCooiIiIiYKCCKWXEF3fVFVO73OERERGTfKCCKiIiIiIlelJ1MSTvlhU8Ze3kRZ9kJABaHzd/4TXN5o22Rr3gEZyPnzjOdWUp+xhLTPd+S5S4l3fS1lHryWmrINs5O7Bvgg5sP+eM5GPnTR9zsS23YldX/f3v3FxLnne9x/FM4IJI4TG3IGDkaHSXpKk12XLRyTpJGzymZDUMbqr1oVxZatIeSbvAYTrwoWjrSi/Sc5JS2UjYjLRS3e1FdTBA7YZeYTVKYVeokLtqToKOpYMZgB3dUglc9F/P3Z9SMfxJj835dzTzP8/s9P7368P0+v3lcaigY01nPkK4sc+xQpUsNDkt8TODPX6lhUJKtWH+o2a9tkqQcNZzcrwZJ0oTOn7kafZNHjs6ePCh7dOy8n/cDAwDwc0QFcTn2Kjl2XJTP7ZSve1QZZdWKx6rsFu1Sa+Sc2yl/n5Rf3aK0+NhSpV9zajiwXfmuTE24OxW0/kLWbEmqkO1Elbb1nY6O79R8WaPySta/5CtDY5q35OuFpNc9F2RaND86EQmM+w6qwfEPnT/zlY6d+UrH/jwh+4suNdkkTQ3pN9FjCt/Q2dg18XBoUVPdQdn83fHjUw6Xzu5b/7oBAMDjhYC4nJl++ds9kc8D1xWUTenZ0XOTTRpPqvgtDH6vWWtmIiDO9OtO9PVvs30d5vuBsyu1Q/0aiY/36E7fnLKK6ozbX37/VR09mnr1UJI0NaS/3Lbo2eJYlM3Rc7sn9JdLYUkWNT2fo3n/jcR7fQev6rxx/QpsOXpWN/T7eMVwQl3+sOx7claxQAAAsBXQYl6TCtlONCrfmnxsNLWhWZnKsBbI0ew1jwc2ZmVf3JrQy8/n6NClIV3Zlyf77fFoqzhianqNLWFbprZZklvPUbfXsVgAAPBYIiCugaWmUfnql98dfaYwu0XFtZmpT2A8j7jBBscVeHG/XrANqWBPjgK3rhqnbTssUrymadE/Py0plOLc4RvG840AAODniRbzWoV+iAa8CtmqS5WR6riB6wpaS1XorFjxssPvfa2enq/1fuVqFzahv9+26Glbjp57+oa6BmPHw/rraFjbHPv1RuzQvv36lSXWgo6aCt33HKOkSPC07Nd/VKbQjgYAAFsaFcQ1CF/q12xtlcqbqyRJwb5+zZalWkH0aNwt5TU3qrysMX402O3U+MDGrO+Lqzf0h5qDkr/bqPZdudQtyaWGk6/r5chfou/auxPPJErS1JB+789XQ83r6pKU2MU8oYYzV3X2pEtdjsTl8V3QAADgZ+Op3Nzcn5Y7abfbFQis7eG49Yzd7HsDAAA8yWgxAwAAwEBABAAAgIGACAAAAAMBEQAAAAYCIgAAAAwERAAAABgIiAAAADAQEAEAAGAgIAIAAMBAQNwUFbKd8CqvZLPXAQAAcD8CIgAAAAz/tNkLeCyVtKq86Lr800fkKNsuSZrtO60hb2/8EkuNV0X22Lc5jbVVa2oycS5n+rRGdDw+Ptjt1PjAonEur7Jcum/+NGdHfFzy2IRafdLzigoCf9LRd9o29m8HAABPPALicuxVcqhTPrdHym5Rce1x2QZ7NTUZCXBFmf3yu5u0oGigq23VPfdxhaPDM8oa5QhExqc5O+Q40KI7A00KtzvlU4VsJxqVfm1x8JOU3aLCsikNu6vjcwEAADxKtJiXM9Mvf7sn8nnykqZntis9S5LqtKtsu4LXIuFQkha8rRqbKVBmydLjFwa/16w1U2kp33zRXPdp0++OHqV6CAAAHgoqiKuwbWdF9NOc7gVXvnb21qV4gNRkk4bcKd5ksklD3a0qj7WfZ/rl/zgRRgEAAB42KoirMH839gxirJoYU6h06wbeaOC4fG6nfG6nhkOlcpxoWUX1EQAAYH0IiClIcx5XvnVUoQFJ8igUkLIOJEJbmvOIsmb6dWfx84TL6tW9kJRVVPfAKxem55Y4WqtPenrU82ltqjcEAABIGS3m5VhL5Wj2Rr+MajhpA0q43anhGu+i86trA4fbOxVsrlJ5c5WkxC7mxTuY1zI3AADAejyVm5v703In7Xa7AoHAmiZez9jNvrdKWlV+IMSzfwAA4IlEixkAAAAGAiIAAAAMPIO4lIHj8qW84QQAAODnhQoiAAAADAREAAAAGAiIAAAAMBAQAQAAYCAgAgAAwEBAfAKlOTtU3uxVXslmrwQAADyO+JmbLchS41XOdOTVfFuFpcarInvyEfP1hev2EN9+s/fdJtWXZsS/h/vPqfGDkWXO39aFY636ZoPXAADAo0QF8Qm04K2Wz+3U+KP+rcdAp3xup3xup/x9NhU1t8ryiJewam8eV/3eEX107JTePnZKb3/kl0pf05uHk86XhnQhev7C2G699OVr2rupiwYAYH2oID4sJa0qdxXEv872JVX8sltUXFuqeE0q0Clfuycxrui6/NNH5CjbboxNc3bEj8neqPKyxvvHq055zVXKWmpu49ycxtqqNTWZWHKas0OFatXEjsZ4tS/YnRwkzbnv/5syNeG+rszYNTP9y1b0FrwXFSyrUmaJFB5YYt3G2ArZTjQq/ZpToaJYJTK6fiX/LwvkaPZGJ1hcoazVJz2vqCDwJx19p22JFS1t765M6cf/083Ygct3NV1fGP1SqDcP71a4/1y8YvjNeb8O1xfqXw9LNy+nfBsAAB4rBMSHoaRV5S6bxtqcRgCLqFNebanmu50aSgpGxc6RRNiyV8mhTvncnuhc1bJ4exX2VsvnXbnFbKn5pUJup8aVmDuvxBMNeR6Nuz0aV53ymo8sufSMskbl9J2Wrz0aSA+06M5AkxZUIduJKm3rOy2ftzc6d6Py7vYmBcgCFTVH/m7fZOTeu0qUQqVy8dyRQOioqUsKt1KWyxu5pr030rKurNNUe5OG3HpoLeab344oXH9Ep9+9rcYPRvTr/z0ie9ivC5clabeesczq5rexdvO/6b/qHbJIesYuiYAIANiiaDFvuArZDhRotq91iXAopTmPKGumX3fiocmj8e5RZeypVFrs0Ey//LFgNHBdQdmUnp3a3cPtyVUzj0IBadvOitSXH+iMB8+Fwe81a82MrCu7UjvUr5F4KPXoTt+csorqjOHB7lhVcuV7W2qqEv+HkmrlW0c1EZ+7V1Md/Zq1/9JsQSetLTw8KmXmJv5nD9Sm3x09uqrqoSTp8h/VeOycbu59S591faiXdFFv//aPiYqiJKlQb375oT7rOiJdOKULY9KOXYXLTAgAwOOPCuIyaj/t0StJmyrm//ahXn0/lZJQodKt0vzdFTaQhH7Y8I0UcYta25I0O70B82ZlKsOa3MKNCiR/GVUoqVoYbndqKPm0vUrlzVWRz4vbzzOhB/5PgsOJauIje1/24dd0ut6h6Qun9PbnhXrzy7f0WdezSRtRMlRa/5YCF07p7c+lSFiUpv8+suK0AAA8zgiIy2h756hWWWuKGtG9GSl9pUuila9YIErbaZMUWtPdDNktKnYVGM8NWmq8yln/zBErPFOYEuN5yEWilcr43FmZiWc0N9GvX3bIMnZRjZ9L0og+/+056cu3dPjdQn3zwW39GJZ23Dyn//48NiLSdv4xsPycAAA87mgxb7hezdyaU5Zr6R26kbZtqXbFf4OwTrvKtit4LfXgtTA9Z7akDXO6F4x+LGld9NMy6zBwXUFrqQqdq2hXr2ZuFSgnPnesTd+R+s/gBEOatf5C1mVb8bX6pKdHPZ/Wrn59z+xM7Eo+XKq9Fmn6zoikEX17c1aWpF3Ne9/9F9nDI/qW5w8BAFsYFcSHYMFbLb86jHZsfMfvZJOG2lpUXOtVuSvp3CrapQveVo3taUzMH6vMTTZpIuBVUa1X+ZI006+xQIF2xAYubj/XepW/xG7mpXk07pbympN2T2vxLue1WmLuQGd0w0qKJps00tchR+xv36DfWfzmP89p15dvqb7LET8WuHAqXjG8+UGLPnq3SfX1H6q0XlLYr4/ue0YRAICt5anc3Nyfljtpt9sVCKytV7aesZt9bwAAgCcZLWYAAAAYCIgAAAAwEBABAABgICACAADAQEBcgt2+Ub8NAwAAsPUQEAEAAGAgIAIAAMBAQAQAAICBN6kgZZYab/zVffE3wwAAgJ8dAuIWZKnxKmf60Qe0cLtTvtj9N3LifQfV9eJSM07o/Jmr+iL67VClSw0Oy33n3qh+XS/vXn4cAABYHQIiNt/gVR0blCSLmupcena0W7+5ZL5FORICJ3T+THc0+OXobHWO1DERueD2VR2Lfj5U6VLDyYMSIREAgDUhIG64CtlOHJc6Liq9tkpZkqRRDbuPKxw/36j0a06FimIt2zmNtVVrajIyQ5qzQ46y7fEZg91OjQ8sOm5vVHlZY+RzoFO+dk/kc3aLimtLlREbnHwu6f751tj35LWZbeTF60rF4fe+1qnnpf7/eVXvXUp93Ipsxfr33WF9154c+CbU0LH05Vcu3dAxx0E9t0/S4AatAQCAJwgB8aHYrvzaIxprc8o3GQ1dNXVGUMtyebWt77R87b2R85V1mmr3SCWtcpRNadhdHQltJa0qd3XoXrBaU95q+bwrtZjrlFdbqvlup4YGot+bq1TsHIleGw2HoU75PvZosTRnh4oy++V3N2kh+t1R26p7SQFyMxwqzte28Jj+OrWJiwAA4AnCLuaHJNidqLyFh0elzFylJV8Q6IwHvMT5CtkOFGi2ryMRyAaOaziwXTv2VTzwnmnOI8qa6dedgdgRj8a7R5WxpzJy75Jq5VtHNdx+fziU6rSrbLuC1yLhUJIWvK0amylQZknqf/fl91/V0aMbWD1cgzeqD8oevqEuqocAAKwJFcRHxZqpNCkevoLDSSFt4Lh8A5IUCYHzd9ex+ST0Q/wei6XttEkz3y97XprTveDab72pdh9U18no5/ANnfUM6cqmLggAgK2LgPiozIRWCGambTsrJMVCYoXSMyVNpzg4WqmM3Sttp01SSJK0cHdK2rPS4O1Kz5IUf+awUOnWFS5/RK5M/0MNjny9YBvSleXazEmbVAAAwPrQYn7o6pTnKtDsrUspBMRezdyaU0ZZtWI/5hJrC08kPW+4MD2XaBsnWRj8XrPWUu2Kt4QXtY0HritoLVWhc6l2tUehgJR1oCU+7/0t6wc7/N7X6un5Wu9Xpj7mgQZv6LuwRb96qViH4geju5gBAMCGo4L4kGS5vMpyRT6v5kelF7zV8qtDjmZv9EhkJ3HYuKZVY3saE9fEdipPNmmorUXFtV6VJ987+ZlEt5TXnLQDOmkXc7jdqeEab9K9RzXsjj2TGNnwkhWbKrqL+tH8YHZYLZ5uNdW51HByvxokxX7rEAAAbLyncnNzf1rupN1uVyAQWNPE6xm7le+d/DM246uovAEAADwuaDEDAADAQEAEAACAgWcQN1yvpj5+tO9IBgAA2EhUEAEAAGBYcZMKAAAAnjxUEAEAAGAgIAIAAMBAQAQAAICBgAgAAAADAREAAAAGAiIAAAAMBEQAAAAYCIgAAAAwEBABAABgICACAADAQEAEAACAgYAIAAAAAwERAAAABgIiAAAADAREAAAAGAiIAAAAMBAQAQAAYCAgAgAAwEBABAAAgIGACAAAAAMBEQAAAAYCIgAAAAwERAAAABgIiAAAADAQEAEAAGAgIAIAAMBAQAQAAICBgAgAAAADAREAAAAGAiIAAAAMBEQAAAAYCIgAAAAwEBABAABgICACAADAQEAEAACAgYAIAAAAAwERAAAABgIiAAAADAREAAAAGAiIAAAAMBAQAQAAYCAgAgAAwEBABAAAgIGACAAAAAMBEQAAAAYCIgAAAAwERAAAABgIiAAAADAQEAEAAGAgIAIAAMBAQAQAAICBgAgAAAADAREAAAAGAiIAAAAMBEQAAAAYCIgAAAAwEBABAABgICACAADAQEAEAACAgYAIAAAAAwERAAAABgIiAAAADAREAAAAGAiIAAAAMBAQAQAAYCAgAgAAwEBABAAAgIGACAAAAAMBEQAAAAYCIgAAAAwERAAAABgIiAAAADAQEAEAAGAgIAIAAMBAQAQAAICBgAgAAAADAREAAAAGAiIAAAAMBEQAAAAYCIgAAAAwEBABAABgICACAADAQEAEAACAgYAIAAAAw/8D48q3PX32mwIAAAAASUVORK5CYII=;" vertex="1" parent="1">
          <mxGeometry x="80" y="407" width="648" height="484" as="geometry" />
        </mxCell>
        <mxCell id="7cSqvC8ZbpraNBw19sRG-11" value="" style="shape=image;verticalLabelPosition=bottom;labelBackgroundColor=default;verticalAlign=top;aspect=fixed;imageAspect=0;image=data:image/png,iVBORw0KGgoAAAANSUhEUgAAAOkAAAD0CAYAAAB+fwGmAAAgAElEQVR4nO2dbUxc17nvf60iIQt7jDkoQ1AnhsGXJKCABwuM7g3E5sYyxxrVqCbSPQ46EhU0qtxaufje8KECK6B+cG/tW6VFRylWLVXY50jGvThC7lipIIVUIiCDIYIklhlwpiJMxBnjwcjiU++H/TJ7zzswwAY/PymK2S9rrb1nP/t51trr+a/vvfzyy/9AEATL8v1UFWSr91DR1oM9J1UlJksTuW0eKs53kLbVVQvCFpAyIxXWTkPdWXovuGm1b3dLBCvzPQl3twMHVy5UwvgEdlceX3X30eHf7jYJVuUF5X9N5LadIVvb6r3FcHeX8u/STioK7zO+eBJX+V4AlkcuMeUZUPbndFDUWMY+AGaYbj9HUCuntJMKN/G3lXZS4c5Xdz5l9mod/vlQA9NqevR6ARb6apgbi7LP2GYNU9vWeF0ANPLbOz8i3/snTv3savw7qWOjtcnNqzN9vNMfjLqtoa6Ex9036KCI664kixWeW74PYKs/TKC9huH2Gobbb7HgPENuqeEo5xlcWXeV/VdHofxcqO8538qUun05vPSx+yyQT6ahrLQX7eC9rxhoTgdFbjuzV9W6+/zkNXZi0w7O6eBQuZ9pvW0hAwVY9dQx3F7D+MjTKJfWRG5jGSt95usqqjke/br6ZthXXheqe90E+etMkPR8B1X6tv0csAX5akox2ms94jmF5Pk+QLDb4OnoIuCF9BcND/PSKOOaB5rvZ3FpL3uySYIuvh15SnZhk/r3cTIKYLZfKSut+DUY6Qx5zrEeZpfMRg3hfydHWs1JspdG+VY36i7m+mbYV1AdGmAyXtfYfRaws8c08HWVn586tQYvqjDYP4HXlsebWl+zOBfnowkxTGFdKOGuKeRUWF6Mf6JixAPxDwJWJ79kufEwNiCYU00WX/JQNcq0rL3sc7ZQUd5iOmdB+8d8K1N9nVS4PWS7UYzqw1ZWE9aqEvgm+WNTio8vHlXyVpEN/EEaChx4HwxtS0uEnc8LSsiZb+rr2eo9OBKcuPJdYgMFVM/bQmYprL74GjzoNBlOZD8wjLFzDBva5TrfkbyhZr5MGujHpr1oBwLJtXuDXHvg4/RRB1X9QV4/6OOLni2pVtiFqJ9gnvJMc1+lnRQ6Y5+QVnOOvIwZAmOxjzEzwNKDp6S/2ERGgR+fwSCD0zPsM/ZvE7C6GK3vGePYyS9ZzijjJT1UbuKl8r0sfLYGT0wjv71zhzu/a0z6DJ3JOby2TPKLc7GPT3Bt7SUIAgAvMN+Kz+uhsNFDHsDSKLPefLKMR2WU4WrzqH+YR3DDR18L2zwRx6x67rLSdoY87y2GjeWOnWOYTiq0usPKDy9b2acZ2XHs51vIy9D2naGi7UxoBHe+lamrHRQ1eqhwK0csj1xiKumXy0bx0TteQvMJuNcdNO2pqnbT7AoNUR2pP0svQe7JpxghCom/k5Z2UvFGYG19QUEQUobMOBIEiyNGKggWR6YFCoLFEU8qCBZHjFQQLI4YqSBYHDFSQbA4YqSCYHFe0HJJ6TOngYWjzf5ZSHBcImz1HhyLCebrWgDTrKBHQ9T2+CIPshdxvb6E9Fj7t6B93k9u0Dy5pVVbkoa6s5w+qPx7ZdyYywtakr0y23Xnzex6YbsbsH6UROojxgTQFBrLYH8fg/2qMWSmpMg10VB3lrcC4Q/b1mCetujj9uWhFM09Vn6zA5+n/sVyrecG11DvW8ReH82Xb6AYa0lqK94CkjbSVU8dw57Ex201IU+ivC2vV2/hg+2f4p3LU1tTVxjaSyTVKB7Jx+3LfaphOrhS54AtjhSEEJFGqkmO6LmbRmmV6PImh+jEl9WiZ8+YQ+LwifCRuarHLt7k/aMw+uu3ubjuB+8Jj4Ng1vQyhjlhYVBxJb0Fc1wJlOheIzJMik388AoiPb3ZI5m9VSgEM20/6KZXk1fRo4TEoZuxbeZjbLQ2VcHHExyo18owtMtexFsHg9zrNnpOH809Gy/bdN6Js/SeCLt39iKu12fyl8tzvK5dX3CCK11TDCase+PEix60qOYjqvRjtrKbYTZS1UBX+moM2SJdzLV3MUcTuW0noxayr7wFx8glhrsHlL7rGx18O6ZMyLfVt5AXuMXwh4oCQjK5quvC7uBVG/gXjbpCldjH+6jtD6I83G6uLBpu7sFKmhmi9rJPfUiqaJ1K7oePH16pBvp4iNqu6H3ZWgapvay0taraTfMPi6jqmtI9ZOxwN37oVlXt5vSBCa5cVh7uqmo3zfWVNOgPnY0j9SXc675BrV9p51vVNq71B6kqyiM9OMtfY1z/RspW7leicNfB6Qv71fOVl1Ft8RSDk8nUvQGKK2l2PdGjh6pqN81NRcwYXhDpLjfNj5RnparaTfPRIqomQ/s3k9Do7oshA13zwJD3lj4QpORxZioSJTkdOJwzTIcLhIXx6Qdvc+rU+ryo88RZei+cpbc+j6+6DT++3cGrTPCR/pD76B0P4iwwvCKCE1zRwji/j6+CNg6kQl6zuIQjNh+3Y4WI/imaDcY3ODXLii2T/OhHrwEHtS4b3s9DD89g/yD3gg5eLw4d5f1EexGpekyZ+7e57Gjn+/jiEdizbEnXvV4aChx4PwkZe4T8DZieldT9Xsmhe9Ls8jJgBt+W5VumBiXsUNX4VLkSAOyZpNscNF8oodl4wqP45SkPxcb6tFVZ+yE4y0zMI6IMepGqPl+Qx5s2crmZZQP4+MLgYbVoBfZvYt02fnBAfdmfMG4Pcs/w18qML+Q1/VO8c3kz2hId3UgX+moIFHooXIs8iWUI0vG5j94TJTT0G8KfsD5NMoTC5fUzuPiE5jiv2YY6N0cIhW5afyw1qNGA/kDv50CSEoiDi09oduXxpn2KwagGsf6yN87m1m3lT1mmyQzB7kvMUoarvinW8Wtj/htWDGp/aTU9UaVZjl28yZ07N/mgegN1TU5wL+jgrWr1l5ucw2sr4d3q5H7JquoqjtjMb/L1tyWJuh8H1ZeHjdYflpAetnsmEC4LmgxKiOg8WqSfV1VdgjM4QW8y1zU5wb2gjSM/LDLUq47ubrRsAIL8/THmLkdSpKLu2G3660wQ54lKGjZa1CYRNro7gP/DQ+xpO0NF22FFxiRcSbDRQ16UUd7odDHXdzik9ue9xfjISQ6l+CIUNG+qDf74aL48xJULhhFSwt6YthJDOGwc0QsPRyvpvUCMEVb0UdjQKG+0ukPlXxua4K16tUzAOz7BisvsSQf7B3kz3x1qn1Z3cSW9JwwPeZj0yrWeG1B3Nuy6ko0mgnR09dHa5I64L7DRslHLGOL1C6FrT3ZEPX7dCX6PBPdssL8PcNN84Syn9Vux9ihss3h+80mLK+k9GrDMDyEIsZC5u4JgccRIBcHiPL/hriDsEMSTCoLFESMVBIsjRioIFkeMVBAsjhipIFgcaxlpTgdFbZ0pWG1bEHYPqTHS0k4qzneEVtDeQmz1Hopqjic+UBB2KNbypIIgRPC9//KTkX8c4ktWysvIZobpPih054fW+QTFU+qT7A2T6zWplYhijeuThsmn6LIsRCk7/NzwNUpDdUeuXapibLdJ+iV8n0JqpFsEYfN4AWBf+WssXr3EbF0LhW+MMn41wKHGw9iAYE4HRW47s1drFMMs7aSisZNn7ecIzrcy1U7cNUzTauqgp4bhedAM9lDNcUXJIbzsnA6KGg3ZIDkdvEQnw+0Dalk9uOo6WPqwVRdGiycRaqs/TKC9hjlAM9jc0q4NSZIKwlajhLveu3raWfhy9WnFr8FIZygtbayH2aVQjmgiVj3nDCltAyw9eMq+LCVZzVZdZi47nPlW5gzGZ5JmSYJg9zmDxkIXAS+kv2juv25EukUQtoKEkp5pWXvZ52yhorzFtH0h2RqihcTeZE+OVBokjihJBBGhdKRSoSBYnaR0d5dH1qs430RuYxmMXGLYYwhZs5I721bfQh6jjLer3j08HI5HTgdF7nyTvOimKRUKwiaScHQ3OD3DvvJz2HPiHLQQYDnjNTJiHLPynWrgOR0cMgz2rC4+ZV9BtRq+KgYdMQgV+EYNv49jr4vcby4jnKc801x+aefmSbcIwiaS2JOOnWOYTioaPeTpG80jsMy38nCkB5d+jLa/i29HTuLS5FOYYXbkKftUT7rq6WS2oAVXmwdl5PYWC42H9VqC/aMsN56hou0MAAsjoyyXmz2puQxCI7jzrfi8Hgq1Ni2NMuvNJ0knLgiWQfJJBcHiyGQGQbA4YqSCYHHESAXB4oiRCoLF+b7TGeW7hCAIlkE8qSBYHDFSQbA4YqSCYHGSmrsbF9ME+rCZSImIk+KWDKac0ii5ooKwG9i4J51vZaq9huGroyynoEFrYdVTx3B7DeMjT7e4ZkHYOiTcFQSLs/FwNyEJ5FMwh63haXFmmZQ1htPh8ilR6hb5FMHqbLqRxpVPAcgoozDrFsPtXWr/9hz2yQFdqsVV7me6vY4gqsGe70i6D2urP0O6IZdVEHYimx7uxpNPARTvpg34zPezuLSXrGJF4sRWmM9CX8hzrnrushAnbzUasXNNFUQ+RbA6mx/urkk+ZYBnAU2m5Th7MiFbz0XVeMpsklUHuy8xez6Ua2pUaRCEncImG+la5VMUw1yZHgAUb7oxwxrA/+EAflBfFh5yEUMVdhZbMrobSz4lgtI68jJmCIyBFhpnu1O07MT8N6xE2SzyKYLV2bAnDRepLmzzkKx8CgAZZSHpk7DR21VPHeP0GPZjGKENVxJUZVb0SQ1hI7uoI8fiRYUdxveOHTv2D683aY1NQRC2GJnMIAgWR4xUECyOGKkgWBwxUkGwOBsyUpFeEYTNRzypIFgcMVJBsDhipIJgccRIBcHiiJFuFvYirl+opGG72yHseMRIBcHibIF8SgJKO6lw5+t/GlPT0mp6OEQnvqwWfQHg0P7j2M+fg5677GnUJtJHkVep/oCb/6sMPv8Vb3/waXJtKq6k9wTcvjzEtVjb7EVcry8hXdv/aIjaHh/g4MqFSrSPU6cvnOU0AEHudffR4Ve2V1W7aXZp+T0+c12CYGCbjbSJ3ML7DLefU/4s7aTC3UlgLGRo+8pbcIxcYrh7IMr+veQ1nmT2qiLPYqv3UFjftHFpz8k5vCcqeb0YmFQ2VWXth0cTqiE5uFJfgv+TGzRPqn9fqOR6dR/v9PtovnxDNeJM/hLN+IoraXY94fblPq6hGmxTETNdUwxurOXCLmSbw90u5owGNXafBezsMcqjeG+F9JCi7F/oq9PlWYLTM5D5slkupf8ib586lbwXBcBH73gQZ4FD/dvGm/lwb8gHQFV1Cc7gBL2ToeObP/GRnu+gKonSGwoceD8JGe9g/wReWx5v2tfQROG5YdvDXVu9Rw9lFRLJo+xlTzYwH2N3RiZpsC6xbSODU7O8W59LAz6u2R28yiwf+Q0HPA6u0+vZ+MEBcJ44S+8J4/Yg9zbSYGHXsq1GmlbTQ6HT2I9sIrftZIKznvJsIc7upcCGDRQAv4+vgiW8XgxVWXkwM2g2ygM2qkDfVpW1HwgkXbxXD5UFIT7bP7prMCpbvVlJIRxb/Rmyl75kKaoXbSLXnc/yg36zkVZ/wM07d7h58dgaGxbkrzNB7FkO3sx/wl/6Q8NRg1OzrNhKqC3Wtjioddnwfm7oU/qD+HEo/doo5TpPyOcZITm21ZOueu6yUH5Gl0dZHhllwfma+SCnKosCUcWtjWqC4cLaG2Wwf4LaC5UceTREh3GHf4p3uuF6fShkXRnv4x2TZ1T6qb16WBsa3R3s7wPcNOsjv0BwgisycCREYUPyKU6nk82UXlGUBe/GGK1VNI72fCbqf8LuZvvDXUEQ4iJGKggWZ9s/wcRj1VPHcMy9ivC1IOx2xJMKgsX53ssvv/yP7W6EIAixEU8qCBZHjFQQLI4YqSBYHDFSQbA4YqSCYHHESAXB4qiTGcLW8jROZC/tpKLwPuOLJ/V1SMMnspvXKI0iYRImkRJ+/rGLN3n/KIz++m0u9qf4CgVhh/MCKClg6SOXGI6VQeI8g4tbDLd3qcvan8M+OaAoIpR24ir3M91eRxDVYM93mI3cbWf2ao2uoCAIQvLo0wL3FVST5hmInjC9NMq4loky38/iUpmujmArzGehr8awOvddFspPkpED/vnj2N/IZ3nkUlwD/fSDt1mLuIkgPE+8ABDsvsTs+RY9r9Oo2BeL9BePA7An05zTqaBJoBxiTwasfCdzbAVhvaieVJms7gc1nPWQS3xDVQxPMdTYRv2QZ0uwJ7VtFoTnisjR3flvWIlzQlrNOfIyZgiMAQyw9OAp2e5ObFGPTrRf4djFm9y5c5MPqtfSdEF4PnghYmQXdfTV6BkzyvRQOHz0dtVTxzg9hv2YRoej7U+1zIkg7GYSZ8GUdlLxRiBCW0gQhK1BJjMIgsURIxUEiyNJ34JgccSTCoLF+b7T6Ux8lCAI24Z4UkGwOGKkgmBxxEgFweLsfiPN6aCozUNFfdN2t0QQ1oX1jbS0k4rzHebVuwXhOcLSy0ykhPlWptq3uxGCsH5SZKRx5FfWK82S00FRYxn7AMiPMcFfWf4wLyNavWCr91CofmGKJvlyiE58WS36MeaUu7CyvbcMSzCGll0MFGp1PGX2al0ouT2BZAxA4+/u8CPnDH869XOuJrzHwvNKCoxUMcLo8ivHsZ837lMebld9U+iBN0qzlHZS4a7D5hkgqHnAOBP802rqoKeG4Xn0sg/VHNeNIdhdwzCKsTqitHxfeQuOkUsMdw8osi9vdPDtmFKPrb6FvMAthj/s0ssuqnloMrRst0e5tu4B5YVQ3YS/u0u5JyIZI6SIDfdJ02pOkr00ysNoqWeldeRlzODT9w3g7xll2Xk4lF9qlGYZu88CdvbkJFf3quecwQiU3NV9WYeSb7z3lm50q5NfspyRqfZ9m8h0zjCte84B/J/NKBIzMc4PTs9A5suG/XvJKj4et/qrPzvFKfGiQgI27EnTsvZC4JvYaWxLgc1LcTOFxCqpWHg852XSySfbmCMLsBQw/bkwbViBfOwcw3qo3MXc1ZcpamyhoryFqAqKgpAkGzbS1cWnkBXnANU76YaanWk2qnXTRG5jGRjC7LSaHlzx2rImNmhYhgGrtJoeXG2dYqjCuthwuLs6+SXLzjPklkbZOXafBfJx1Ghhn6Ye2JP8w7oQYDnjNTJihMC6yFlOB4d07d8NMt/P4lI+hSn6trr6nT/q9sbf3eHOnd/SmJJahN3KxgeO5luZuqqIl1VoioH6KGsXc+2Q26aFfSijpGuRTplv5eFID65GD3lAyMN18e3ISVy6UuEMsyNP2ad70rBRZafShuSkWwbwfwicb6Gi7Yy+NWnZl7CRXW3kV7yosB6+d+zYsX94vanoyAmCsBlYf8aRIDzniJEKgsURIxUEiyNGKggWR4xUECyOGKkgWBwxUkGwOGKkgmBxLJH0nVbTg6t8b1Lrou5+bLQ2uTnw+Q2aJ1NfelW1m2aXmoP0aIjaHt86SnFw5UIlmhjsyngf7/RHzqdqqDvLW4Ho+yxNcSW9RwNc6ZpicLvbgkWMVNg6Bvv7GOxXjTVzfWU01FXiXLeBWx0brUcdeD8fSp2BbtDoLWGkq546hj2JjxOsgI0fHADv57vRQAG7g1eZ4KNNiGLWyzYbqXESfJj8CE3kth3m2YidvPK9LI/cYrHgDHkZxuPiy6dEzTc1pKBpYXb49hCN/PbOj8j3/olTP1tjanZxJb0nQnoQkSGhOWQkOBH2pjXu93H78hDX1D2mkBXwfmIOjRvqznL6oF4w97r76IieiBOJvYjr9SWka39HeMz9HIi5IrQSqh8x7F8xpeDGCpOV816dMd6jyG2xr8vBlQu5fNEd4C2t7eH3M+HvodBQWQIzfWHnYbr/Edti3TPTdgfNF0poBsy/Z9g9ixKhbLORdjHX3sUcTeS2nYyyP5+8rFsM9x2mwn2Glb4apgs9OIqP458fSCCfchx7nSHftLSTCred2auqIZZ24ir3M91eFzLY8x0pWofVwZUT+7nXfSOGcSgPq328j9oY/TXniRLudd+g1q/8iG9V27jWH4TiSppdT7h9uU/5kYsr6T3hptWvPLBV1W5OH5jgymXlAa2qdtNcX0mD8SGL1+76Evy60SvtvF7dxztTDvODeOIsvSfA+MA11Lk58niI2i7lIWuoO8tbetk2WpuM1+zgygU3VxZv0DwZ5K8zQY7kO6jq1wxrPwdsQb6aUu5P4utycLoebl++wTX1wX+32segVlfc30PFXsRbB338pcfwm0zO4T1RyevFgPoirMraD48m9Hpj3rP+Kd65PBU33DXfM6XdyrmhNlh8dPcps/2q+sHSKN+GDSrFlU/JqSYr4ymLk2pq2dh9FtjLHjV3zVaYz0KfccXyuyxE5K1e5eenTq3diyo18GpRdJdTVV2CMzjBR3EGVLyfaF5CeYDTM/ej9ZdWxidCBjc5xO1HWl0Oal02vJ+HHobB/kHuBR3KQ5YArV29ulf20fyJj/R8B1X+Kd65fIPay0N4Ubx3rfq35k3eOujjdqx+qhZG6tfso3c8iLPAobZzAq8tjzft6u7iXJyPJnRPmfi6gtzr1gzWeM80Yv8e+vUX5ZH+aC7sZWZuJ9h4Mx/uDfkS37O4tSnX9brpngXp+Dzy3BR40mN88B/vU2a4/pn/d4qfd8U+I2XEk0+Z/4YVyshSvS6lh8lmhukxgOPsyVSExLLdxpOfMpuShvlo7p7ger2bXpfytzFcys+0wePgugcm/IvxRkuDPE42tI3GBtoVF3sm6TZjyKfySPuHjy8eVfJWkQ38QRoKHHgfDBkOXMd1HbBRBQwm+D0UHNS64F535EtmcGqWd+tzacDHNbuDV5nlI2Nb1nvP7DbsOHBeOMtp4/agWaYnBUb6KRf/x6cbL2bNJJJPecizJcguDyWcL/TVmPqcm/rJx6+GOqih2YVKUB+MmUAQ1jmyCmDPsgGhvtsPDgD672rjgB3QH6J4fcgo6A+2QlXWfmPhGyOi323m2gMfp486qOoP8vpBH1/0GPeu47qMxhPn9wAUzx2c5Uq0F4Hfx1fBEl4vhqqsPJgZNF/Dhu5ZtBeGGYuHu4mJKZ9SWkceo4y31zCs/hcySCU0znZ3Ev93buS3d+5w53cbEzgZXHxi/ntqlpWDlVxJIgQ1o4ZxrhIatE3FJRyx+fhLfxDFG4HzaJEeLkWGY3HaOTXLiq2EWr1dkWFmTPxB/ITCz6pqt2GQB6VvZyvh3eo4d3xyDq8tk/ziXOzGkH6t12Uv4l2XDe+D6KF3+O8R+uwS6zqV+27PcvBm/hP1XqtlJXPP/AFWjKG8vt3HV0EHp+uiCc6G2N6Bo3CZkUYPeRGjvLFIIJ8y1sPsGy0GUW0FzXuueuoYp8e8P3x0eL2EjSRqI5H6Q+ef4p1uuF6vDb6Q0MtoDPb3AW6a9RDJXPa1nhtQdzZsJFErN3z0tZLeC4RGFKO0a2W8j3eS+hyh9MV6tQGlR0NcGS/hXeP+y0NcuaCFnArmkWkfveMlNJ+Ae93mkD7+dSnXdqT+LL3Ryk30e9gdvGrz8Zc41znYP0HthUqOPBqiw7gjmXvmn+Kj8Tya9fZp3jNIR1cfrU1u5XfAcL7hRbB75VOiiWqXdlLhRlT7dh0Orlwo4fFaPjUZsPrMKEtMZtgM0l60E94vsBXmw9Lo5ukACzuSaz03kvg8tX3sWiNd9XQyW9CyOeGsIGwhuzfcFYRdwo4f3RWE3c6GjNTpdCY+SBCEDSGeVBAsjhipIFgcMVJBsDiW+ASz++RT4uXJEpYYkOK1S5MqW23fTvokZcrNTDzfdTdhCSO1HmErsoGyGlx3sqk9CfJktbVLczooagybaR8lsyfp1dwSlb0D0BK7wxPZ9Qny9iKu1++869oIljBSq8qnhDy7klBeUc8aDHUjGL1vE7ltLRRB8oaaEO0lYjXU/MpP4HSBAyZ3qUTLGhH5lLjyKRoD+D+rI899GCVJTPGQzwzttdV7cCyuweMljZpIUFBNmmeA1Yh2ry3lznRujOggevnKb4WprmjbNiI5k4szGKB3Moj3hJq/mfCkWOqKYfN5wybZe8OUFDB57vBt4YkJWxtui3zKpsinbCJh7Vauq4dnC8lkDoWiFnPubQjFQA3l63QR8J6hsLCJuTHVsE2J9BunocDByswEg8CbmupCwgycIH9/DK+acmzDcXClYI7ay2oSeXElvScqaZgc4pqaBmfy3MW5OPFxW5NLqa4yycJsNRYf3d1u+RSNJnLd+SyP9Gx99oyaJ7vwWSurHMf+Rlg7xs4x7d1LVvHxFFTWxEvle033xUiwf5Rl52E9B9dWGO2erFdyxsHrBzVNIyV/MyRZEp+ZgFG87KySp2u3YecJf/cD+Gg2yrpMzuFlPz9Q8zuvDU2wcjBXz9FtKAiTqAEw7N9qLNEnXTebLJ9i3L+mwZsNs5e8Rg956l/h4aye6J5qcl4mnacsLsTYP9/P4lILmaUQHGsi0zmDrztFbQlTRjBJliQ4dXDxCc0F+8Fu48BjH2TZFAWHYIAZ9Riz0iBAkHvaPw3KC0wq/WKjGNlgfx/5mWc5rebwxlIa3Cx2sJFuvnzK9n0Sip/4nv7icUAzDuWFw2IKqp3/hhVei3PAAEsPzpFX2MQch8n23k/Z4FNDgQOiaCAlFfL6A6wctdFQlAcPBnlc4KDKnkn64zldWfD0QWM/UumvhlA8d3OBA8jF+WjOrMOEMZ1NUTm8ztYZqsXD3cRsrnxKPEKhc1pND4VbMo1ZDenL60LtLq0jL2MGX0q8fBcB717y6jpIi3HEqucuC86TFL1hD3VFTKxHckYV3NYVCJX/bj8i6ZAX4AeZT/hiMsjfyaO2YD8rAYNMismrGvSOVQb7J/AeLOH60f26EmB0nvB4i/s8Ip+yrnzTLub6DlOh1e29xbT3DPrjlOC6wkdPC95s61YAAA0MSURBVNs8JDupIbLdSrnaefHLDhsN5wwVbWdMo7zB7hqm6z2m+2KOKJQBpOzMUR4mMVCVFDHkS6498HFaHeWdCRMEV0JP1Tv6g/htlRx5rEqbPHhC7wkH3gfKXRnsn6DWVal76ZXxCbwH88yVqWqFzgMT/NWk7hAp+M2joZh6yZvBhvJJnU4nls1FFfmUTWPzPjdtL1aVUdnx4W4sFPkUM4p8SsDan1isTmknhc5UhdcWoriS0wd9JiVAq7CDB47iI/IpKUYP4c3h9Y5Hn+QQpiBoIXZvuCsIu4RdG+4Kwm5BjFQQLI4YqSBYHDFSQbA4YqSCYHHESAXB4oiRbhfFlfQ2FSWxGrTwvCNGKggWZ/sn2BfeZ3zxpD4pPDxv0zxh3DD5vrSTisIAs5lliqRK35dkucvYZ5pVZBYUi5YTeuziTd4/CqO/fpuL/ck1u6raTXP+rGk90fBtVWETwnW5DpPqnSNsvU1jKlUoU2Or8xcFa7H9ntR5BlfWXSWdrG/GnIaV08FLdOqpZuMjmNOonGXs+ayGae9e8tyZ+NpvGdQVjmM/f4b0kUvq+bdYKW8ht3TjTVZWdzav3JyfaWNlxqcYbXElza4n3NbSrj7x4TzhptWOqnqnbCM4wRU9NUszUButTZXYx/v07X6Xex2rggu7he030qVRxjUxrLH7LGBnjyZhMt/KnMHzrU5+yXJGZshIDZIqETIeOdVkMcpD/fwuvh15SnZhk6n6Tz94m1OnkveiAPin+MsjG68Waa8TNZu/P4i2tLtJfmNyiNum4+Ngd/AqE3yke04fvePJS4kIuw+LT7APz38E9NTdBGRnsi8jPyKflBRNNb72wMfpow6q+qcYLI7M5vcvrjM8tWeSHkWhgEcbaKywo7G0kdrqW1R1BbWPuVbB583Mepmcw3uihDftU+QXOPA+GDLttpvU6xTlgbCFx2MTnDD1d4Xnm+0PdxMR+EY1MkWic1+Cw3XG7rOQUcahmvgqescu3uTOnZt8UL3Whvn44pGNA3YHrx+YoFdXFVD0ctJdJSF1ueISjtjCchX9gYh+LaAYv62Ed6vXL+wi7C4s7UmD/aMsN6oSH8DCyCjL5cl60i7m2iG3LSREBqkVF7s2NMH1+koY7zN5vcH+PsBNs6ouFzVX0T/FR+N5NNefpRcIje76aL48xJULbnpdocMjll0Qnhskn1QQLI71w11BeM4RIxUEiyNGKggWR4xUECyOGKkgWBwxUkGwOGKkgmBxxEgFweKIkQqCxdnlRnoc+3lPSnJIBWG72OVGKgg7H8vLp9jqPYYFes1rl2pL8D3knH6+NoHedJ6+hqm5/PC1PCMn3zfy2zs/It/7J0797Gpqr10QkmT7s2CcZ3Bxi+H2LjVf9Bz2yQF9sd3CzFA+aVpND67GTp4Z1hfdV96Cy6ucn1bTg+uNDr4dayXYXcOwmjS+57MomS85HRwq9zPdvotWCBN2Jdsf7hrlU+b7WVzSlrlv4qXyvSx8FkraXvV0MruUT2Zp9PMj5FUSElZWBFf5+alT4kWFbWX7PWkU0l/UErWf8mwh/rHLD/pDygvzrUy1J1nJfCtTfZ1UaKGwrF0qWJTt96RRWPlO65NqXlXjEHsyopywXsbO6UqE04EyXOc71uCFBWFrsJSRptWcIy9jhsAYQBcBL2S/ETKctJqTZBsUAhMzwLMAEQqB0VhdfBplayO/vXOHO79rTLZCQUg52x/uZpQZFP1mmDYMCgW7a5iu94TtX1tIGuy+xUJbSIJFG90NH9ldT9mCsBVsr3xKaScVbwSkLygIcbBUuCsIQiRipIJgcba3Tzp2juEUyWsKwm5FPKkgWBwxUkGwOGKkgmBxxEgFweKIkQqCxREj3UTSanqoaBNlCGFjbP+0QAujJZUbk9CtjjlJHsKnWm6YTZwl9sovWnmvLLS4ZXD097T88mGM/Y/4uLaTP6e4DVZEPOkmsuqpY7g9dUstJo33lp7dMz5ip7CtE8uvdvrjc7z3ykN+U/s+P619n5/+ZhzK/oUfHzPsLwvwsbr/49mD/PCP/8Ir29rorWHne9LSTirc+fqfJvmVnA6KGg0LD3tvMawlmMeRbjFNvnca1jc1nk8TuW1nyI5WtmmfWfIFlDD4EJ34slp0r2eWbjGXHXlNmfja75OpHRMnF3bVc5eF8jNklkJwLEq7TeeGlCwChZpHVtuP8V7mx0yKWK/kzCsvZcJ/fsXX2oZPv2PxvUPqH4f48bGDBEd/r3vOP98e59h7h/hvx+DrT5OuZkeys420tJMKt53ZqzUmI1BoIrexjJW+GqYMD2dRzcPQA2+UbintpMJdh80zQNBTx7Anfrhrqz9MoL2GOUJl55Z2qYbWxVx7F3M0kdt2MmrT95W34Bi5xHD3gEn2ZZXj2M+fIX3kEsOeAbXsFnK/GzAYcT6Fbcp1D88rdb9UShIeO7xsxShd9U2GFwxkuz3KMd0DSvhc3YS/W02o36Rw9+u/PST43kku/eIRLb98yD//35M4g+N8/CnAQf7JtszXf9NC3//O/37PhQ34Jyewy410B4e7x7G/kc/ySGcUA42We9rFXN8M+wqqQ4ndRumWsfssYGdPTnK1B7uN3kPJfQ0pSiSB95Zu/CbZl5xqshjlof5i6OLbkacRObELfZp3jl+3rf5M6D6U1pGXMYNPL3sAf88oy87D5nDY0Lbg9AxkvryGZPh1Ss58+u+01P6er1/5Cf/W+yt+yF1++q//HvKsABzix3/8Ff/WexI+fp+PZyHrpUMxCtw9bLsnbfzdHX5kGOhY+fxXvP1BMq9GRaUhpOIQhcA3m5cCFxZmAywvpqDc7Ez2ZRjDSRVTRqCWGK8Q7K5hyrjbGcqfjQiFlwIJ78nCdMirbtn86mP/wqX3XCx+/D4//cMhfvzHn/Bvva8aBof2UfbeT/B+/D4//QMoBguLXzyMW+xuYNuN9OrPTrE+ma+HPFuCPfEOUT2A9lCmvWgHAuuqzUROB0XufFM/0lbvwbHxkhU2qrdk6h+HoXpsvezszFCffRv559MubLN3afkDwEP+8K+/hz/+hGO/OMSff/mI/wxC1te/5//8QTtDCYH/cwPpzDuFHRzuDrD04CnZ7ugjl0oIWcZL+jfKSPXBRKwuPjWHxyYMImmlnWGfPTbA2H0WMso4VLOG0HktZZOPQy9b6zL0JP+JZiHAcsZrZMTsFmxAcuafXgyN1h4r4xUbLH77EHjI375exmYY7X3lF/8VZ/Ahf9vl/VGwgCfdCKueOsbpMYWG+kjofCtTVzsoavRQYRTGXkPoturpZLagJVS+5qHmW/F5PRQ2esgDWBpl1ptPlnZieCjc6CEvyihvdLqYa4fcNsOoMtGEu9dDlLK9t9RBpCSZb+XhSA8u7dpT9B32z//z97z0x5/wXq9L3+b9+H3dc379yw5+84tW3nvvV5S9BwTH+U1En3V3sr3yKYIgJGQHh7uC8HwgRioIFkeMVBAsjhipIFicbTVSpzNV3y0EYfcinlQQLI4YqSBYHDFSQbA4O3rG0W7FqK5gyiUVnkvESOOwXfIpwe4ahknxpH2A4kp6T0Qr0cfty0NcU/+qqnbT7LJF7GuoO8vpg7HPEzYHMdLnickhaicBbLQ2uXl1po93+s2zbhVD9HH7cp9qfA6u1Dmgx6cc8GiIWvXfVdVumi9UghjqprKDjfQ49vPnoOcuexo1ORDjZO84UiDqJPfwNUq1SexJyafEk2Yx1J+nr0xunohuFgxLdvJ9iGMXb/L+URj99dtc7E/+vLjYi3jrYJB73Uaj89HcE/3wwf4Jal2VvF4MTKaoDUIEO9hIAfaS13hSlRFRH/ykpEAUuRRXuZ/p9jrFcEo7qXD38GyhDn9C+ZRE0iyqgQZuMfxhZF5nWk0PhZmjjKuLFqfV9OBq7ORZKlX91kFVUR7pwVn+6t/GRggR7PjR3ZCMSAypj6hSIFHyKMfOMe3dS1Zx4jzOhNIsqkzJdNTE68i81lVPJ7NL+WSuQZ/30w/e5tSpFHrRddBQV4kzOEGveNFNZYd70iiEKQ9ElwJRDDGu9Eoi4kizpL1oh6Uv4ySXGxLGdxoHK+m9oP47OMGVrikGt7VBu5/dZ6RJaPhoKOJdmqEeZ08mkKxOURxpltXv/FAQ7+S97MkG9D6oote03QwuPqHZlceb9ikGY4W8hoEjYWvY8eFuiCZy3fksP+hPwkgV6ZV95XUh6ZUIJb3Y8ikJpVniSqAo6n7Zb3To5UaGz4k5dvEmd+7c5IPq5M9JyOQE94I2jvywiCp9ozq6K2wbO96TZrs9ZBvlUZL8phkpvaKMsAZNx8SWT4kvzRJNAiU0uhvsrmG63hMmMK31UcPEq9XR5a2Z1BCko6uP1iY3zRdKaAa0b6HC9rGt8ikbOz/0iWXLl3EQhC1kF4W7grA7ESMVBIuzg/ukA/g/lInnwu5HPKkgWJz/D8F+8ZmsR+FmAAAAAElFTkSuQmCC;imageBorder=#FF3705;" vertex="1" parent="1">
          <mxGeometry x="460" y="450" width="233" height="244" as="geometry" />
        </mxCell>
        <mxCell id="7cSqvC8ZbpraNBw19sRG-12" value="" style="whiteSpace=wrap;html=1;aspect=fixed;strokeColor=#FF3705;fillColor=none;" vertex="1" parent="1">
          <mxGeometry x="100" y="580" width="250" height="250" as="geometry" />
        </mxCell>
        <mxCell id="7cSqvC8ZbpraNBw19sRG-13" value="&lt;font size=&quot;1&quot; color=&quot;#fffdf2&quot;&gt;&lt;b style=&quot;font-size: 16px;&quot;&gt;POD.YAML&lt;/b&gt;&lt;/font&gt;" style="text;html=1;strokeColor=none;fillColor=none;align=center;verticalAlign=middle;whiteSpace=wrap;rounded=0;" vertex="1" parent="1">
          <mxGeometry x="546.5" y="407" width="60" height="30" as="geometry" />
        </mxCell>
        <mxCell id="7cSqvC8ZbpraNBw19sRG-14" value="" style="endArrow=classic;html=1;rounded=0;fontSize=16;fontColor=#FFFDF2;strokeColor=#FF3705;strokeWidth=7;exitX=-0.017;exitY=0.684;exitDx=0;exitDy=0;exitPerimeter=0;" edge="1" parent="1" source="7cSqvC8ZbpraNBw19sRG-11" target="7cSqvC8ZbpraNBw19sRG-12">
          <mxGeometry width="50" height="50" relative="1" as="geometry">
            <mxPoint x="420" y="700" as="sourcePoint" />
            <mxPoint x="470" y="650" as="targetPoint" />
          </mxGeometry>
        </mxCell>
        <mxCell id="7cSqvC8ZbpraNBw19sRG-16" value="" style="shape=image;verticalLabelPosition=bottom;labelBackgroundColor=default;verticalAlign=top;aspect=fixed;imageAspect=0;image=data:image/png,iVBORw0KGgoAAAANSUhEUgAAATEAAAHBCAYAAAAB94xxAAAgAElEQVR4nO3dfUyc9533+/dyLCELM8EsyhDUiWGw3AROcCACoz2BGO5YnrVGNaqJdK+DVnIF7alorSzeDX9U4GPQ/uHea+8qLdrTYtVSRby3ZNyDI+SdKLkhhawOARkMESS1zIAzPYTJzU7IALb4I7nPH9fDXNcwTzzPBd+XVIm5Hn+Dyze/3/Xw+f3F888//78QQgiLStntBgghxGZIERNCWNqOFbFUVzflrR5yS3bqjIlqILfVQ/nFdlJ3uylCiHXbxZ5YFfaLHgpdVWvW2OoiLxdGDq5fOk9PQyGVu90UIXbRgZ060aqnliGPcUk/iw8byTtWTaqnn1V9eQOZzmUW+vp3qGWdzLZ1MrtDZ9sSRRX0nIL7Y0HI3+3GCLG7EixiVdgvNpOXoX5cHGHsnRa18DSQ2/oygRsBHPWlpEdcf45sAJaZuVGLf045zOrEZyyVvUhGDvoySl4me/EzxrTPpv1hafgqkx61wOW0U1ifia/tAZnaNqZzK8PY4rJD+jeZ73UxOxphnfcOQ12dpm8db9+jdODLaqbAuXa9op5f3fsh+d4/cOZnN+L9klU2WhrcvDDdy5t9wQjLnuH6iQDXr01CtZtXEjyqEHtVQsPJVFctdLsYanMx1HaVGUo5ahru5VNQn4kv4vpOZttcDLXdYT78wHN9LCweIqsodCxbQT5LD/vUIlSF/eI50oavque+w0pZc9h1tXwKWk/z9IZ6joxSntPW57RztMzPVJvWdnORWfXUMtTmYmx4ee2XLumg2Lhv7zTZ7m7sOaFN0suacSxc1Y+R/epWXFcL8sfpIGn5DsMw8RkO24J8PhkEfDR1TjKw6fMIsTckVMRWPY2hnhL9LD5cJj3rqGGLZWZuNBKMuj4addtj1eofvzqUnNB6WtVkMcIjredFJ18OL5Nd0GA6ynyv1rvrJOCFtGfNBTZz3TcTqrC/ms/ScDdaX4jRRqa85oKL947eK1yd+IyljMywInaDn585s45emGKgbxyvLY/X7OqColycj8dp96/3ewix9yU2nMxpp1AbKmq8cfbJfJ5UMFzrisw0pMwOG0pmZ5KekU9xq8e8k+nc0wQMvatgl4tJ7cNcC5O9HZS7PWS7WTPUjGflq526LhfOx6ePK3i90Ab+IBeOOfA+HNyltgiR3BIoYg3k1pfC8FWG1F5Hqqub4qw4uwW+SKxYzPWxsFhKVlEVT7PyWXrYbd5vnYVnjdFGhtQiZ6vzUHyxPeHjKT06rZBVcTATWNhoQ9bn5kMfZ084qOwL8tIRH59278x5hbCahB+x0HslOe0cNVzsXkNdPz/VGX0bE21I2YjDOJQEGH3AfEb49beNW12IcO0rVpvKarFpi0pqycuYxudZT++snl/du8e9X9evr6EAE7N4bZnkF+ViHxvn5vqPIMS+kEBPrJMvh09TrA3JmGZmeJl0U0/sEHn1HvLUT6a7dCUdlLsNzwHUe8iLeJeylPTFER7NGY/byWwb5LY2U17WrC9dexcwsvC7izDNVFuL4aaB4Y4r5yhvPaffpVz11DJGt2Eoq7Q5yE7x0TN2nKZTcL/LeFblTuUrenU9TtOl4zQFx7kuF/zFPvQXm38BvIHc1tM8NRQlIYTYKfLupBDC0qSICSEsbQuGk0IIsXukJyaEsDQpYkIIS5MiJoSwNCliQghLkyImhLC0/+2ZZ575v2JvUoX94v9N7uH/j//5KEZ0YE47hX/XTL7jIH+eSOBx+ihsdR6O5sQ5VzKwF/Lu/3mKv/2rl/ivf5XBwf/3Cx6s2cjB9Utufvq/f8fc6P/k8S40U4i9bseSXXdDZbWbpmKbYYmPu9cGt+Y9RP8kb16bVIpZXeZWHHEdHFy/VIHTsMT7wS2aJhLcXW3zh1v1uxBiF21dEZtrYbJty462dR4PUtPtA+BC7XnONhQyvWPvGPpounZri49po6WhAvtYLzV9O/cmpxDJagNFTIuLnmaqTQlCtNV59IhmU3w0KC+AFzxgbOG0/jK2eZvwF7FhKTzupvoKt/++FD75JW9c+Wj9TVZNB4Jw2Lgk7GVqQ8GjqIKeY7NcDxzXe3MrY8bI6NhMvUDjcaNtQ1hvqqiCnlOOtevsDl7QU16jMffUQu02Lz976TxnAQhyv6tXQheFJa2ziCkFLM2QLQZKEOEQSjFzRNrNeY5i7jDU1qmmWtRi8/SrBbCZvMAdht5RonuiHmPTbLyWb4Ovg3ov7EKtm1e+HqSm04dW0N6tNhSqIxU0MUjNNZ86BKukZTKxP/aBvl4G+tRCFWG0qRSwb7h7rTfCkM7B9WOz1FxTgxCLKug5VcGFiUFu+n18HjzOK3VuWiIWnvCemnJd7vrCLZom1J6hDCfFHrKOIlZNbmspaeE9rUQsjjCmTcIx+oB592kO5kCQdhzOaaba4mSP9V3mjb71nVJ3pIKeS8qPK6YhmIOXjvi4e03rIQVp/8RHzwkHlX3qcDM4znWtB6UWj8N2YNM9Fgc1xTa8H0QqYAA+mowhiBOzeE8d53t2wB+kvfOWUgTrztNDWA/R7uAFxvmN/j199IwFaTrmgIm1vUEhrC7hIpZeVko6y8xM7FZk8wapQ7nKajdN+YYCZbdhx4FTH1KpgoGYh7Nn2WCzqWJ2G3aCfB6jGF6oPc/ZI6aGcd/wSevpKb0qNz2Z6pDVnkmazaFkjBl3l1ujYo9KuIgtDV/lEY0U13fwtK1xB8MBt8ZA3zg1xRXUFE0yoN/FW//dSv/CFnxzfzBmZ66y2s3ZI8a2Obh+6XiUY03ym7E8mvJtVEKoBykBiWKfWNfDrqueWqa8+RRc3IqpyYC5L1gxzEaU6urWbxCYVF/h9r173L58chMnU4ZVzhPqjNl+H58HHZytTewKXGV1Ja/YfHya6GMMcdry6WMbr/wgxuzdwQDT6o8Xas2PU5iFXeubmMVrO85Pqm1R91CKqIOXijbWeiGSybrvTga7rjJzsZni1m41Yto8uS1OJUp6zV3KiDqZ7X05NBuR9w5jw6dJZLK3jdB6Yz+p9jHQF6S9s5eWBrd+zQzCri/ZjhuGZeZeW/idReVOn7ZNeIS0el3OcJfyZvctqD1vGvZpdyC1dmrrVsbG8R5Rw7/D7loCYXc/fTRdG+T6JTc9xaFNzM+R+Wj6wEfPqfP0nAK5OymsTPLEoimqoOdEQIZlQiQ5eXdSCGFpUsSEEJYmw0khhKVJT0wIYWlSxIQQliZFTAhhaVLEhBCWJkVMCGFpFitiVdgvesgt2e12CCGSxc4UsZx2Cls7iPE23/Yp6aB8q971FEIkHYv1xIQQwuwvnn/++f+VkpLCd999F3mLkg7KCwLMZJaSl7HMTO9nZLlLSV8cYeydFlaBUGS1IvTyd9jL4bpl9eVxWBNPbTru2mMDzPe6mNUmVCrpoNydv3ZdTjuF9aWkrzl3KFY7/rnh5OXbvH0CRv7pDS5vNJhRCLFtDqSlpZGSksLKykr0QuYs5WCvi6kCDwXuTKba7pDZepqMHPDPVWG/aIysbiC3tZncr/qZHe1ktq2T2Zx2Cusz8UXIIUt11UK3iyFDQTvqqlKLYPixlfUH9b0byC14wFBbo/KxpINydweB0UaC2sQlJR2UvxpYU5zin1sIYQUpKSkpPHnyJHoBA1gc4Uu157M03G0uRDnVZDHCI/0Pv5Mvh5fJLmhIqAGrnka1RwbQz+LDZdKz1DCeklryTMcO18lslyHaevQB89g5mJPQqWOfW/XRlTc4c0Z6YUIkqwNPnjzh22+/3fgRsjNJz8inuNVjXu5NcP9Iw75E98U805JimZlEd97kuYUQu+/ApgqYJsK1pMQ0kFtfCobZk1Jd3RRnJba3kgRrvMbVQG7r6R05txAiOWz+7uToA+YzSjnqqoq+TVgMdbiVr9ThYk47R9W5KQGYD7CU8SIZ6vDQVmeenxKAxYBePG11EW4ihB0j4XOrTl6+zb17t7lSHeW7CSF21RbMAN7JbBvktiqx1BrTHcTwGGr97mQnXw6fplhfPs3M8DLpWm9oroVHw90U13vIQ7nrOUUz2jSOq573mS87pw9ll4ZHmHe+aG5e2DFCdyfjnFsIYQmSJyaEsDR52FUIYWlSxIQQliZFTAhhaVLEhBCWFreIOZ3R554WQojdJj0xIYSlSRETQliaFDEhhKVJERNCWJoUsW10ofY871bvSii3EPuGFDEhhKVtwQvgcZR0UF7wgLGF0xSrKRGh+GqIFRGd6urmKJ+xUlZKNtNM9UKBOx+8dxjSwhBN8dTG2OuQ+l/f44fOaf5w5ufcSKjRNloa3Lww3cubfcGoyy7UnufsEW2fIPe7emn3Q2W1m6ZitQd2xE1PsbrJ40Fqun3qBwfXL1WgPcCyMmY8lxAiUTvTE3OeozjrfYbaXAz1TpNeVqvPfKRHRLe5GGq7ygzmWJ/0shd5euMqM4v5FLwaYOzGCEvOl5X9c9opdNuZuaHu3+snr34rZlUK8sfpIGn5Dir1Zc9w2Bbk80ml0FRWuzl7eJzr125Rc+0W18fglboKLgADfb3UXLvF3cdKcapRtwkVMBstDRXY9XWD+IvdXC/adMOF2Hd2pogtjjCm9ZzCIqTjRkR739fXz39sDl5MLXoRhjtC+492M7O4Nrfsxs/OcCbhXphioG8cry2P1+zqgqJcnI/HafcDOKgptuH9ZJIBffsB7gcdvJRIIbI7eIFxfqP3vHz0jAVxHnOso4VCCNiJ4WQ8m4iITs06RLrTnGMGML8lDfPx6eMKXi+0gT/IhWMOvA8HDeuDfO3f4KHtmaTZHDRdOk6TcfnjjbdWiP1ql4vY5iOizdfXttbNhz7OnnBQ2RfkpSM+Pu02rrVx2A7ohewZDq9nHBsc53pnqCcnhNiYpLg7GS8iOprg1DTpZY3Y48xuVP/re9y79yvq19uwiVm8tkzyi3Kxj41zU1/h49PH4DxRqF8zq6w+jjM4Ts9EaPfpQPh1NeNxj/MTefxCiE3b5Z7YJiOiRxsZooNyPXpaOcZUhPktN8ZHz9hxmk7B/S7zEW9234La84YhoY+718w9q4G+AV7Ld4e20e9O+mi6Nsj1S4Y7l4D3g1s0GYqgECK+uPHUTqcTr1fmMRNCJKekGE4KIcRGSRETQliaFDEhhKVJERNCWJoUMSGEpUkRE0JYmhQxIYSlSRETQljaDjyx30Bu6zmygWh5X7H3Pc3Tde1jYHq5fCuf5BdCJIsd6Il1MtvmYqjtzhalS6zDXAuTbS6GboywtNPnFkLsCBlOCiEs7QBASkoK33333S41IXo8tS7bMCwMX59APHXC544w5Dx5+TZvn4CRf3qDy33r/nJCiG12IC0tjZSUFFZWVnalkOnx1HOgFZWjripDRtgh8tyZTLW5CIavN8RT++dQClp9B08TvPaV6mokL3CHoXc6t+37CSG2V0pKSgpPnjzZtZ5Y3Hhqlpm5oRUldf2xalJJPJ46Ji2vP4qPrrzBmTPSCxMiWR148uQJ33777e61YJ3x1Ktf+eGY8vNm46lXPbVMZXkoaPUA25sSK4TYHgd2tYBtIJ469Vk7BB4oU7qx+cIT7HIxpLWltZlCkEImhIUkxd3JxOOpG3iu7BDzU8o1rETjqRPziKeLa5eevHybe/duc6V6K84hhNhqOzN5rn73EKj3kKffRUwknvoQeYb46fleF7Oj6oc48dSprm59wl5AHTZq68PvTKJMyiu9MCEsReKphRCWlhTDSSGE2CgpYkIIS5MiJoSwNCliQghL29Yi5nQ6t/PwQgghPTEhhLVJERNCWJoUMSGEpe1APPUuknhqIfa8vd0Tk3hqIfa8vV3EhBB7XpIPJ5WXtA9+7CJQ4KHACeER1OEveZteEE/w+PpL4N47DHWZU143Gk99ofY8rwd6+Q2VNBUrsYveD27RNBHaprLara+LtF4IEV+SFzFFtttD2vBVhrr6sdV5KKhuwN/VCSUdFJf5mWqrVa51lXRQ7u7m6XxiOfu2umZDPLVS0Apdj7YsTyyt2E3T40FqrvmUgnWikMqJSQbQCtg33L3Wy80tOZsQ+5M1hpPeO3phCU5NQ+bzpFKF/dV8loa7QxfrRxuZ8h4iq6gqgYM2kOmcZkrvefXj/3haj77WbCqeOjjO9W4fAAOTM6zYMlFCiRzUFNvwfjAoBUyITbJET0wLQQSUDLFRAKVQ6YGK65XzPGnkk61GU+sWAxs7XgQr0z4GtA/+Sd68pv5st2EnyOf+LTuVEPuWJYpYLGnPVgFaIaviYCawkOjeu/TYhT+I1C8htoY1hpMRqTMfldWGZisqqSUvYxpfIte05vpYWMynoK4h5mbbE0/t49PHNl75QSGVW3lYIfYhS/fEVj21jNFNsT4kVO5caj2r2PHU/fjfAS42U956Tt9mp2Y8utl9C2rP03TpOE3qMrk7KcT6bWs8tURbCyG2m4WHk0IIIUVMCGFxUsSEEJYmRUwIYWlSxIQQliZFTAhhaVLEhBCWJkVMCGFpln5iX6M9mb++LLEdUlRBzymH+iHI/a5e2uXFSSG2jAWKWCgYMekKVFwOrp9y7MLrRDZaGtwc/kReYxJ7nwWKWHyrnlqGPPG323F2G3Z8fCiFRIhtk9RFzFanRVIDbg/ZbuXH0EvaDeS2niMbCI+t1phfAjdH79jqPDgWrvKIRn2b8CHpRuOpAbBnkhb5m+k9pU+PnefsEQgfakaPrrbR0lAJ741zuK4C5dfj4+41JWDxQq12PODUeXpOKT+ujPXyZp/M9ST2nqQuYsEuF0Mxh5OdzLZ1MksDua2n1x4gLL461dVN8cV2xt5pYVXdJL2smWLvHYbaOpX1r7bz5Who/UaEF6Czl85zFuDxIDVq0iuA89R57GO91HQHleJT4YBuHxRVmKOriyroOeWmxa8VORuv1B3nftctavxKQXy92sbNviA3u29xU4aTYh9J6iK2WbaCfOZ7XXrPa9XzPvNlp8nIIdRjWxxhTI2oXp34jKWyTFJBL2IfXXmDj9Z53oG+Xgb6UIsPei9pjceDeu/o5kMfZ0/YqMTGayccrIwZsvcnBrl77DyvF9rQ0hS9H2gFLcgfp4O8kvkMyKyaYh/aw0VMSXnNNgxDFcvMGD4tPewL9brmWphs27EG4n0Y6pUxMUiNOlx8DfAvSEESIhF7uIgpkvKxiwTYs2yEelY2vncY2Lr4fyH2DAs87NrP0wBkF8SOkY603+LDZbLdHaH46g3YnnjqWJThYVrxcS5oi4qO84rNx4cJX5gP8uevwXnMEX9TISzOEj2xYNcd5lvP6THS+t3Jkg7K3fmhDes95BnuUq6Nr0a5BvbO5i7cb7eBvl7ATZN2Q0C9c7me6d1udg/y0qUKei4pn+XupNirJJ5aCGFpFhhOCiFEdFLEhBCWJkVMCGFpUsSEEJYW98K+EEIkM+mJCSEsTYqYEMLSpIgJISxNipgQwtKkiAkhLE2KmBDC0g4ApKSk8N1338XYTElXzcvQPhtjnhvIbX2ZwI0AjvpS0mHtS9amF7UjxEiHvcgdip9WVV/h9t+Xwie/5I0r640oFELsZQfS0tJISUlhZWUlaiFLdTWSF7jD0DudUQ6TT0E9TLW5CKoF76irSilEOe0Uuu3M3HAphaukg/L6Dp5qRbCkg3LjeiGEWIeUlJQUnjx5EqcnBjhfjpHLtczMDa1npuR4pWcdBSC16EUY7ggVqNFuZhbzySwBqML+aj5LxvWR9F3mjTNnpBcmhFjjwJMnT/j2229jbrTqqWUqy0OBmsu1ZrgXSebzpAKpWYdIdzZTXtZsWj0PwFEOZsDKV3GOJYQQURyIV8A0ysxDoFwDa6YQYheywBesAqnEKnqPeLoIB9fbaiGEUG3g7qRSeKLKaedo2SHmp5TrZ8GpadLLGrHnRNo4wQjp6ivcvneP25dPrr+5Qog9LYF46vA7k4D3DkOmntUh8uo95KmfTJNzjDYyRAflhvXGu5uRIqQTGq4KIQRbkmKhTFz7NMLs20IIsd3kYVchhKVJERNCWJqEIgohLE16YkIIS4tbxJxO5060QwghNkR6YkIIS5MiJoSwNCliQghLS+CJ/WTWQG7rObKBiDllKludhwJn9PVCCOuyeBHrZLatk1n1rYG95K//+Zf8QHtPKzjGv/ztv/GnXW2REMnJ4kUsMaEEDov4USM/4H1+WvM/gKP86Pc/5q1//oqf/t3/2O2WCZF0tr+I5bRTWJ+Jr+0BmdrQzxRfHfaCufcOQ11agmwC0ddxz63uZ4rUNogVjR22zvRiO5Dq6qa47FDU9VDPr+79kHzvHzjzsxuJtFjxuw5+qn94xH/8aYnS7z/L90F6Y0KE2aGeWD4FrUoE9dCcch3ruRKYHQVbXbMh+lopaIWuR4YUixjR1/HMtTDZhl5I14gZjd1AbsEDhtoaDdt2EBhVC2FOO0fL/Ey11a4tjEKIHbNjdyfne7WL6p0EvJD2bBXQQKZzmim959WP/+Np0o9Vk6rvGT36enPiRWN3MttlmFNg9AHz2DloykXTYrajucHPz5xZXy8s3Mm/4Uel6Xg/kmtiQkSyQz2xaQKGYVawy8UkQE41aeSTbcgSA2AxEPtwavR1QkPKqOJHYyt3NY1LlpnRfpxrYbK3g3K3h2w36xvmJuy/8A9vFcPIb/lvv9vSAwuxZyTBhf0o16piUaOvNyd2NHaqq5sCZ/jUdGF3QEcbGVKLs63OQ/HF9i0sZP+Ff+g5jXPmfX76j4+25IhC7EW7+7DrXB8Li/kU1DUktn1Y9PXmJBCNvRjQC5KtTnseLbLVheUIS+v51b173Pt1/TrbZihgckdSiJh2uSfWj/8d4GIz5a3n9KXmeOoY0ddhdw+p95BneOg1/O6hMltTYtHYq573mS87p69bGh5h3vmivl34sZXjbk0v7Pu/+CucAHmn+deeUO/P+97bMqwUIkzcPDGn04nX692p9oSR6GshRGzy7qQQwtKkiAkhLC3Jh5NCCBGb9MSEEJYmRUwIYWlSxIQQliZFTAhhaVLEhBCWtqeLWKqrm/JEX2na4WPb6jyUtyr/K3RVbWHLhNhfLFDEqrBf9JAbM/Jmg0o6KL/Yboj92TnBLhdDbS6m5OkVITbFAkVMCCGiOwCQkpLCd999tw2Hr8J+sREe+skrywfvHaY4R4HT+CJ3WDy1IZfLlOel5XYR/oJ42P4Ron2Mx1kbIR1DnHjq2MeOFbu9/nObvzNsOPpaiD3mQFpaGikpKaysrGxTITtE3rHPGLsR4Gj9ORzDVxlbaKS4oIHZ0U5SXbXQ7WJoDgiLn1Ym+FCWHfw4UvFRC4Uebx2BUznnUFe/kjzxajtfjiaSNhEnnjrs2OHr48duxzl31NhsIYRRSkpKCk+ePNmmAqaY/1grGtP4wv6IVz2Nhj/UdcZPl9SSl2GMt47Ae0cvHKsTn7GUkZngNbAE4qkNx1bWa3HVicRux3OIrKJYF/y3IPpaiD3gwJMnT/j22293rwWmGYlUCV7sTn3WDoufbXEkdEjMeOo1DEmxOc9vLHZb18nsjecprG+mvKyZDaXfCrFPHNjVAkYDufWlMHyVIbVHk+rqpjgrsb1Xv/LDse1pWULx1CZHOZixzNN57fMmC482U5PaluLWDilkQkSQFHcn9ck61Phps36eBiC7IMIzWaMPmM8o5eh2PWe1jnjqVNdpshc/Y3GO9cdux7H6lT/C0o1GXwuxt+xyPHUnXw6fpli/8zjNzPAy6WE9sWDXHeZbz+kR1qE7dZ3MtkFuqzbsUo6xrh5LRqkpnlq/OxonnhoAZ6hN5tmO4sVuK3Nv6kXRqbRfXx8eu61GbksvTIi1JE9MCGFpSTGcFEKIjZIiJoSwNCliQghLkyImhLC0bS1iTqcz/kZCCLEJ0hMTQliaFDEhhKVJERNCWJoUMSGEpUkR2zU2WhrOc71ot9shhLVJERNCWNouvwCeiLCXpY0xzyUdlBc8YGzhNMVq+oUxxjnV1c1ROvBlNceIp95IzLOD65cq4INbNE1EW6Z81h8yCY5zvXOSAeBC7XnOHlGXnzpPzynlx5WxXt7sU1/zLqqg55RD25n7Xb20RwqzEGKfS/oiZqt7mUCbi1lAK2i5JZ2hQuQ8RzF3GGrrVAMWG7FP9OtpsellzVEjpDfOx6eP4ewxB0z4lEV2G3Z8fDgBylCxAvtYLzV9QfWzm6baIAPdPm523+KmuuzwJ8ZCqLIX8u6pZ7jfdUspXEUV9NRVcOHaIDc31W4h9p6kH04Gu4wFp5OAF9KeNeSHLY4wpvXM5vpYWDzEQWPw15oI6bCI6Q3GPN8cHGflSC4X1M+VhXkwNq4UmaLjvGLz8aHWqyJI+3vm7WNRjjUQ6nlNjHM/6OAluX4mxBpJ3xNbm60FSwuxd1GKXLQJOdQit9kJOPw+Pg8eVwrLhI3X8uHz9wz9u2CA6Q0eOj/TRtoRNz3F5uUSiCTEWsldxHLaKXTnm65j2eo8OGLvFUqKjcgYIb0ZQf44HaTpmAP8Nl5ght8Yr1nZMskHBrTP9kzS1nF00/UxIURUST+cNBWdko6wiTvMUl2N5GVME4gyr6St7lwoQlq38ZjngckZVg7buFCYh/+TyVDBmpjFi4PXq23amWk54WBFG24CEOTPX4Pz2NqSfPOhj7TiSlrs626SEPtOcvfE5lrweT0U1HvIA1gcYcabjym92hQvHSGaOmqE9BbwT/Lh1+c5W+zj7jXjCh9N1wa5fskwJHw8qF7kD7nZPchLlyrouaR81ntfE4PUUEFP3Xl6DMe8Kxf2hVhjW+Optz3auqSD8lcDUQuTMnPS++ubeVsIYSkWGE4KIUR0UsSEEJaW3NfE4hltZCjKRXyAVU8tQzvXGiHELpCemBDC0ra1iMl8lUKI7SY9MSGEpUkRE0JYmhQxIYSlWfvuZDw57RTWl5IORHyaXwhheTvTE8tpp7C1A1v8LbfWXAuTbafFToAAACAASURBVC6GboywtJH9d6vdQoiEyXBSCGFpBwBSUlL47rvvtuHw5mjpAv1F7WVmbtSq6atV2C82k5ehrjLETyvx0p+xUlZKNtNM9UKBOz+0TZx46vjCzq2/IJ5Iu9V3M9XzRh6ubiT6WgixHgfS0tJISUlhZWVlGwpZJ7NtnczmtFNYn4kvwjUpW10zeYE7DL3TiVZUCl2P9EKUXvYiCzeuMlPbTMGrI4zdCHC0/mVsoBwrTjx1LKmuWuh2MWQopkddVUx64rebkg6Ky/xMtdUSRC1oF9u3NiVDCBFXSkpKCk+ePNmmnlg8DWQ6p5nSUyb68X88TfqxalK1Tbzv6wVp/uMIBSJePHUMq55GQ7HrZ/HhMulZRxPa11aQz3xvqLitet5nPuNFMrYg+loIkbgDT5484dtvv92ds+c8Txr5ZOvDNdViYFOHjR1PbTy/8e6lKqGXDKo4mAnZbg/ZbuPyZWbW0U4hxOYd2LUCpov+6ENqhGWJiB1PrWkgt74Uhq8yZJjirTgrzm4Ga6d/E0LstJ25Ozn3BSvkk1kSvryPhcV8CuoatuQ08eKpI9ELXk47R/WL9Fr7orRbHXpmu+M9frHx6GshRGJ26GHXTmZ7X6ZcH35pd/n68b8DXGwORUizzjuMMeKpzXcPtbuM2jadfDl8mmK9TdPMDC+TbuqJRWu3EvMzRrfh3Gx9/LUQIq5tjafednHiqYUQe5887CqEsDQpYkIIS7P2C+Bx4qmFEHuf9MSEEJa2rUXM6YwxXbcQQmwB6YkJISxNipgQwtKkiAkhLE2KWKIk5VWIpLT3i1hJB+UX2zf8Mvlm2Oo8FLqqduHMQuwfe7+ICSH2tG2Op96cuPHUoPS03PnqHob4aFNWWH6Ul8SjxVMT4djKvuHtC71gHjq3abmzmfKyZuVnY7vDIrDN6xQnL9/m7RMw8k9vcLlvHb84IfaRbY6n3ryY8dQ57RS67czccCmFq6SD8voOnrY1EpxrYbKNmC+JR4+n7leKoPHYalS1Lqed5+hgqM2QRVbbzuI7Lax6ahnyKMNJx0LkRA5b3csE2lzMAlpByy3plHwyIdZpl+OpExAjnjq16EUY7ghFTI92M7MYKf8rsljx1LbqUvOxw821MGsoTqsTn7GUkZnwtbdglzEIspOAV0ukDfnoyhucOSO9MCFi2d146k1KzTpEunG4pppP9AAbjqeGNUNRIHy4GdOaoSosLSS+uxBCkQTx1JuzvinajDYXT22rayaPEcba1N5h+HAzlpx2Ct35pnhrW50Hx7q/gxDC0ncng1PTpJc1Ys+JsdF8gKU1sxCFRIunXl1YNsy6pBS89PCdA1+ow9sq7LVr15uPEW6Zp1qXsaSDggivmZ68fJt7925zpTr61xNiv7N+FA8dlNd7yNMXhk08MtfCo+FuivVtEounXvV0MHOsWb2ruczMjTvM17+snyXYN8JS/Tk9Vnt+eISlMnNPzHwMQncg51rweT0UaG1aHGHGm8865igRQqi2NZ46qaOthRB7gqWHk0IIIUVMCGFpUsSEEJYmRUwIYWlJXcQk3loIEU9SFzEhhIhHipgQwtKkiAkhLM3aT+zHY3rBO+xJ/nhiRPgkwpQpFiErTAixNfZ2T2yuhck2F0M3Rlja4VOvemoZanMxNry8w2cWYn/Z20VMCLHnJXU89faLE0+NeVgYHvtjjqde53A1PJ46wrklnlqI+JI+nno7xYynBsgopSDrDkNtner1tUbsE/16FHZxmZ+ptlqCqAXtYnvC19BsdedIM2SZCSE2JvnjqbdRrHhqQOkdaRfk5/pYWDxEVpESIW0ryGe+N9TzWvW8z3yM3LJIomeNKSSeWoj4LB1PvWnriqfu52lAi8Gu4mAmZOtZZJplZhI8dbDrKjMXQ1ljxpRXIUTiLB9PvXHrjadWCtfKVD+g9MY2V3j68b/Tjx/UYuohFylkQqzXvr87GS2eeo2SWvIypgmMgjb0zHZ3YNuKRsx9wUqExRJPLUR8e/phV/PdQyho9ZBoPDUAGaVRJt1VngMbo9uwHsMdxvCZkNQYa/2h17A7k6h3PqUXJsS6JXU8tcRbCyHi2ffDSSGEtUkRE0JYmhQxIYSlSRETQljani1iEm0txP6wZ4uYEGJ/kCImhLA0KWJCCEuTIiaEsDQpYvuRvZB3L1VwYbfbIcQWkCImhLC0Pf0C+KaVdFDuztc/GqN3Ul3dHKUDX1YzBc7w9VXYLzZC9/scrNde9I4QX119hdt/Xwqf/JI3rnyUWJuKKug5BXevDXIz2jJ7Ie/WHSdNW/94kJpuH+Dg+qUKtIdPzl46z1kAgtzv6qXdryyvrHbTVKzlc/jM5xIiyUgRi6qB3IIHDLU1Kh9LOih3dxAYDRWi9LJmHMNXGerqj7D+EHn1p5m5ocRf2+o8FNQ1bH7qtolZvKcqeKkImFAWVWY9A4/H1ULj4Hrdcfwf3KJpQv18qYJ3q3t5s89H07VbapHL5MNIxamogqbib7h7rZebqAWtoZDpzkkGNtdyIbaFDCej6mTWWHBGHzCPnYPG+GnvnVAef4T18721evx1cGoaMp83x1H3XeaNM2cS74UB4KNnLIjzmEP9bOO1fLg/6AOgsvo4zuA4PROh7Zs+8JGW76AygaNfOObA+0GouA30jeO15fGafR1NFGIHSU8sBludRx8qKuLFTx/iYDYwF2V1RiapsKHJeI0GJmf4SV0uF/Bx0+7gBWb4jd+wwdfBDfaabHzvMDhPnafnlHF5kPubabAQ20iKWBSprm4KnMbrWA3ktp6Os9cyT+djrF4MbLqAAeD38XnwOC8VQWVWHkwPmIvWYRuVoC+rzHoGCCR8eK8+FBUi+clwMhZD0bHVmZNYw9nqzpG9+BmLEXthDeS681l62GcuYtVXuH3vHrcvn1xnw4L8cTqIPcvBa/nf8GFf6HbBwOQMK7bj1BRpSxzUFNvwfmK4puUP4sehXFeLcFznKXn8QliH9MSiWPW8z3zZOT1+eml4hHnni+aNnGrsNESc/NY4G1L4xLubNdA3Ts2lCl55PEi7cYV/kje74N260JBwZayXN009K+U6WY8+bAzdnRzo6wXcNOl3LoHgONflwr5IUns2nnq7o62VmZHej3K3UcnYP/ixzF4kxHaT4aQQwtKkiAkhLE2uiW3QqqeWoahrlYlxhRDbT3piQghLS+oitpkL8zJfpRD7Q1IXMSGEiEeKmBDC0qSICSEsTYqYEMLSpIgJISxNipgQwtIOAKSkpPDdd9/tdluiaCC31ZAgYXzRuqSD8oIHjC2cprjsELD2RetUV7e+LmJEdFgEdfj+Jy/f5u0TMPJPb3C5bxu+nhBiUw6kpaWRkpLCyspKUhYyW9050oavMhQtAcJ5jmLuMNTWCTntFNY3Yp/oVxJVSzooLvMz1VZLELWgXWw3F0G3nZkbLj2BVQhhLQdSUlJ48uRJUhYwTfqxalI9/ZEDBRdHGNOSJOb6WFgs1dNVbQX5zPe69J6XEq9zmowc8M9VYX81n6XhqzEL2EdX3mA94dFCiJ114MmTJ3z77be73Y6ogl1XmbnYrOd6GWcciibt2SoADmaaM70UWsT0UQ5mwMpX8o6jEFZ2IJkLmEJ5mdoP6nDRQy6xC5lSmJRCFr3oPeLpIhzc+gYLIXaQte5Ozn3BSozVqa5G8jKmCYwC9LP4cJlsdwe2iFvHW684efk29+7d5kr1JtothNg2SR7FE3ZnEvXuobFnlVGqDzXD7z6uemoZo9uwHtPdzUjrtzpGWgixvZI6njqukg7KXw2sybYXQuwf1hpOCiFEGCliQghLS/JrYnGMNjIkswkJsa9JT0wIYWlJXcScTuduN0EIkeSSuogJIUQ8UsSEEJYmRUwIYWlSxHZTTjuFrR7K6xp2uyVCWJYUsc0o6aD8Yjupu90OIfYxaz8nZnVzLUy27XYjhLA2C8RTb1aMeOuNRl/ntFNYX0o6APlRXkCvwn6xmbyMSOcFW52HAvUJkkiR2kfpwJfVrG9jjhQKO7b3DkNaMKS67uDHLgIF2jmWmblRGwp/jBPJDVD/63v80DnNH878nBtxf8dC7J6kj6feHKVIRY63rsJ+0bhO+eMvrmsIFQRj9HVJB+XuWmyefoJaDyrGC+iprlrodjE0h37so64qvVgEu1wMoRQzR4SWp5c14xi+ylBXvxKr/Wo7X44q57HVNZMXuMPQO536sQtdj0yFKNvtUb5bV79SMKsb8Hd1Kr8TieQWe0iKFeKpNyrVdZrsxREeRYrWKaklL2Man76uH3/3CEvOl0P5Ysbo69EHzGPnYE5i5171NBqKhJJdlp51NPHGe+/oRWl14jOWMjLVa28NZDqnmdJ7Xv34P55WIryj7B+cmobM5w3rD5FVVBXz9Dd+doYz0gsTFpD08dSbkZp1CAJfRI/pWQxsX4SPacip2opUopznSSOfbGNGGsBiwPRxfqoz9MH0jmknszeep7C+mfKyZiLOACWEhVggnnrjVheWISvGBmrvRi9k2ZnmorNhDeTWl4JhGJvq6qY4VlvWZZOFx3BDIdXVTXFrhxQyYVl7+hGL1YnPWHKeI7ckwsrRB8yTj8OlDau02Y+6E/9jng+wlPEiGVGGmPokJDntHNXnvtykuT4WFvMp2KJny1a/8kdcXv/re9y79yvqt+QsQmyfvf2IxVwLkzeUyUXKtRmP9LuEncy2QW6rNqxCucu3nmjquRYeDXdTXO8hDwj1kDr5cvg0xfpMS9PMDC+TrvfEwu6KOpU2JBaN3Y//HeBiM+Wt5/SlCcdqh92Z1O5cSi9MWFVSx1Nve7y1EMLy9vRwUgix90kRE0JYmhQxIYSlSRETQliaFDEhhKVJERNCWJoUMSGEpUkRE0JY2t5+Yn8LpLq6KS47FJbntV/ZaGlwc/iTWzRNbP3RK6vdNBWrGSKPB6np9m3gKA6uX6pAm+xvZayXN/vWvo9wofY8rwcir0tqRRX0nAhwvXOSgd1uS5KQIiaSxkBfLwN9ajHL3NgxLtRW4NxwAUx2NlpOOPB+Mrh1BWwPFEUpYnGsemoZ8sTfTiQDG987DN5P9mIBA+wOXmCc32xDL9jK9kE89UYZX9IOi3emgdzWl3k6bCev7BBLw3dYOHaOvAzjdrHjqSPmjRkidrRhbPjykHp+de+H5Hv/wJmfrTO6sKiCnlOhPNm1Qy7zkIzgeNh/qY3rfdy9NshNdY1pSAh4PzAPPS/UnufsEf3A3O/qpT1ykMZa9kLerTtOmvZ5TY/rGQ7bIuwHaEPhVwzrV0wRbNGGocp+L0wbf0drl0X/Xg6uX8rl064Ar2ttD/99xv33UFyoOA7TvWH7Yfr9r1kW7XdmWu6g6dJxmgDzv2fY7yxJe7h7PJ56MzqZbetklgZyW09HWJ9PXtYdhnpfptx9jpVeF1MFHhxFVfjn+uPEU1dhrzXkjZV0UO62M3NDLVQlHRSX+Zlqqw0VtIvtEWOw18/B9VPPcL/rVpTiofwx28d6qYlyvch56jj3u25R41f+T/56tY2bfUEoqqCp+BvuXutV/giKKug55abFr/xBV1a7OXt4nOvXlD/gymo3TXUVXDD+EcZqd91x/HpRVNr5bnUvb046zH+op87TcwqMf5AXat288vUgNZ3KH+GF2vO8rh/bRkuD8Ts7uH7JzfWFWzRNBPnjdJBX8h1U9mmF5xkO24J8Pqn8fuJ/Lwdn6+DutVvcVAvDT6p9DGjnivnvobIX8voRHx92G/5NJmbxnqrgpSJA/Q9FZdYz8HhcP2/U31nfJG9em4w5nDT/zpR2K/sm13XEPR1Pvb2WmelT01MXR/gy7KJ/zHjqnGqyMpZZmFCjc0YfMM8hDqrZPLaCfOZ7Qz2vVc/7zK/JLbvBz8+cWX8vTDkDLxRG7rJUVh/HGRznNzH+j+r9QOtlKH/gaZnPoF2vWRkbDxWkiUHuPtbO5aCm2Ib3k9Afy0DfAPeDDuWPMA6tXT16r85H0wc+0vIdVPonefPaLWquDeJF6f3VqJ+13sjrR3zcjdaL0IZp+nf20TMWxHnMobZzHK8tj9fs6uqiXJyPx/WeVvzvFeR+l1bQjL8zTfR/D/37F+aR9ng2rNib2wk2XsuH+4O++L+zmGdTvtdLpt9ZkPZPEt13Z+3peGo4yZX//jalhv9/TP8/Z/h5Z/Q9tkyseOq5L1ihlCy110bJy2QzzdQoQBUHM5WJPrLdxp2XmdmShvlo6hrn3To3PcXKZ+NwJD/TBl8HN3yR178Q67/SQb5OdOgYySbaFZM9kzSbcUileqz94OPTxxW8XmgDf5ALxxx4Hw4aNtzA9zpsoxIYiPPvoXBQUwz3u9YW4YHJGX5Sl8sFfNy0O3iBGX5jbMtGf2d2G3YcOC+d56xxeTAQbY9ds6fjqeEjLv/Xj3bhvPHiqR/xdBGyy0KBjPO9LtM1r219pMOvDiVQhz6XKkD9w5kOBGGDdwYB7Fk2IHTt6HuHAf3/9zYO2wH9jyzWNawI9D98RWXWM8aDb86a635mNx/6OHvCQWVfkJeO+Pi027h2A9/LWFxi/HsASs8vOMP1SIXS7+Pz4HFeKoLKrDyYHjB/h039ziIV1OQjD7tuo6jx1CW15DHCWJuLIfV/oYKlDD2z3R3E/juo51f37nHv15sLkB5Y+Mb8eXKGlSMVXE9giGemDpOKj3NBW1R0nFdsPj7sC6L0ZsB5olAfjqwd7sRo5+QMK7bj1OjtWjuMi8ofxE9oeFdZ7TZchEe5tmQ7zk+qY/zGJ2bx2jLJL8rFbhwyr/d72Qv5SbEN78PIQ9vwf4/QYxXRvqfye7dnOXgt/xv1d60eK5HfmT/AinGorC/38XnQwdnaSBMKJhd5xCKa8Bjneg95a+5SRhMnnnq0m5lXmw2T7iq03teqp5Yxus3rw+9ublTYnTDtTpr+R+mf5M0ueLdOuzhO3F6KZqCvF3DTpA9BzMe+2X0Las+H3QnTjht+97CCnkuE7ohFaNfKWC9vJvS4gXItqEe74P94kOtjx/mJcf21Qa5f0oZ0CvOdVR89Y8dpOgX3u8xD5tjfS/lur9SdpyfSceP9e9gdvGDz8WGM7znQN07NpQpeeTxIu3FFIr8z/yS/GcujSW+f1vsK0t7ZS0uDW/l3wLB/kl3Yl3jq3RBp0t2SDsrdyKxDe46D65eO8/V6HiUxsOybBTtIemK7IPVZO+HXJWwF+bA4sn3zYApLutl9K+mvSe02KWK7YNXTwcyx5u0ZLgqxz0gR2xX9+N/pZzNPGwir8NF0Lfmect9L5O6kEMLS9mwRczqd8TcSQljeni1iQoj9QYqYEMLSpIgJISxN7k7GsffiqWPlpBH24nqkHLNNSOjYavus9MiJKZvLGu8b7iVSxCzHWIRU3jsMdSUazREnJ22uhck21IIT9iZ4hGSOpeGrakZaAmId2wK04MPwoEf9BW57Ie/WWe97WZ0UsTiSNZ461DNUAhfL61hHIdsMY++tgdzWZgoh8UIWl1Zkk42ar/UBnD3mgAl59itZSBGLKtnjqTX9+D+uJc/9MkoIjtLDempor63Og2NhHT2mhKkvuh+rJtXTz+qadq8vUsi0b5TeZeTjK/9WmM4VadlmIr1zcQYD9EwE8Z5S87vi7hRtdqiw9ynDXgL3hiWxYur5hS8Lf3F+/w1npYhFtVfjqbdRWLuV79XN0/lEkj9CvV5z9lqIUsAMx9d1EvCeo6CggdlRtfCZgiY378IxByvT4wwAr2mprXETNIL8+Wt4wZSxFs7B9WOz1FxTQxaLKug5VcGFiUFuqjE/pp5fUS5OfNzV4qirK02x2/uR3J3csN2Op9Y0kOvOZ2m4e+fTL9SctPmPW1ilCvurYe0YbWTKe4isoqotOFkDz5UdMv1ejIJ9Iyw5X9Yz2GwFkX4nG430dvDSES1TX8nvCkVCxzYdME4ucl7JabPbsPMNf/YD+GgyxmZPzOLlGb6n5nvdHBxn5UiuntF24VhYBDiAYf1+JD2x7bLN8dTG9eu6uL5ph8ir95CnfgofLupBkFst53nSWGZhPsr6uT4WFpvJLIHgaAOZzml8XVvUlrBkVVMkdJxdBxa+oenYM2C3cfhrH2TZlATYYIBpdRvzTEkAQe5rPxqSW5lQrssZJwsZ6OslP/M8Z9UMt2TM+9puUsS2xfbHU+/eIx+xgyHTnq0CtOKhFGQWtuC0c1+wwosxNuhn8WEjeQUNzPIy2d4HW3Zz4MIxB0TI4E9oSOkPsHLCxoXCPHg4wNfHHFTaM0n7elafGensEeN1LOV6WYjS82s65gBycT6eNc8DgDGuR5ml6V32VyGT4eQ22t546lhCQ9NUVzcFO/IaqTpkLqsNtbuklryMaXxb0kvsJOA9RF5tO6lRtlj1vM+88zSFr9pDQ32TjUR6qxPy6jMoKf+7+5iEh5QA38v8hk8ngvyZPGqOPcNKwBBDbeqVGeb7VA30jeM9cpx3Tzyjz2QU2Td8vX9ql056YtFYNp66k9nelynXzu29w5T3HPqfW5zvFX73r6DVQ6IPva5tt3Jcbb/Yxw67m8s5ylvPme5SBrtcTNV5TL8Xc49UucCfnTnCowRuJCQkSjz0zYc+zqp3KafDJgxWhnZq78ofxG+r4JWv1ejoh9/Qc8qB96HyWxnoG6emuELv5a2MjeM9kmc+mTrbkvPwOH805TetnRCYx4NR5wvdq/ZsPHVSR1tLPPW22b7HSXaXxFRHJ8PJXaDEU5sp8dSB5H6EItmVdFDg3KrhaxIpquDsEZ9pJiMRIsPJXSDx1FtMHyKbh6+Wpz8EGzYDkjCRIrYrJJ56S402MrQnXs4PMzFITUJT0u1vMpwUQliaFDEhhKVJERNCWJoUMSGEpUkRE0JYmhQxIYSlSRETaxVV0NNQSOVut0OIBEgRE0JYmjzsGk1JB+UFDxhbOK2/tBye22V+odnwcnhJB+UFAWYyS5XI6t7PyHKXkm56Kt884UekTLCTl2/z9gkY+ac3uNyXWLMrq9005c9wvXOSgSjLKsNeWNbjkE2z9hijZ8KjYkJJC/sxv0okF+mJxeI8R3HW+0pcTu+0OWYmp53n6NCjdMaGMcfEOEs5+LGLKe8h8tyZ+NruGNJZq7BfPEfa8FV1/zuslDWTW7L5Jg9MzrBiy+M1w+uZ+Zk2VqZ9SlErqqCp+BvuarEyH/hwnnLTYkedtUdZRnCc63r0jFbAbLQ0VGAf69WX+4vdSlqpELtEilgsiyOMaZNVjD5gHjsHtYjouRZmDT2n1YnPWMrIDBUxQ2T1mpjknGqyGOGRvn8nXw4vk13QYDr9R1fe4MyZxHthAPgn+fCxjRcKtXKrpoH2BQEbLSfC4o0nBrlr2j4Gu4MXGOc3es/LR89Y4lHNQmwHGU5uWHj+FaBH28WRnUl6Rv6aPDG2KDno5kMfZ084qOybZKBobRqof2GDwz97JmkREk55vInGCrFJUsQ2yFbXrKazqte41jsh7HamVkzM4j11nNfsk+Qfc+B9OGhabTfNvqMklxJI8NjBcdP1NiF2mwwnNyPwhVqElCnY0uNsrht9wHxGKUddsWcBOnn5Nvfu3eZK9Xob5uPTxzYO2x28dHicHj0JQclrTys+Hpodp+g4r9jCsqr8gTXX1QClONqO85PqjQdnC7HVpCe2QcG+EZbq1QhlYH54hKWyRHtincy2QW5raKIQ2NrJP24OjvNuXQWM9Zp6TQN9vYCbJnV2nIhZVf5JfjOWR1PdeXqA0N1JH03XBrl+yU1PcWhz7wfhk8MKsXMknloIYWkynBRCWJoUMSGEpUkRE0JYmhQxIYSlSRETQliaFDEhhKVJERNCWJoUMSGEpUkRE0JYmhSxXVOF/aJnSzLEhNjPpIgJISztAEBKSgrffffdbrcluSQQT22r81Cg5TQb46nVdY6FqzyiUd9fe8HbtJ/bQ7abNcc3R19Hejm8nl/d+yH53j9w5mc3tva7C2EhB9LS0khJSWFlZUUKWTjnOYq5w1Bbp5oX1oh9oh//nFJkCjJDeWKprm6K6zt42taoJ3WllzVT7FX2T3V1U/xqO1+OthDscjGkhioe/DhCckVOO0fL/Ey11SLp9ULElpKSksKTJ0+kgEVijKee62Nh8RAHswEaeK7sEPMfh0INVz0dzCzmk1kSef818dVxhR1rjRv8/MwZ6YWJfe/AkydP+Pbbb3e7HZaR9qwWZLjM0/nY2y497Aslt861MNmW4EnmWpjs7aBcG2puZwqsEBaXIgVsfVa+0q6Jab0yzVEOZkTYYaNGG/WZlKYCpRRfbF9HL06I/UPuTiYo1dVIXsY0gVGATgJeyH41VFhSXafJNsxwFF8/TwOsmeEoktWF5QhL6/nVvXvc+3V9oicUYk+SeOpYMkoNMxJNM2W4aB/scjFV5wlbv74hX7DrDvOtoYhr7e5k+J3JjRxbiP1C4qmjKemg/NWAXIsSIsnJcFIIYWlSxIQQlibXxKIZbWRoi6ZPE0JsH+mJCSEsTYqYEMLSpIgJISxNipgQwtKkiAkhLE2K2D6V6uqmvFWSZYX1ySMWFqWFLhpDGpOdOUQSwl/l2rRtfMvi+79o4a3SdP1zcOS3NP/joyjrH/NeTQf/vsVtEJFJT2yfWvXUMtQWIZBxu3nv6OkcY8N2Clo7sO1wE9btR4289f1H/EvN2/y05m1++i9jUPo3/OikYX1pgPfU9e/NHOEHv/8bvr+rjd4/JJ56O5V0UO7O1z+a4q1z2imsL0X/b7v3DkNaAGOMaGzTy+HOZsrLmtfuTwO5refIjnRs0zpzpDYow8yjdODLatZ7TeZobPOx136nTHxtD8jUtomRhbbqeZ/5snNklkBwNEK7TfuGknADBVqPTm0/xt9lftSX9jca6f395zLhPz/nT9qCj75i4a2j6oej/OjkEYIjv9V7Xv9+d4yTbx3l/zgJf/oo4dOIDZJ4wfdFZAAABspJREFU6u1S0kG5287MDZepSCgayK0vZaXXxaThj7fQ9ShUEIzR2CUdlLtrsXn6CXpqGfLEHk7a6l4m0OZiltCxc0s61ULUyWxbJ7M0kNt6OmLT08uacQxfZair3xSrvUoV9ovnSBu+ypCnXz12M7lf9RuKXD4Frcr3HppTzv1cCQn0+MKPrRSt4roGQwGGbLdH2aarXxmeVjfg71IDJ7dpOPmn/3hE8K3TXP3FY5r/8RF//c+ncQbHeO8jgCP8pW2JP/2HNrT8L/zDW8XYgL90AlLEtp3EU2+LKuyv5rM03BGhgEXKHutktnea9GPVoeBDYzT26APmsXMwJ7GzB7uMvQ8l+yyUSJsA7x29OJpitXOqyWKER3rh7OTL4eU1mWjzvVrvLva5bXXnQr+HklryMqbx6cfux989wpLzZfNw09C24NQ0ZD6/jrDIDUZ6f/RvNNf8lj99/8f8a88v+QHv89O//bdQzwyAo/zo97/kX3tOw3tv894MZD13NMoBxVaSeOoY6n99jx8aLkSvfPJL3riSyH9alZTXUApsBIEvti/iJ2wYC7C0sAXHzc4kPcM4XFOZEo+04EhFsMvFpHG1M5SftmaouRiI+zuZnwr1ynbs/daTf8PVt4pZeO9tfvq7o/zo9z/mX3teMFy8T6f0rR/jfe9tfvo7UAoaLHz6KOZhxdY4IAUsuhs/O8PGpuF4xNNFOBhrE7UHof3Rpj5rBwIbOptJTjuF7nzTdSxbnQfH5o+s2Gzev+n6XBi1x6cfOzszdM1wF/312WJsM+/T/DuAR/zub38Lv/8xJ39xlH//x8f8ZxCy/vRb/tvvtD2UIeZ/biLOTiRO7k5ui34WHy6T7Y58500ZopXynP6M1trZk+JZXVg2Dz9NDJOYlHSEPdawCaMPmM8o5ahrHUPT9RybfBz6sbUheXfij2DMB1jKeJGMqMPuTUR6/+WzobuNJ0v5vg0WvnwEPOI//rSEzXC38vu/+CucwUf8h1wP2xHynNg2WfXUMka3aeil38mba2HyRjuF9R7KjRPnrmNotOrpYOZYc+j4Wg9nrgWf10NBvYc8gMURZrz5ZGk7hg816z3kRbhLGVkns22Q22q4K0qkiX03IsKxvXfUi/wJmmvh0XA3xdp336Ln0P79737Lc7//MW/1FOvLvO+9rfe8/vSP7fzLL1p4661fUvoWEBzjX9ZcMxPbReKphRCWJsNJIYSlSRETQliaFDEhhKVJERNCWJoUsSiczq16LkEIsZ2kiAkhLE2KmBDC0qSICSEsTZ7YF+tiTGc1ZYkJsUukiFnUbsVTB7tcDLHFL5UDFFXQcyrSEX3cvTbITfVTZbWbpmLbmnUXas9z9kj0/cTeJUVMJIeJQWomAGy0NLh5YbqXN/vMbz0qhcrH3Wu9anFycL3WAd0+ZYPHg9SoP1dWu2m6VAFSyPY8KWLbogr7xUbofp+D9VrcsvFl5BhRy+pL2KYYakIvWScUTx0r+tpw/rwM7bP5RWnzhB6JvhwecvLybd4+ASP/9AaX+xLfLyZ7Ia8fCXK/y1iUfDR1R958oG+cmuIKXioCJraoDSIpSRHbNofIqz+txjSrhSGhqGUljrq4zM9UW61SWEo6KHd383S+Fn/ceOp40ddqAQvcYeidtbleqa5uCjJHGGtTYoFSXd0U13fwdCtnJdqAysI80oIz/NG/i40QSUnuTm6jUExzlCjliFHLEXK0RhuZ8h4iqyh+jlfc6Gs1BnoqYjDh2lyzVU8HM4v5ZK5jfsqPrrzBmTNb2AvbgAu1FTiD4/RIL2zPk57YTgpLLo0ctawUqpjR1vHEiL5OfdYOi5/FCF80BCpazZEKei6pPwfHud45ycCuNkjsBCliOymBDHmNMrmGVsiqOJgJJJqTHyP6evUrPxyLtfMhDmYD+jUwZb6A3Taw8A1NxXm8Zp9kINqQ0nBhX+wfMpzcEQ3kuvNZetiXQBFToq3Ty2pD0dZrZgKKHk8dN/o6ZsS0MjtR9qvt+nHXDk/jO3n5Nvfu3eZKdeL7xDUxzv2gjVd+UEilvlC9Oyn2NemJbaNst4dsY/x0gs90rY22Vu4QBk3bRI+njh19HSliOnR3MtjlYqrOEzYBrXaNLGxyW/Xu6M489BqkvbOXlgY3TZeO0wRoz4KJ/U3iqbdl/9AjFJvPnhdCxCLDSSGEpUkRE0JYmlwT2xb9+N+RF6OF2AnSExNCWFrcC/tCCJHMpCcmhLA0KWJCCEuTIiaEsDQpYkIIS5MiJoSwNCliQghLkyImhLA0KWJCCEuTIiaEsDQpYkIIS5MiJoSwNCliQghL+/8BVes6Rc6GgokAAAAASUVORK5CYII=;" vertex="1" parent="1">
          <mxGeometry x="230" y="1080" width="305" height="449" as="geometry" />
        </mxCell>
        <mxCell id="7cSqvC8ZbpraNBw19sRG-18" value="" style="rounded=0;whiteSpace=wrap;html=1;fontSize=16;fontColor=#FFFDF2;strokeColor=#FF3705;fillColor=none;strokeWidth=2;" vertex="1" parent="1">
          <mxGeometry x="240" y="1230" width="160" height="60" as="geometry" />
        </mxCell>
      </root>
    </mxGraphModel>
  </diagram>
</mxfile>
